<svg width="113" height="113" viewBox="0 0 113 113" fill="none" xmlns="http://www.w3.org/2000/svg">
<g filter="url(#filter0_d_338_3763)">
<rect x="0" y="0" width="105" height="105" rx="10" fill="#F9FDFB"/>
<rect x="0" y="0" width="105" height="105" rx="10" stroke="#2AB673" stroke-width="0.5"/>
</g>
<path d="M79.9803 44.2045L76.3403 33.2446C76.2136 32.8665 75.9672 32.5404 75.6385 32.3161C75.3099 32.0919 74.9171 31.9817 74.5203 32.0025H34.4797C34.0829 31.9817 33.6901 32.0919 33.3615 32.3161C33.0328 32.5404 32.7863 32.8665 32.6597 33.2446L29.0197 44.2045C28.9934 44.3985 28.9934 44.5951 29.0197 44.789V55.7489C29.0197 56.2334 29.2114 56.698 29.5527 57.0406C29.8941 57.3831 30.357 57.5756 30.8397 57.5756H32.6597V75.8421H36.2998V57.5756H47.2199V75.8421H76.3403V57.5756H78.1603C78.643 57.5756 79.1059 57.3831 79.4473 57.0406C79.7886 56.698 79.9803 56.2334 79.9803 55.7489V44.789C80.0066 44.5951 80.0066 44.3985 79.9803 44.2045ZM72.7002 72.1888H50.86V57.5756H72.7002V72.1888ZM76.3403 53.9223H69.0602V46.6157H65.4201V53.9223H56.32V46.6157H52.68V53.9223H43.5799V46.6157H39.9398V53.9223H32.6597V45.0813L35.7902 35.6558H73.2098L76.3403 45.0813V53.9223Z" fill="#2AB673"/>
<defs>
</defs>
</svg>
