<svg width="27" height="24" viewBox="0 0 27 24" fill="none" xmlns="http://www.w3.org/2000/svg">
<path d="M23.5529 3.52995H19.8272L17.9882 0.792602C17.9172 0.687032 17.821 0.600508 17.7081 0.540727C17.5952 0.480947 17.4692 0.449764 17.3412 0.449952H9.05882C8.93085 0.449764 8.80481 0.480947 8.69192 0.540727C8.57903 0.600508 8.48279 0.687032 8.41177 0.792602L6.57153 3.52995H2.84706C2.09197 3.52995 1.36781 3.82741 0.833884 4.35689C0.299957 4.88636 0 5.60449 0 6.35329V20.7266C0 21.4754 0.299957 22.1935 0.833884 22.723C1.36781 23.2525 2.09197 23.55 2.84706 23.55H23.5529C24.308 23.55 25.0322 23.2525 25.5661 22.723C26.1 22.1935 26.4 21.4754 26.4 20.7266V6.35329C26.4 5.60449 26.1 4.88636 25.5661 4.35689C25.0322 3.82741 24.308 3.52995 23.5529 3.52995ZM24.8471 20.7266C24.8471 21.067 24.7107 21.3934 24.468 21.6341C24.2253 21.8747 23.8962 22.01 23.5529 22.01H2.84706C2.50384 22.01 2.17467 21.8747 1.93198 21.6341C1.68929 21.3934 1.55294 21.067 1.55294 20.7266V6.35329C1.55294 6.01292 1.68929 5.6865 1.93198 5.44583C2.17467 5.20516 2.50384 5.06995 2.84706 5.06995H6.98824C7.11621 5.07014 7.24225 5.03896 7.35514 4.97918C7.46803 4.9194 7.56427 4.83287 7.63529 4.7273L9.47424 1.98995H16.9245L18.7647 4.7273C18.8357 4.83287 18.932 4.9194 19.0449 4.97918C19.1578 5.03896 19.2838 5.07014 19.4118 5.06995H23.5529C23.8962 5.06995 24.2253 5.20516 24.468 5.44583C24.7107 5.6865 24.8471 6.01292 24.8471 6.35329V20.7266ZM13.2 7.63662C12.125 7.63662 11.0741 7.95274 10.1803 8.545C9.28648 9.13726 8.58983 9.97906 8.17844 10.964C7.76706 11.9488 7.65942 13.0326 7.86914 14.0782C8.07887 15.1237 8.59653 16.0841 9.35667 16.8379C10.1168 17.5917 11.0853 18.1051 12.1396 18.3131C13.194 18.521 14.2868 18.4143 15.28 18.0063C16.2732 17.5984 17.122 16.9075 17.7193 16.0211C18.3165 15.1348 18.6353 14.0927 18.6353 13.0266C18.6353 11.5971 18.0627 10.2261 17.0433 9.21531C16.024 8.20449 14.6415 7.63662 13.2 7.63662ZM13.2 16.8766C12.4321 16.8766 11.6815 16.6508 11.0431 16.2278C10.4046 15.8047 9.90702 15.2034 9.61317 14.5C9.31933 13.7965 9.24244 13.0223 9.39225 12.2755C9.54205 11.5287 9.91181 10.8427 10.4548 10.3043C10.9977 9.76583 11.6895 9.39915 12.4426 9.2506C13.1957 9.10204 13.9763 9.17829 14.6857 9.46968C15.3951 9.76108 16.0015 10.2545 16.4281 10.8877C16.8547 11.5208 17.0824 12.2652 17.0824 13.0266C17.0824 14.0477 16.6733 15.027 15.9452 15.749C15.2172 16.471 14.2297 16.8766 13.2 16.8766Z" fill="#2AB673"/>
</svg>
