<svg width="27" height="26" viewBox="0 0 27 26" fill="none" xmlns="http://www.w3.org/2000/svg">
<g id="Group 34341">
<path id="Vector" d="M17.7182 19.5247C17.7182 19.7485 17.6293 19.9631 17.4711 20.1213C17.3129 20.2795 17.0983 20.3684 16.8745 20.3684H5.06235C4.87673 20.3684 4.69955 20.5372 4.54768 20.6469L1.68745 22.8996V9.40001C1.68745 9.17624 1.77634 8.96164 1.93457 8.80341C2.0928 8.64518 2.3074 8.55628 2.53117 8.55628H5.78795V6.86884H2.53117C1.85987 6.86884 1.21605 7.13551 0.741364 7.6102C0.266677 8.08489 0 8.7287 0 9.40001V24.5871C0.00125572 24.7437 0.0461239 24.897 0.129576 25.0296C0.213028 25.1623 0.331767 25.269 0.472486 25.338C0.608055 25.3996 0.757527 25.4243 0.905717 25.4095C1.05391 25.3947 1.19553 25.3409 1.31621 25.2536L5.66139 22.0559H17.0011C17.3208 22.0653 17.6391 22.009 17.9363 21.8905C18.2334 21.7719 18.503 21.5936 18.7285 21.3666C18.9539 21.1396 19.1303 20.8687 19.2468 20.5708C19.3633 20.2728 19.4174 19.9541 19.4057 19.6344V18.681H17.7182V19.5247Z"/>
<path id="Vector_2" d="M24.468 0.962585H10.1247C9.45337 0.962585 8.80956 1.22926 8.33487 1.70395C7.86018 2.17864 7.59351 2.82245 7.59351 3.49376V13.6185C7.59351 14.2898 7.86018 14.9336 8.33487 15.4083C8.80956 15.883 9.45337 16.1496 10.1247 16.1496H21.5571L25.5902 19.2798C25.71 19.3685 25.8513 19.4238 25.9995 19.4401C26.1477 19.4564 26.2976 19.4331 26.4339 19.3727C26.5775 19.3043 26.6988 19.1967 26.7839 19.0624C26.869 18.928 26.9144 18.7723 26.9148 18.6133V3.49376C26.9152 2.83682 26.6601 2.20547 26.2035 1.73313C25.7469 1.2608 25.1246 0.984483 24.468 0.962585ZM25.3117 16.9427L22.3587 14.6394C22.2114 14.5251 22.0304 14.4628 21.844 14.4622H10.1247C9.90091 14.4622 9.68631 14.3733 9.52808 14.2151C9.36985 14.0568 9.28096 13.8422 9.28096 13.6185V3.49376C9.28096 3.26999 9.36985 3.05539 9.52808 2.89716C9.68631 2.73893 9.90091 2.65003 10.1247 2.65003H24.468C24.6935 2.6705 24.9038 2.77273 25.0592 2.93745C25.2146 3.10218 25.3044 3.31804 25.3117 3.54438V16.9427Z"/>
</g>
</svg>
