<svg width="30" height="21" viewBox="0 0 30 21" fill="none" xmlns="http://www.w3.org/2000/svg">
<path id="Vector" d="M25.7291 2.10404C22.9405 0.728269 19.2273 0 15 0C10.7727 0 7.05955 0.728269 4.27091 2.10404C1.55591 3.44346 0 5.32673 0 7.26923V13.7308C0 15.6733 1.55591 17.5565 4.27091 18.896C7.05955 20.2717 10.7727 21 15 21C19.2273 21 22.9405 20.2717 25.7291 18.896C28.4441 17.5565 30 15.6733 30 13.7308V7.26923C30 5.32673 28.4441 3.44346 25.7291 2.10404ZM5.00182 3.54981C7.52864 2.30192 11.0795 1.61538 15 1.61538C18.9205 1.61538 22.4714 2.30192 24.9982 3.54981C27.1364 4.60519 28.3636 5.96077 28.3636 7.26923C28.3636 8.57769 27.1364 9.93327 24.9982 10.9887C22.4714 12.2365 18.9205 12.9231 15 12.9231C11.0795 12.9231 7.52864 12.2365 5.00182 10.9887C2.86364 9.93327 1.63636 8.57769 1.63636 7.26923C1.63636 5.96077 2.86364 4.60519 5.00182 3.54981ZM14.1818 14.529V19.3752C11.5582 19.3106 9.12682 18.9337 7.09091 18.2835V13.5181C9.17318 14.1252 11.5705 14.4698 14.1818 14.529ZM15.8182 14.529C18.4295 14.4698 20.8268 14.1252 22.9091 13.5167V18.2821C20.8732 18.9323 18.4418 19.3092 15.8182 19.3738V14.529ZM1.63636 13.7308V10.6346C2.41483 11.3653 3.30362 11.972 4.27091 12.4331C4.64909 12.6188 5.04364 12.7929 5.45455 12.9554V17.6669C5.30045 17.5969 5.14909 17.5323 5.00182 17.4542C2.86364 16.3948 1.63636 15.0392 1.63636 13.7308ZM24.9982 17.4502C24.8509 17.5229 24.6995 17.5929 24.5455 17.6629V12.9513C24.9555 12.7889 25.35 12.6148 25.7291 12.429C26.6961 11.9692 27.5849 11.3638 28.3636 10.6346V13.7308C28.3636 15.0392 27.1364 16.3948 24.9982 17.4502Z"/>
</svg>
