<svg width="26" height="24" viewBox="0 0 26 24" fill="none" xmlns="http://www.w3.org/2000/svg">
<path d="M12.9988 0.000732422C20.1797 0.000732422 26 4.55726 26 10.1795C26 15.8006 20.1797 20.3571 13 20.3571C12.2851 20.3575 11.5709 20.3118 10.8618 20.2203L5.40429 23.8056C4.784 24.1352 4.56486 24.0991 4.81991 23.292L5.92429 18.7181C2.35857 16.9024 0 13.7561 0 10.1795C0 4.5585 5.81905 0.000732422 13 0.000732422H12.9988ZM20.3134 10.0241L22.1334 8.25322C22.2384 8.14367 22.297 7.99746 22.2969 7.84538C22.2967 7.6933 22.2377 7.54723 22.1325 7.43793C22.0272 7.32864 21.8838 7.26465 21.7324 7.25945C21.5811 7.25425 21.4337 7.30825 21.3212 7.41006L18.9342 9.73061V7.81299C18.9342 7.65731 18.8726 7.50801 18.763 7.39793C18.6534 7.28786 18.5048 7.22601 18.3498 7.22601C18.1948 7.22601 18.0462 7.28786 17.9366 7.39793C17.827 7.50801 17.7654 7.65731 17.7654 7.81299V10.9929C17.7436 11.0836 17.7436 11.1782 17.7654 11.2689V13.0585C17.7654 13.2141 17.827 13.3634 17.9366 13.4735C18.0462 13.5836 18.1948 13.6454 18.3498 13.6454C18.5048 13.6454 18.6534 13.5836 18.763 13.4735C18.8726 13.3634 18.9342 13.2141 18.9342 13.0585V11.3634L19.4629 10.8498L21.2309 13.3781C21.275 13.4412 21.3311 13.495 21.3959 13.5363C21.4608 13.5777 21.5331 13.6058 21.6087 13.6191C21.6844 13.6323 21.7619 13.6305 21.8368 13.6137C21.9118 13.5969 21.9827 13.5654 22.0455 13.5211C22.1084 13.4767 22.1619 13.4204 22.2031 13.3553C22.2442 13.2902 22.2722 13.2175 22.2854 13.1416C22.2987 13.0656 22.2969 12.9877 22.2801 12.9124C22.2634 12.8372 22.232 12.7659 22.1879 12.7028L20.3134 10.0229V10.0241ZM16.6511 12.4168H14.8435V7.83164C14.8366 7.6808 14.7721 7.53844 14.6634 7.43416C14.5546 7.32987 14.4101 7.27168 14.2598 7.27168C14.1094 7.27168 13.9649 7.32987 13.8562 7.43416C13.7474 7.53844 13.6829 7.6808 13.676 7.83164V13.0037C13.676 13.3271 13.936 13.5907 14.2591 13.5907H16.6511C16.8061 13.5907 16.9548 13.5289 17.0644 13.4188C17.174 13.3087 17.2355 13.1594 17.2355 13.0037C17.2355 12.8481 17.174 12.6988 17.0644 12.5887C16.9548 12.4786 16.8061 12.4168 16.6511 12.4168ZM9.39962 11.06L10.2613 8.93595L11.0512 11.0588L9.39962 11.06ZM12.5233 11.6656L12.5258 11.6457C12.5255 11.4979 12.4693 11.3556 12.3686 11.2478L11.0735 7.76573C11.0192 7.5998 10.9158 7.45445 10.7771 7.34912C10.6384 7.24379 10.471 7.18349 10.2972 7.17627C10.1222 7.1755 9.95112 7.22827 9.80669 7.32757C9.66227 7.42687 9.55138 7.56799 9.48876 7.73216L7.43105 12.7998C7.37244 12.9439 7.37323 13.1055 7.43325 13.2491C7.49327 13.3926 7.6076 13.5064 7.7511 13.5652C7.89459 13.6241 8.05549 13.6233 8.1984 13.563C8.34132 13.5027 8.45453 13.3879 8.51314 13.2438L8.92419 12.2327H11.487L11.856 13.2276C11.8812 13.302 11.9209 13.3705 11.973 13.4291C12.025 13.4878 12.0882 13.5353 12.1588 13.569C12.2295 13.6027 12.3061 13.6217 12.3843 13.6251C12.4624 13.6285 12.5404 13.6161 12.6137 13.5886C12.6869 13.5611 12.7539 13.5192 12.8108 13.4652C12.8676 13.4112 12.913 13.3464 12.9445 13.2744C12.9759 13.2025 12.9926 13.125 12.9936 13.0464C12.9946 12.9679 12.98 12.8899 12.9505 12.8172L12.5233 11.6656ZM8.41038 7.83786C8.41038 7.6824 8.34898 7.53329 8.23966 7.42324C8.13033 7.3132 7.98201 7.25121 7.82724 7.25088H3.80962C3.65463 7.25088 3.50599 7.31273 3.3964 7.42281C3.28681 7.53289 3.22524 7.68218 3.22524 7.83786C3.22524 7.99354 3.28681 8.14284 3.3964 8.25292C3.50599 8.363 3.65463 8.42484 3.80962 8.42484H5.24581V13.0709C5.24581 13.2266 5.30738 13.3759 5.41697 13.486C5.52656 13.596 5.6752 13.6579 5.83019 13.6579C5.98518 13.6579 6.13382 13.596 6.24341 13.486C6.353 13.3759 6.41457 13.2266 6.41457 13.0709V8.42484H7.826C7.98099 8.42484 8.12963 8.363 8.23922 8.25292C8.34881 8.14284 8.41038 7.99354 8.41038 7.83786Z" fill="#888888"/>
</svg>
