<svg width="22" height="22" viewBox="0 0 22 22" fill="none" xmlns="http://www.w3.org/2000/svg">
<path d="M12.0947 17.6811C12.2665 17.8529 12.3629 18.0859 12.3629 18.3288C12.3629 18.5717 12.2665 18.8047 12.0947 18.9765L10.9561 20.1218C9.75198 21.3249 8.11912 22.0005 6.41676 22C4.71439 21.9995 3.08196 21.3228 1.87859 20.1189C0.67521 18.915 -0.000536725 17.2824 3.19865e-07 15.5804C0.000537365 13.8783 0.677315 12.2462 1.88145 11.043L4.6444 8.28058C5.801 7.12326 7.35622 6.45162 8.99183 6.40308C10.6274 6.35454 12.2198 6.93277 13.443 8.01945C13.5333 8.09946 13.6069 8.19647 13.6596 8.30492C13.7124 8.41338 13.7433 8.53117 13.7505 8.65155C13.7577 8.77194 13.7412 8.89258 13.7018 9.00657C13.6624 9.12056 13.6009 9.22568 13.5209 9.31592C13.4409 9.40616 13.3438 9.47976 13.2354 9.53251C13.1269 9.58526 13.0091 9.61614 12.8887 9.62337C12.7683 9.6306 12.6476 9.61405 12.5336 9.57466C12.4196 9.53527 12.3144 9.47381 12.2242 9.3938C11.3505 8.6181 10.2135 8.2054 9.04558 8.2401C7.87767 8.2748 6.76715 8.75428 5.94111 9.58048L3.17816 12.3395C2.31869 13.1988 1.83585 14.3643 1.83585 15.5795C1.83585 16.7948 2.31869 17.9602 3.17816 18.8196C4.03762 19.6789 5.20331 20.1616 6.41878 20.1616C7.63425 20.1616 8.79994 19.6789 9.6594 18.8196L10.798 17.6811C10.8831 17.596 10.9842 17.5284 11.0955 17.4823C11.2067 17.4362 11.326 17.4124 11.4464 17.4124C11.5668 17.4124 11.6861 17.4362 11.7973 17.4823C11.9086 17.5284 12.0096 17.596 12.0947 17.6811ZM20.1224 1.8761C18.9181 0.674708 17.2863 0 15.5851 0C13.8838 0 12.2521 0.674708 11.0478 1.8761L9.90912 3.01567C9.73732 3.18759 9.64086 3.4207 9.64097 3.66373C9.64108 3.90676 9.73774 4.13979 9.9097 4.31156C10.0817 4.48333 10.3148 4.57977 10.5579 4.57967C10.801 4.57956 11.034 4.48291 11.2058 4.31099L12.3445 3.17257C13.2039 2.31326 14.3696 1.8305 15.5851 1.8305C16.8006 1.8305 17.9662 2.31326 18.8257 3.17257C19.6852 4.03188 20.168 5.19736 20.168 6.4126C20.168 7.62785 19.6852 8.79333 18.8257 9.65264L16.0628 12.4174C15.2363 13.2431 14.1255 13.7219 12.9576 13.756C11.7897 13.7901 10.6529 13.3768 9.77968 12.6006C9.5974 12.439 9.35838 12.3564 9.1152 12.371C8.87202 12.3857 8.6446 12.4962 8.48298 12.6785C8.32135 12.8607 8.23876 13.0997 8.25337 13.3429C8.26797 13.586 8.37859 13.8134 8.56087 13.975C9.7838 15.062 11.376 15.6406 13.0116 15.5925C14.6472 15.5444 16.2026 14.8731 17.3595 13.7161L20.1224 10.9537C21.3247 9.7495 22 8.11753 22 6.41604C22 4.71454 21.3247 3.08258 20.1224 1.87839V1.8761Z" fill="#888888"/>
</svg>
