<svg width="12" height="15" viewBox="0 0 12 15" fill="none" xmlns="http://www.w3.org/2000/svg">
<path d="M5.86968 8.47826C5.35373 8.47826 4.84937 8.32526 4.42037 8.03862C3.99137 7.75197 3.65701 7.34455 3.45956 6.86787C3.26212 6.39119 3.21046 5.86667 3.31111 5.36064C3.41177 4.8546 3.66022 4.38977 4.02506 4.02494C4.38989 3.66011 4.85471 3.41165 5.36075 3.311C5.86679 3.21034 6.39131 3.262 6.86799 3.45945C7.34466 3.65689 7.75209 3.99126 8.03873 4.42025C8.32538 4.84925 8.47838 5.35362 8.47838 5.86957C8.47755 6.56118 8.20244 7.22423 7.71339 7.71328C7.22435 8.20232 6.5613 8.47743 5.86968 8.47826ZM5.86968 4.30435C5.56011 4.30435 5.25749 4.39615 5.00009 4.56814C4.7427 4.74012 4.54208 4.98458 4.42361 5.27058C4.30514 5.55659 4.27415 5.8713 4.33454 6.17493C4.39494 6.47855 4.54401 6.75744 4.76291 6.97634C4.98181 7.19524 5.2607 7.34431 5.56432 7.40471C5.86795 7.4651 6.18266 7.43411 6.46867 7.31564C6.75467 7.19717 6.99913 6.99655 7.17111 6.73915C7.3431 6.48176 7.4349 6.17914 7.4349 5.86957C7.43449 5.45457 7.26945 5.05669 6.976 4.76325C6.68256 4.4698 6.28468 4.30476 5.86968 4.30435Z" fill="#2ab673"/>
<path d="M5.86957 15L1.36815 9.67018C1.3056 9.59015 1.2437 9.50961 1.18246 9.42857C0.413533 8.41167 -0.00185755 7.16958 6.24462e-06 5.89286C6.24462e-06 4.32997 0.618405 2.8311 1.71916 1.72598C2.81992 0.620853 4.31286 0 5.86957 0C7.42627 0 8.91922 0.620853 10.02 1.72598C11.1207 2.8311 11.7391 4.32997 11.7391 5.89286C11.741 7.169 11.3258 8.41053 10.5572 9.42696L10.5567 9.42857C10.5567 9.42857 10.3966 9.63964 10.3726 9.66804L5.86957 15ZM2.03461 8.78304C2.03461 8.78304 2.15894 8.94804 2.18722 8.98339L5.86957 13.3436L9.55672 8.9775C9.58019 8.94804 9.70505 8.78196 9.70559 8.78143C10.3337 7.9506 10.6732 6.93591 10.6719 5.89286C10.6719 4.61413 10.166 3.38779 9.26535 2.48359C8.36473 1.5794 7.14323 1.07143 5.86957 1.07143C4.5959 1.07143 3.3744 1.5794 2.47378 2.48359C1.57316 3.38779 1.0672 4.61413 1.0672 5.89286C1.06608 6.93656 1.40591 7.95183 2.03461 8.78304Z" fill="#2ab673"/>
</svg>
