<svg width="2" height="13" viewBox="0 0 2 13" fill="none" xmlns="http://www.w3.org/2000/svg">
<path d="M0 1.08333C0 1.37065 0.105357 1.6462 0.292893 1.84937C0.480429 2.05253 0.734784 2.16667 1 2.16667C1.26522 2.16667 1.51957 2.05253 1.70711 1.84937C1.89464 1.6462 2 1.37065 2 1.08333C2 0.796016 1.89464 0.520465 1.70711 0.317301C1.51957 0.114137 1.26522 0 1 0C0.734784 0 0.480429 0.114137 0.292893 0.317301C0.105357 0.520465 0 0.796016 0 1.08333ZM0 6.5C0 6.78732 0.105357 7.06287 0.292893 7.26603C0.480429 7.4692 0.734784 7.58333 1 7.58333C1.26522 7.58333 1.51957 7.4692 1.70711 7.26603C1.89464 7.06287 2 6.78732 2 6.5C2 6.21268 1.89464 5.93713 1.70711 5.73397C1.51957 5.5308 1.26522 5.41667 1 5.41667C0.734784 5.41667 0.480429 5.5308 0.292893 5.73397C0.105357 5.93713 0 6.21268 0 6.5ZM0 11.9167C0 12.204 0.105357 12.4795 0.292893 12.6827C0.480429 12.8859 0.734784 13 1 13C1.26522 13 1.51957 12.8859 1.70711 12.6827C1.89464 12.4795 2 12.204 2 11.9167C2 11.6293 1.89464 11.3538 1.70711 11.1506C1.51957 10.9475 1.26522 10.8333 1 10.8333C0.734784 10.8333 0.480429 10.9475 0.292893 11.1506C0.105357 11.3538 0 11.6293 0 11.9167Z" fill="#1A1A1A"/>
</svg>
