<svg width="509" height="24" viewBox="0 0 509 24" fill="none" xmlns="http://www.w3.org/2000/svg">
<path d="M15.2012 1.2H17.1932V17.472H15.2012V1.2ZM16.5692 8.304H20.4092V9.984H16.5692V8.304ZM0.417159 3.816H13.2332V5.424H0.417159V3.816ZM6.82516 6.624C9.89716 6.624 12.0092 8.232 12.0092 10.68C12.0092 13.104 9.89716 14.712 6.82516 14.712C3.72916 14.712 1.61716 13.104 1.61716 10.68C1.61716 8.232 3.72916 6.624 6.82516 6.624ZM6.82516 8.184C4.85716 8.184 3.51316 9.168 3.51316 10.68C3.51316 12.168 4.85716 13.152 6.82516 13.152C8.76916 13.152 10.1132 12.168 10.1132 10.68C10.1132 9.168 8.76916 8.184 6.82516 8.184ZM5.81716 1.176H7.80916V4.656H5.81716V1.176ZM3.68116 20.76H18.1772V22.392H3.68116V20.76ZM3.68116 16.176H5.67316V21.456H3.68116V16.176ZM28.7025 2.16H44.6385V3.792H28.7025V2.16ZM28.7985 8.808H44.5425V10.416H28.7985V8.808ZM31.9905 2.928H33.9825V9.432H31.9905V2.928ZM39.3825 2.928H41.3505V9.432H39.3825V2.928ZM26.8785 12.648H46.5345V14.256H26.8785V12.648ZM35.8545 13.416H37.8465V18.408H35.8545V13.416ZM29.3745 20.76H44.3505V22.392H29.3745V20.76ZM29.3745 16.344H31.3425V21.48H29.3745V16.344ZM64.2686 1.152H66.2606V22.896H64.2686V1.152ZM54.8126 2.832C58.0286 2.832 60.3326 5.784 60.3326 10.392C60.3326 15.024 58.0286 17.976 54.8126 17.976C51.6206 17.976 49.3166 15.024 49.3166 10.392C49.3166 5.784 51.6206 2.832 54.8126 2.832ZM54.8126 4.632C52.7006 4.632 51.2126 6.888 51.2126 10.392C51.2126 13.92 52.7006 16.224 54.8126 16.224C56.9486 16.224 58.4126 13.92 58.4126 10.392C58.4126 6.888 56.9486 4.632 54.8126 4.632ZM84.8347 1.152H86.8267V22.896H84.8347V1.152ZM86.3467 9.792H90.3787V11.472H86.3467V9.792ZM71.0107 16.008H72.7387C76.8187 16.008 79.6507 15.864 82.9387 15.24L83.1547 16.896C79.7707 17.496 76.8907 17.664 72.7387 17.664H71.0107V16.008ZM70.9627 3.192H80.7787V10.968H72.9787V16.68H71.0107V9.336H78.8107V4.824H70.9627V3.192ZM94.2408 11.304H109.145V12.936H94.2408V11.304ZM91.7688 18.48H111.425V20.16H91.7688V18.48ZM100.553 12H102.545V19.152H100.553V12ZM94.2408 2.904H108.929V4.536H96.2328V12.024H94.2408V2.904ZM124.062 2.832C127.254 2.832 129.51 5.784 129.51 10.392C129.51 15.024 127.254 17.976 124.062 17.976C120.87 17.976 118.614 15.024 118.614 10.392C118.614 5.784 120.87 2.832 124.062 2.832ZM124.062 4.632C121.95 4.632 120.51 6.888 120.51 10.392C120.51 13.92 121.95 16.224 124.062 16.224C126.15 16.224 127.614 13.92 127.614 10.392C127.614 6.888 126.15 4.632 124.062 4.632ZM132.966 1.176H134.982V22.872H132.966V1.176ZM134.502 9.84H138.534V11.52H134.502V9.84ZM145.948 2.112H147.604V3.432C147.604 7.008 145.132 9.792 141.436 10.896L140.476 9.312C143.764 8.424 145.948 6.096 145.948 3.432V2.112ZM146.332 2.112H147.988V3.432C147.988 5.928 150.124 8.016 153.364 8.808L152.452 10.368C148.756 9.408 146.332 6.84 146.332 3.432V2.112ZM146.116 13.272H148.108V22.2H146.116V13.272ZM155.716 1.176H157.684V22.896H155.716V1.176ZM140.14 14.472L139.876 12.792C143.932 12.792 149.428 12.744 154.18 12.072L154.324 13.536C149.452 14.4 144.124 14.472 140.14 14.472ZM161.522 12.168H181.202V13.8H161.522V12.168ZM170.498 13.2H172.514V18.192H170.498V13.2ZM164.018 20.736H179.018V22.392H164.018V20.736ZM164.018 16.056H166.01V21.192H164.018V16.056ZM171.338 1.704C175.922 1.704 178.946 3.384 178.946 6.072C178.946 8.76 175.922 10.44 171.338 10.44C166.73 10.44 163.73 8.76 163.73 6.072C163.73 3.384 166.73 1.704 171.338 1.704ZM171.338 3.336C168.026 3.336 165.842 4.392 165.842 6.072C165.842 7.776 168.026 8.808 171.338 8.808C174.65 8.808 176.834 7.776 176.834 6.072C176.834 4.392 174.65 3.336 171.338 3.336ZM193.48 4.872H195.112V5.808C195.112 9.576 192.712 12.744 189.088 13.968L188.128 12.408C191.32 11.376 193.48 8.736 193.48 5.808V4.872ZM193.84 4.872H195.472V5.808C195.472 8.496 197.704 10.92 200.896 11.856L199.984 13.416C196.336 12.288 193.84 9.36 193.84 5.808V4.872ZM188.68 3.792H200.248V5.4H188.68V3.792ZM193.48 1.08H195.472V4.368H193.48V1.08ZM199.6 7.344H204.496V9H199.6V7.344ZM203.92 1.176H205.912V14.304H203.92V1.176ZM198.784 14.88C203.272 14.88 206.008 16.344 206.008 18.864C206.008 21.36 203.272 22.824 198.784 22.824C194.272 22.824 191.536 21.36 191.536 18.864C191.536 16.344 194.272 14.88 198.784 14.88ZM198.784 16.44C195.496 16.44 193.528 17.328 193.528 18.864C193.528 20.376 195.496 21.264 198.784 21.264C202.048 21.264 204.04 20.376 204.04 18.864C204.04 17.328 202.048 16.44 198.784 16.44ZM218.51 1.152H220.478V4.176H218.51V1.152ZM218.414 4.512H220.166V4.872C220.166 8.544 216.23 10.776 211.526 11.328L210.878 9.792C215.054 9.36 218.414 7.488 218.414 4.872V4.512ZM218.822 4.512H220.574V4.872C220.574 7.488 223.91 9.36 228.11 9.792L227.462 11.328C222.758 10.776 218.822 8.544 218.822 4.872V4.512ZM211.694 3.504H227.294V5.088H211.694V3.504ZM209.678 12.624H229.334V14.232H209.678V12.624ZM218.654 13.512H220.646V18.504H218.654V13.512ZM212.174 20.76H227.15V22.392H212.174V20.76ZM212.174 16.44H214.142V21.432H212.174V16.44ZM231.324 10.224H250.932V11.856H231.324V10.224ZM233.916 6.864H248.604V8.472H233.916V6.864ZM233.916 1.872H248.364V3.504H235.884V8.16H233.916V1.872ZM233.676 13.728H248.412V18.84H235.692V21.576H233.724V17.352H246.444V15.288H233.676V13.728ZM233.724 21.048H249.06V22.632H233.724V21.048ZM262.738 1.536C267.514 1.536 270.37 2.88 270.37 5.304C270.37 7.728 267.514 9.072 262.738 9.072C257.938 9.072 255.106 7.728 255.106 5.304C255.106 2.88 257.938 1.536 262.738 1.536ZM262.738 3.048C259.186 3.048 257.146 3.864 257.146 5.304C257.146 6.744 259.186 7.56 262.738 7.56C266.266 7.56 268.306 6.744 268.306 5.304C268.306 3.864 266.266 3.048 262.738 3.048ZM252.922 10.512H272.53V12.12H252.922V10.512ZM255.298 13.968H270.034V18.864H257.314V21.504H255.346V17.424H268.066V15.504H255.298V13.968ZM255.346 21.072H270.682V22.632H255.346V21.072ZM286.559 2.184C289.799 2.184 292.103 3.984 292.103 6.648C292.103 9.288 289.799 11.136 286.559 11.136C283.343 11.136 281.039 9.288 281.039 6.648C281.039 3.984 283.343 2.184 286.559 2.184ZM286.559 3.84C284.447 3.84 282.935 4.992 282.935 6.648C282.935 8.328 284.447 9.456 286.559 9.456C288.671 9.456 290.183 8.328 290.183 6.648C290.183 4.992 288.671 3.84 286.559 3.84ZM285.671 13.536H287.663V22.2H285.671V13.536ZM295.271 1.176H297.239V22.896H295.271V1.176ZM279.695 14.616L279.431 12.936C283.463 12.936 288.959 12.888 293.735 12.168L293.879 13.656C288.983 14.544 283.655 14.616 279.695 14.616ZM315.934 1.2H317.926V17.472H315.934V1.2ZM317.302 8.304H321.142V9.984H317.302V8.304ZM301.15 3.816H313.966V5.424H301.15V3.816ZM307.558 6.624C310.63 6.624 312.742 8.232 312.742 10.68C312.742 13.104 310.63 14.712 307.558 14.712C304.462 14.712 302.35 13.104 302.35 10.68C302.35 8.232 304.462 6.624 307.558 6.624ZM307.558 8.184C305.59 8.184 304.246 9.168 304.246 10.68C304.246 12.168 305.59 13.152 307.558 13.152C309.502 13.152 310.846 12.168 310.846 10.68C310.846 9.168 309.502 8.184 307.558 8.184ZM306.55 1.176H308.542V4.656H306.55V1.176ZM304.414 20.76H318.91V22.392H304.414V20.76ZM304.414 16.176H306.406V21.456H304.414V16.176ZM328.043 2.736H338.627V13.464H328.043V2.736ZM335.483 5.256H331.187V10.944H335.483V5.256ZM341.699 0.912H344.891V17.112H341.699V0.912ZM343.979 7.32H347.843V9.936H343.979V7.32ZM330.563 20.208H345.683V22.752H330.563V20.208ZM330.563 15.528H333.755V21.48H330.563V15.528ZM354.801 12.312H357.993V17.184H354.801V12.312ZM364.545 0.912H367.737V17.736H364.545V0.912ZM351.729 20.208H368.217V22.752H351.729V20.208ZM351.729 16.152H354.921V20.88H351.729V16.152ZM349.329 13.272L348.945 10.728C353.001 10.728 358.425 10.68 363.081 10.08L363.273 12.36C358.545 13.152 353.337 13.272 349.329 13.272ZM360.345 13.824H365.241V16.008H360.345V13.824ZM356.097 1.68C359.337 1.68 361.617 3.288 361.617 5.64C361.617 8.016 359.337 9.6 356.097 9.6C352.833 9.6 350.553 8.016 350.553 5.64C350.553 3.288 352.833 1.68 356.097 1.68ZM356.097 4.008C354.609 4.008 353.577 4.56 353.577 5.64C353.577 6.72 354.609 7.272 356.097 7.272C357.561 7.272 358.593 6.72 358.593 5.64C358.593 4.56 357.561 4.008 356.097 4.008ZM377.791 2.376C381.295 2.376 383.911 4.656 383.911 7.848C383.911 11.064 381.295 13.344 377.791 13.344C374.311 13.344 371.647 11.064 371.647 7.848C371.647 4.656 374.311 2.376 377.791 2.376ZM377.791 5.112C376.087 5.112 374.791 6.12 374.791 7.848C374.791 9.6 376.087 10.608 377.791 10.608C379.495 10.608 380.791 9.6 380.791 7.848C380.791 6.12 379.495 5.112 377.791 5.112ZM385.999 0.887999H389.191V23.184H385.999V0.887999ZM371.119 18.672L370.735 16.104C374.647 16.104 380.095 16.056 384.775 15.36L385.015 17.664C380.191 18.624 374.959 18.672 371.119 18.672ZM413.155 0.912H416.179V14.832H413.155V0.912ZM410.443 6.384H413.995V8.976H410.443V6.384ZM408.547 1.344H411.523V14.112H408.547V1.344ZM397.147 3.192H407.923V5.64H397.147V3.192ZM402.571 6.36C405.355 6.36 407.371 7.944 407.371 10.248C407.371 12.552 405.355 14.112 402.571 14.112C399.787 14.112 397.771 12.552 397.771 10.248C397.771 7.944 399.787 6.36 402.571 6.36ZM402.571 8.64C401.395 8.64 400.603 9.216 400.603 10.248C400.603 11.28 401.395 11.856 402.571 11.856C403.723 11.856 404.515 11.28 404.515 10.248C404.515 9.216 403.723 8.64 402.571 8.64ZM400.963 1.128H404.107V4.872H400.963V1.128ZM408.667 15.072C413.419 15.072 416.299 16.512 416.299 19.104C416.299 21.672 413.419 23.136 408.667 23.136C403.891 23.136 401.011 21.672 401.011 19.104C401.011 16.512 403.891 15.072 408.667 15.072ZM408.667 17.448C405.691 17.448 404.203 17.952 404.203 19.104C404.203 20.232 405.691 20.76 408.667 20.76C411.619 20.76 413.107 20.232 413.107 19.104C413.107 17.952 411.619 17.448 408.667 17.448ZM418.865 11.88H438.953V14.448H418.865V11.88ZM427.289 9.048H430.481V12.432H427.289V9.048ZM421.097 15.96H436.529V23.136H433.337V18.48H421.097V15.96ZM421.433 1.464H424.577V3.432H433.241V1.464H436.409V10.056H421.433V1.464ZM424.577 5.808V7.56H433.241V5.808H424.577ZM456.676 7.848H462.532V10.416H456.676V7.848ZM450.628 2.616H453.22V5.832C453.22 11.424 451.324 16.584 447.148 18.672L445.156 16.104C448.948 14.352 450.628 10.056 450.628 5.832V2.616ZM451.3 2.616H453.844V5.832C453.844 10.056 455.452 14.112 459.124 15.744L457.228 18.288C453.052 16.272 451.3 11.376 451.3 5.832V2.616ZM460.948 0.887999H464.116V23.184H460.948V0.887999ZM482.331 0.887999H485.547V23.184H482.331V0.887999ZM468.195 2.664H471.363V8.064H475.947V2.664H479.115V18H468.195V2.664ZM471.363 10.536V15.432H475.947V10.536H471.363ZM496.969 2.184H499.753V3.792C499.753 8.616 496.321 12.888 490.561 14.016L489.193 11.376C494.209 10.512 496.969 6.984 496.969 3.792V2.184ZM497.617 2.184H500.377V3.792C500.377 7.056 503.113 10.512 508.153 11.376L506.785 14.016C501.025 12.888 497.617 8.688 497.617 3.792V2.184ZM488.737 17.832H508.849V20.424H488.737V17.832Z" fill="black"/>
</svg>
