<svg width="562" height="58" viewBox="0 0 562 58" fill="none" xmlns="http://www.w3.org/2000/svg">
<rect width="562" height="58" fill="#2AB673"/>
<path d="M41.2012 19.2H43.1932V35.472H41.2012V19.2ZM42.5692 26.304H46.4092V27.984H42.5692V26.304ZM26.4172 21.816H39.2332V23.424H26.4172V21.816ZM32.8252 24.624C35.8972 24.624 38.0092 26.232 38.0092 28.68C38.0092 31.104 35.8972 32.712 32.8252 32.712C29.7292 32.712 27.6172 31.104 27.6172 28.68C27.6172 26.232 29.7292 24.624 32.8252 24.624ZM32.8252 26.184C30.8572 26.184 29.5132 27.168 29.5132 28.68C29.5132 30.168 30.8572 31.152 32.8252 31.152C34.7692 31.152 36.1132 30.168 36.1132 28.68C36.1132 27.168 34.7692 26.184 32.8252 26.184ZM31.8172 19.176H33.8092V22.656H31.8172V19.176ZM29.6812 38.76H44.1772V40.392H29.6812V38.76ZM29.6812 34.176H31.6732V39.456H29.6812V34.176ZM54.7025 20.16H70.6385V21.792H54.7025V20.16ZM54.7985 26.808H70.5425V28.416H54.7985V26.808ZM57.9905 20.928H59.9825V27.432H57.9905V20.928ZM65.3825 20.928H67.3505V27.432H65.3825V20.928ZM52.8785 30.648H72.5345V32.256H52.8785V30.648ZM61.8545 31.416H63.8465V36.408H61.8545V31.416ZM55.3745 38.76H70.3505V40.392H55.3745V38.76ZM55.3745 34.344H57.3425V39.48H55.3745V34.344ZM90.2686 19.152H92.2606V40.896H90.2686V19.152ZM80.8126 20.832C84.0286 20.832 86.3326 23.784 86.3326 28.392C86.3326 33.024 84.0286 35.976 80.8126 35.976C77.6206 35.976 75.3166 33.024 75.3166 28.392C75.3166 23.784 77.6206 20.832 80.8126 20.832ZM80.8126 22.632C78.7006 22.632 77.2126 24.888 77.2126 28.392C77.2126 31.92 78.7006 34.224 80.8126 34.224C82.9486 34.224 84.4126 31.92 84.4126 28.392C84.4126 24.888 82.9486 22.632 80.8126 22.632ZM110.835 19.152H112.827V40.896H110.835V19.152ZM112.347 27.792H116.379V29.472H112.347V27.792ZM97.0107 34.008H98.7387C102.819 34.008 105.651 33.864 108.939 33.24L109.155 34.896C105.771 35.496 102.891 35.664 98.7387 35.664H97.0107V34.008ZM96.9627 21.192H106.779V28.968H98.9787V34.68H97.0107V27.336H104.811V22.824H96.9627V21.192ZM120.241 29.304H135.145V30.936H120.241V29.304ZM117.769 36.48H137.425V38.16H117.769V36.48ZM126.553 30H128.545V37.152H126.553V30ZM120.241 20.904H134.929V22.536H122.233V30.024H120.241V20.904ZM150.062 20.832C153.254 20.832 155.51 23.784 155.51 28.392C155.51 33.024 153.254 35.976 150.062 35.976C146.87 35.976 144.614 33.024 144.614 28.392C144.614 23.784 146.87 20.832 150.062 20.832ZM150.062 22.632C147.95 22.632 146.51 24.888 146.51 28.392C146.51 31.92 147.95 34.224 150.062 34.224C152.15 34.224 153.614 31.92 153.614 28.392C153.614 24.888 152.15 22.632 150.062 22.632ZM158.966 19.176H160.982V40.872H158.966V19.176ZM160.502 27.84H164.534V29.52H160.502V27.84ZM171.948 20.112H173.604V21.432C173.604 25.008 171.132 27.792 167.436 28.896L166.476 27.312C169.764 26.424 171.948 24.096 171.948 21.432V20.112ZM172.332 20.112H173.988V21.432C173.988 23.928 176.124 26.016 179.364 26.808L178.452 28.368C174.756 27.408 172.332 24.84 172.332 21.432V20.112ZM172.116 31.272H174.108V40.2H172.116V31.272ZM181.716 19.176H183.684V40.896H181.716V19.176ZM166.14 32.472L165.876 30.792C169.932 30.792 175.428 30.744 180.18 30.072L180.324 31.536C175.452 32.4 170.124 32.472 166.14 32.472ZM187.522 30.168H207.202V31.8H187.522V30.168ZM196.498 31.2H198.514V36.192H196.498V31.2ZM190.018 38.736H205.018V40.392H190.018V38.736ZM190.018 34.056H192.01V39.192H190.018V34.056ZM197.338 19.704C201.922 19.704 204.946 21.384 204.946 24.072C204.946 26.76 201.922 28.44 197.338 28.44C192.73 28.44 189.73 26.76 189.73 24.072C189.73 21.384 192.73 19.704 197.338 19.704ZM197.338 21.336C194.026 21.336 191.842 22.392 191.842 24.072C191.842 25.776 194.026 26.808 197.338 26.808C200.65 26.808 202.834 25.776 202.834 24.072C202.834 22.392 200.65 21.336 197.338 21.336ZM219.48 22.872H221.112V23.808C221.112 27.576 218.712 30.744 215.088 31.968L214.128 30.408C217.32 29.376 219.48 26.736 219.48 23.808V22.872ZM219.84 22.872H221.472V23.808C221.472 26.496 223.704 28.92 226.896 29.856L225.984 31.416C222.336 30.288 219.84 27.36 219.84 23.808V22.872ZM214.68 21.792H226.248V23.4H214.68V21.792ZM219.48 19.08H221.472V22.368H219.48V19.08ZM225.6 25.344H230.496V27H225.6V25.344ZM229.92 19.176H231.912V32.304H229.92V19.176ZM224.784 32.88C229.272 32.88 232.008 34.344 232.008 36.864C232.008 39.36 229.272 40.824 224.784 40.824C220.272 40.824 217.536 39.36 217.536 36.864C217.536 34.344 220.272 32.88 224.784 32.88ZM224.784 34.44C221.496 34.44 219.528 35.328 219.528 36.864C219.528 38.376 221.496 39.264 224.784 39.264C228.048 39.264 230.04 38.376 230.04 36.864C230.04 35.328 228.048 34.44 224.784 34.44ZM244.51 19.152H246.478V22.176H244.51V19.152ZM244.414 22.512H246.166V22.872C246.166 26.544 242.23 28.776 237.526 29.328L236.878 27.792C241.054 27.36 244.414 25.488 244.414 22.872V22.512ZM244.822 22.512H246.574V22.872C246.574 25.488 249.91 27.36 254.11 27.792L253.462 29.328C248.758 28.776 244.822 26.544 244.822 22.872V22.512ZM237.694 21.504H253.294V23.088H237.694V21.504ZM235.678 30.624H255.334V32.232H235.678V30.624ZM244.654 31.512H246.646V36.504H244.654V31.512ZM238.174 38.76H253.15V40.392H238.174V38.76ZM238.174 34.44H240.142V39.432H238.174V34.44ZM257.324 28.224H276.932V29.856H257.324V28.224ZM259.916 24.864H274.604V26.472H259.916V24.864ZM259.916 19.872H274.364V21.504H261.884V26.16H259.916V19.872ZM259.676 31.728H274.412V36.84H261.692V39.576H259.724V35.352H272.444V33.288H259.676V31.728ZM259.724 39.048H275.06V40.632H259.724V39.048ZM288.738 19.536C293.514 19.536 296.37 20.88 296.37 23.304C296.37 25.728 293.514 27.072 288.738 27.072C283.938 27.072 281.106 25.728 281.106 23.304C281.106 20.88 283.938 19.536 288.738 19.536ZM288.738 21.048C285.186 21.048 283.146 21.864 283.146 23.304C283.146 24.744 285.186 25.56 288.738 25.56C292.266 25.56 294.306 24.744 294.306 23.304C294.306 21.864 292.266 21.048 288.738 21.048ZM278.922 28.512H298.53V30.12H278.922V28.512ZM281.298 31.968H296.034V36.864H283.314V39.504H281.346V35.424H294.066V33.504H281.298V31.968ZM281.346 39.072H296.682V40.632H281.346V39.072ZM312.559 20.184C315.799 20.184 318.103 21.984 318.103 24.648C318.103 27.288 315.799 29.136 312.559 29.136C309.343 29.136 307.039 27.288 307.039 24.648C307.039 21.984 309.343 20.184 312.559 20.184ZM312.559 21.84C310.447 21.84 308.935 22.992 308.935 24.648C308.935 26.328 310.447 27.456 312.559 27.456C314.671 27.456 316.183 26.328 316.183 24.648C316.183 22.992 314.671 21.84 312.559 21.84ZM311.671 31.536H313.663V40.2H311.671V31.536ZM321.271 19.176H323.239V40.896H321.271V19.176ZM305.695 32.616L305.431 30.936C309.463 30.936 314.959 30.888 319.735 30.168L319.879 31.656C314.983 32.544 309.655 32.616 305.695 32.616ZM341.934 19.2H343.926V35.472H341.934V19.2ZM343.302 26.304H347.142V27.984H343.302V26.304ZM327.15 21.816H339.966V23.424H327.15V21.816ZM333.558 24.624C336.63 24.624 338.742 26.232 338.742 28.68C338.742 31.104 336.63 32.712 333.558 32.712C330.462 32.712 328.35 31.104 328.35 28.68C328.35 26.232 330.462 24.624 333.558 24.624ZM333.558 26.184C331.59 26.184 330.246 27.168 330.246 28.68C330.246 30.168 331.59 31.152 333.558 31.152C335.502 31.152 336.846 30.168 336.846 28.68C336.846 27.168 335.502 26.184 333.558 26.184ZM332.55 19.176H334.542V22.656H332.55V19.176ZM330.414 38.76H344.91V40.392H330.414V38.76ZM330.414 34.176H332.406V39.456H330.414V34.176ZM354.043 20.736H364.627V31.464H354.043V20.736ZM361.483 23.256H357.187V28.944H361.483V23.256ZM367.699 18.912H370.891V35.112H367.699V18.912ZM369.979 25.32H373.843V27.936H369.979V25.32ZM356.563 38.208H371.683V40.752H356.563V38.208ZM356.563 33.528H359.755V39.48H356.563V33.528ZM380.801 30.312H383.993V35.184H380.801V30.312ZM390.545 18.912H393.737V35.736H390.545V18.912ZM377.729 38.208H394.217V40.752H377.729V38.208ZM377.729 34.152H380.921V38.88H377.729V34.152ZM375.329 31.272L374.945 28.728C379.001 28.728 384.425 28.68 389.081 28.08L389.273 30.36C384.545 31.152 379.337 31.272 375.329 31.272ZM386.345 31.824H391.241V34.008H386.345V31.824ZM382.097 19.68C385.337 19.68 387.617 21.288 387.617 23.64C387.617 26.016 385.337 27.6 382.097 27.6C378.833 27.6 376.553 26.016 376.553 23.64C376.553 21.288 378.833 19.68 382.097 19.68ZM382.097 22.008C380.609 22.008 379.577 22.56 379.577 23.64C379.577 24.72 380.609 25.272 382.097 25.272C383.561 25.272 384.593 24.72 384.593 23.64C384.593 22.56 383.561 22.008 382.097 22.008ZM403.791 20.376C407.295 20.376 409.911 22.656 409.911 25.848C409.911 29.064 407.295 31.344 403.791 31.344C400.311 31.344 397.647 29.064 397.647 25.848C397.647 22.656 400.311 20.376 403.791 20.376ZM403.791 23.112C402.087 23.112 400.791 24.12 400.791 25.848C400.791 27.6 402.087 28.608 403.791 28.608C405.495 28.608 406.791 27.6 406.791 25.848C406.791 24.12 405.495 23.112 403.791 23.112ZM411.999 18.888H415.191V41.184H411.999V18.888ZM397.119 36.672L396.735 34.104C400.647 34.104 406.095 34.056 410.775 33.36L411.015 35.664C406.191 36.624 400.959 36.672 397.119 36.672ZM439.155 18.912H442.179V32.832H439.155V18.912ZM436.443 24.384H439.995V26.976H436.443V24.384ZM434.547 19.344H437.523V32.112H434.547V19.344ZM423.147 21.192H433.923V23.64H423.147V21.192ZM428.571 24.36C431.355 24.36 433.371 25.944 433.371 28.248C433.371 30.552 431.355 32.112 428.571 32.112C425.787 32.112 423.771 30.552 423.771 28.248C423.771 25.944 425.787 24.36 428.571 24.36ZM428.571 26.64C427.395 26.64 426.603 27.216 426.603 28.248C426.603 29.28 427.395 29.856 428.571 29.856C429.723 29.856 430.515 29.28 430.515 28.248C430.515 27.216 429.723 26.64 428.571 26.64ZM426.963 19.128H430.107V22.872H426.963V19.128ZM434.667 33.072C439.419 33.072 442.299 34.512 442.299 37.104C442.299 39.672 439.419 41.136 434.667 41.136C429.891 41.136 427.011 39.672 427.011 37.104C427.011 34.512 429.891 33.072 434.667 33.072ZM434.667 35.448C431.691 35.448 430.203 35.952 430.203 37.104C430.203 38.232 431.691 38.76 434.667 38.76C437.619 38.76 439.107 38.232 439.107 37.104C439.107 35.952 437.619 35.448 434.667 35.448ZM444.865 29.88H464.953V32.448H444.865V29.88ZM453.289 27.048H456.481V30.432H453.289V27.048ZM447.097 33.96H462.529V41.136H459.337V36.48H447.097V33.96ZM447.433 19.464H450.577V21.432H459.241V19.464H462.409V28.056H447.433V19.464ZM450.577 23.808V25.56H459.241V23.808H450.577ZM482.676 25.848H488.532V28.416H482.676V25.848ZM476.628 20.616H479.22V23.832C479.22 29.424 477.324 34.584 473.148 36.672L471.156 34.104C474.948 32.352 476.628 28.056 476.628 23.832V20.616ZM477.3 20.616H479.844V23.832C479.844 28.056 481.452 32.112 485.124 33.744L483.228 36.288C479.052 34.272 477.3 29.376 477.3 23.832V20.616ZM486.948 18.888H490.116V41.184H486.948V18.888ZM508.331 18.888H511.547V41.184H508.331V18.888ZM494.195 20.664H497.363V26.064H501.947V20.664H505.115V36H494.195V20.664ZM497.363 28.536V33.432H501.947V28.536H497.363ZM522.969 20.184H525.753V21.792C525.753 26.616 522.321 30.888 516.561 32.016L515.193 29.376C520.209 28.512 522.969 24.984 522.969 21.792V20.184ZM523.617 20.184H526.377V21.792C526.377 25.056 529.113 28.512 534.153 29.376L532.785 32.016C527.025 30.888 523.617 26.688 523.617 21.792V20.184ZM514.737 35.832H534.849V38.424H514.737V35.832Z" fill="white"/>
</svg>
