<svg width="24" height="23" viewBox="0 0 24 23" fill="none" xmlns="http://www.w3.org/2000/svg">
<path id="Vector" d="M11.727 11.3903C13.2374 11.3903 14.686 10.7903 15.754 9.72222C16.8221 8.65417 17.4221 7.20559 17.4221 5.69514C17.4221 4.1847 16.8221 2.73611 15.754 1.66807C14.686 0.600022 13.2374 0 11.727 0C10.2165 0 8.76793 0.600022 7.69988 1.66807C6.63183 2.73611 6.03181 4.1847 6.03181 5.69514C6.03181 7.20559 6.63183 8.65417 7.69988 9.72222C8.76793 10.7903 10.2165 11.3903 11.727 11.3903ZM15.5237 5.69514C15.5237 6.70211 15.1237 7.66783 14.4117 8.37986C13.6996 9.09189 12.7339 9.4919 11.727 9.4919C10.72 9.4919 9.75427 9.09189 9.04224 8.37986C8.33021 7.66783 7.93019 6.70211 7.93019 5.69514C7.93019 4.68818 8.33021 3.72246 9.04224 3.01043C9.75427 2.2984 10.72 1.89838 11.727 1.89838C12.7339 1.89838 13.6996 2.2984 14.4117 3.01043C15.1237 3.72246 15.5237 4.68818 15.5237 5.69514ZM23.1172 20.8822C23.1172 22.7806 21.2189 22.7806 21.2189 22.7806H2.23505C2.23505 22.7806 0.33667 22.7806 0.33667 20.8822C0.33667 18.9838 2.23505 13.2887 11.727 13.2887C21.2189 13.2887 23.1172 18.9838 23.1172 20.8822ZM21.2189 20.8746C21.217 20.4076 20.9265 19.0028 19.6394 17.7157C18.4017 16.4779 16.0723 15.187 11.727 15.187C7.37966 15.187 5.05225 16.4779 3.8145 17.7157C2.5274 19.0028 2.23885 20.4076 2.23505 20.8746H21.2189Z" fill="black"/>
</svg>
