<svg width="113" height="113" viewBox="0 0 113 113" fill="none" xmlns="http://www.w3.org/2000/svg">
<g filter="url(#filter0_d_403_2054)">
<rect x="0" y="0" width="105" height="105" rx="10" fill="#F9FDFB"/>
<rect x="0" y="0" width="105" height="105" rx="10" stroke="#2AB673" stroke-width="0.5"/>
<path d="M61.7671 52.7244C61.6161 52.5041 61.5101 52.2562 61.4551 51.9948C61.4 51.7335 61.3971 51.4638 61.4464 51.2014C61.4957 50.9389 61.5962 50.6887 61.7423 50.4651C61.8884 50.2415 62.0772 50.049 62.2978 49.8984L79.4771 38.1426C79.922 37.8673 80.4561 37.7743 80.9679 37.883C81.4797 37.9918 81.9298 38.2938 82.2244 38.7263C82.519 39.1587 82.6354 39.6881 82.5493 40.2042C82.4632 40.7203 82.1813 41.1833 81.7622 41.4967L64.5804 53.2525C64.2437 53.4847 63.8442 53.6087 63.4353 53.608C63.1065 53.6067 62.7829 53.5257 62.4923 53.3718C62.2017 53.2178 61.9529 52.9957 61.7671 52.7244ZM82.3005 74.3293C81.9961 74.7737 81.5276 75.079 80.9981 75.178C80.4687 75.2771 79.9215 75.1617 79.4771 74.8574L56.2497 58.9629L45.4562 66.3465C46.2797 68.4378 46.3038 70.7592 45.5239 72.8672C44.744 74.9752 43.2148 76.722 41.2284 77.7737C39.242 78.8255 36.9378 79.1085 34.7559 78.5687C32.5741 78.0289 30.6676 76.7041 29.4008 74.8475C28.1339 72.9909 27.5956 70.7326 27.8886 68.5041C28.1815 66.2757 29.2853 64.2333 30.9889 62.7672C32.6926 61.3011 34.8767 60.5141 37.1239 60.5566C39.3712 60.5991 41.524 61.468 43.171 62.9974L52.6519 56.5L43.1583 50.0025C41.5168 51.5241 39.3724 52.3877 37.1346 52.4285C34.8968 52.4693 32.7223 51.6844 31.0265 50.2237C29.3306 48.7631 28.2322 46.7289 27.941 44.5097C27.6497 42.2906 28.186 40.0419 29.4476 38.1931C30.7091 36.3442 32.6074 35.0249 34.7799 34.4868C36.9525 33.9488 39.2471 34.2299 41.2256 35.2763C43.2041 36.3228 44.7279 38.0613 45.5059 40.1599C46.2839 42.2586 46.2617 44.5702 45.4435 46.6535L81.7521 71.5033C81.9741 71.6525 82.1644 71.844 82.3122 72.0669C82.46 72.2899 82.5624 72.5398 82.6133 72.8024C82.6643 73.0649 82.6629 73.335 82.6092 73.597C82.5555 73.8591 82.4506 74.1079 82.3005 74.3293ZM42.031 69.7031C42.0312 68.5282 41.6241 67.3896 40.879 66.4813C40.1338 65.573 39.0968 64.9511 37.9445 64.7217C36.7923 64.4922 35.5961 64.6694 34.5599 65.2231C33.5236 65.7767 32.7114 66.6725 32.2616 67.7579C31.8118 68.8432 31.7523 70.0509 32.0931 71.1753C32.434 72.2996 33.1541 73.271 34.1309 73.9239C35.1076 74.5767 36.2806 74.8707 37.4498 74.7558C38.619 74.6408 39.7122 74.124 40.5431 73.2933C41.0164 72.8232 41.3916 72.2637 41.647 71.6474C41.9024 71.0311 42.0329 70.3702 42.031 69.7031ZM40.5431 46.8846C41.2534 46.1744 41.7372 45.2696 41.9333 44.2845C42.1293 43.2994 42.0289 42.2783 41.6446 41.3503C41.2603 40.4223 40.6094 39.6291 39.7743 39.071C38.9391 38.513 37.9573 38.2151 36.9528 38.2151C35.9484 38.2151 34.9666 38.513 34.1314 39.071C33.2963 39.6291 32.6454 40.4223 32.2611 41.3503C31.8768 42.2783 31.7763 43.2994 31.9724 44.2845C32.1685 45.2696 32.6523 46.1744 33.3626 46.8846C33.8316 47.3605 34.3905 47.7385 35.0068 47.9965C35.6232 48.2545 36.2847 48.3873 36.9528 48.3873C37.621 48.3873 38.2825 48.2545 38.8989 47.9965C39.5152 47.7385 40.0741 47.3605 40.5431 46.8846Z" fill="#2AB673"/>
</g>
<defs>
</defs>
</svg>
