<svg width="113" height="113" viewBox="0 0 113 113" fill="none" xmlns="http://www.w3.org/2000/svg">
<g filter="url(#filter0_d_338_3763)">
<rect x="0" y="0" width="105" height="105" rx="10" fill="#F9FDFB"/>
<rect x="0" y="0" width="105" height="105" rx="10" stroke="#2AB673" stroke-width="0.5"/>
</g>
<path d="M71.2933 44.575V70.075M71.2933 70.075V79H38.1433V70.075M71.2933 70.075H80.2183V44.575C80.2183 40.75 77.6683 36.2875 73.8433 33.1C70.0183 29.9125 62.3683 28 62.3683 28H47.0683C47.0683 28 39.4183 29.9125 35.5933 33.1C31.7683 36.2875 29.2183 40.75 29.2183 44.575V70.075H38.1433M38.1433 70.075V44.575" stroke="#2AB673" stroke-width="3.33333" stroke-linecap="round" stroke-linejoin="round"/>
<path d="M62.3684 28C62.3684 32.225 58.9433 35.65 54.7184 35.65C50.4934 35.65 47.0684 32.225 47.0684 28" stroke="#2AB673" stroke-width="3.33333" stroke-linecap="round" stroke-linejoin="round"/>
<defs>
</defs>
</svg>
