<svg width="17" height="19" viewBox="0 0 17 19" fill="none" xmlns="http://www.w3.org/2000/svg">
<path d="M13.6898 17.0281L15.968 8.69474C16.0037 8.5642 16.0096 8.42688 15.9853 8.29358C15.961 8.16028 15.9071 8.03462 15.8279 7.92649C15.7486 7.81835 15.6462 7.73069 15.5287 7.67039C15.4112 7.61008 15.2817 7.57878 15.1505 7.57895H10.2802C10.2104 7.57895 10.1415 7.56266 10.0786 7.53131C10.0157 7.49995 9.96049 7.45433 9.91702 7.39784C9.87356 7.34135 9.84298 7.27545 9.82756 7.20505C9.81215 7.13465 9.8123 7.06156 9.828 6.99123L10.0401 6.04211C10.2344 5.17149 10.2968 4.27456 10.2251 3.38421L10.1861 2.90044C10.1442 2.38144 9.92584 1.89457 9.56963 1.52632C9.24381 1.18939 8.80187 1.00007 8.34104 1H8.23922C7.96049 1 7.70383 1.15614 7.56892 1.40789L6.44087 3.50658C5.93517 4.44781 5.18133 5.22123 4.26707 5.73684L1.44206 7.32895C1.30812 7.4045 1.19638 7.516 1.11858 7.6517C1.04078 7.78739 0.99982 7.94226 1 8.1V16.7895C1 17.0221 1.08939 17.2452 1.24851 17.4097C1.40763 17.5742 1.62345 17.6667 1.84848 17.6667H12.8732C13.0579 17.6666 13.2376 17.6042 13.3849 17.489C13.5323 17.3737 13.6396 17.2119 13.6898 17.0281Z" stroke="#B3B3B3" stroke-width="0.833333" stroke-linecap="round" stroke-linejoin="round"/>
</svg>
