<?xml version="1.0" encoding="UTF-8"?>
<!DOCTYPE svg PUBLIC "-//W3C//DTD SVG 1.1//EN" "http://www.w3.org/Graphics/SVG/1.1/DTD/svg11.dtd">
<svg xmlns="http://www.w3.org/2000/svg" version="1.1" width="193px" height="193px" style="shape-rendering:geometricPrecision; text-rendering:geometricPrecision; image-rendering:optimizeQuality; fill-rule:evenodd; clip-rule:evenodd" xmlns:xlink="http://www.w3.org/1999/xlink">
<g><path style="opacity:0.129" fill="#e6eae5" d="M 162.5,-0.5 C 164.5,-0.5 166.5,-0.5 168.5,-0.5C 169.167,0.166667 169.833,0.833333 170.5,1.5C 167.627,1.19767 164.961,0.531006 162.5,-0.5 Z"/></g>
<g><path style="opacity:1" fill="#557252" d="M 147.5,-0.5 C 152.5,-0.5 157.5,-0.5 162.5,-0.5C 164.961,0.531006 167.627,1.19767 170.5,1.5C 175.713,3.26978 180.047,6.26978 183.5,10.5C 183.5,15.8333 183.5,21.1667 183.5,26.5C 182.5,26.5 181.5,26.5 180.5,26.5C 180.392,24.2166 179.559,22.2166 178,20.5C 176.187,20.2533 174.353,19.92 172.5,19.5C 170.047,16.7587 167.714,13.9254 165.5,11C 167.061,10.6824 168.228,9.84905 169,8.5C 170,9.5 171,10.5 172,11.5C 170.422,7.88593 167.922,4.71926 164.5,2C 163.038,2.06283 161.705,2.72949 160.5,4C 161.687,5.01948 162.687,6.18614 163.5,7.5C 162.975,8.19238 162.308,8.69238 161.5,9C 163.543,10.708 165.21,12.708 166.5,15C 164.671,14.5977 163.004,13.9311 161.5,13C 164.306,16.7423 167.473,20.2423 171,23.5C 171.667,24.1667 171.667,24.8333 171,25.5C 169,23.5 167,21.5 165,19.5C 164.692,20.3081 164.192,20.9747 163.5,21.5C 161.47,19.393 159.303,17.393 157,15.5C 157.195,17.745 158.362,19.5784 160.5,21C 156.037,20.1577 154.37,17.3243 155.5,12.5C 154.448,12.3505 153.448,12.5172 152.5,13C 153.451,13.7175 153.617,14.5509 153,15.5C 151.667,14.1667 150.333,12.8333 149,11.5C 149.546,14.0933 151.046,16.2599 153.5,18C 153.167,18.1667 152.833,18.3333 152.5,18.5C 150.408,16.3951 148.075,14.7284 145.5,13.5C 138.868,10.6009 138.534,7.7676 144.5,5C 142.411,1.87702 143.078,1.71035 146.5,4.5C 148.424,3.03471 148.757,1.36804 147.5,-0.5 Z"/></g>
<g><path style="opacity:1" fill="#547953" d="M 51.5,-0.5 C 52.8333,-0.5 54.1667,-0.5 55.5,-0.5C 56.5981,0.396953 56.5981,1.23029 55.5,2C 56.1667,2.33333 56.8333,2.66667 57.5,3C 56.2766,5.05209 55.2766,7.21876 54.5,9.5C 53.2638,10.2458 51.9305,10.5792 50.5,10.5C 50.2322,12.099 50.5655,13.4324 51.5,14.5C 54.0592,17.7024 53.0592,19.3691 48.5,19.5C 47.726,25.1463 47.0593,30.813 46.5,36.5C 46.5046,38.6965 46.838,40.6965 47.5,42.5C 47.5,42.8333 47.5,43.1667 47.5,43.5C 46.1952,41.6028 45.5286,39.2695 45.5,36.5C 46.0326,30.8418 46.366,25.1751 46.5,19.5C 47.3142,12.6106 48.9808,5.94393 51.5,-0.5 Z"/></g>
<g><path style="opacity:1" fill="#afccac" d="M 28.5,-0.5 C 31.1667,-0.5 33.8333,-0.5 36.5,-0.5C 35.6689,3.08828 35.6689,6.75495 36.5,10.5C 40.1716,10.8174 41.8383,9.15075 41.5,5.5C 42.8333,5.5 44.1667,5.5 45.5,5.5C 45.665,8.8499 45.4983,12.1832 45,15.5C 43.1706,17.1558 41.8372,19.1558 41,21.5C 39.6667,22.1667 38.3333,22.8333 37,23.5C 36.3828,24.4491 36.5494,25.2825 37.5,26C 36.2161,26.6838 35.0495,26.5171 34,25.5C 31.7652,21.3702 29.2652,17.3702 26.5,13.5C 26.1667,13.6667 25.8333,13.8333 25.5,14C 26.3567,14.6891 27.0233,15.5224 27.5,16.5C 26.1667,17.5 26.1667,18.5 27.5,19.5C 26.1667,20.8333 24.8333,22.1667 23.5,23.5C 19.2172,24.4922 14.8839,24.8256 10.5,24.5C 10.762,25.9778 10.4287,27.3112 9.5,28.5C 8.13497,27.1931 6.80163,27.1931 5.5,28.5C 5.16667,28.5 4.83333,28.5 4.5,28.5C 5.68158,26.9969 6.18158,25.3302 6,23.5C 4.50978,22.2721 3.00978,22.2721 1.5,23.5C 6.14032,10.5228 15.1403,2.52285 28.5,-0.5 Z"/></g>
<g><path style="opacity:1" fill="#5f795a" d="M 62.5,-0.5 C 90.8333,-0.5 119.167,-0.5 147.5,-0.5C 148.757,1.36804 148.424,3.03471 146.5,4.5C 143.078,1.71035 142.411,1.87702 144.5,5C 138.534,7.7676 138.868,10.6009 145.5,13.5C 145.631,14.2389 145.464,14.9056 145,15.5C 143.686,14.6872 142.519,13.6872 141.5,12.5C 140.735,13.6119 139.735,14.2786 138.5,14.5C 137.438,12.2435 135.772,11.0768 133.5,11C 134.833,12.3333 136.167,13.6667 137.5,15C 136.833,15.6667 136.167,15.6667 135.5,15C 132.824,12.186 129.824,10.186 126.5,9C 129.284,11.0805 128.951,11.7472 125.5,11C 123.627,8.79113 121.46,6.9578 119,5.5C 118.333,6.16667 118.333,6.83333 119,7.5C 122.672,10.3421 126.172,13.3421 129.5,16.5C 129.333,16.8333 129.167,17.1667 129,17.5C 126.521,14.931 123.854,12.5977 121,10.5C 120.333,11.1667 120.333,11.8333 121,12.5C 122.41,13.7875 123.91,14.9542 125.5,16C 124.5,16.6667 123.5,16.6667 122.5,16C 120.167,14.1667 117.833,12.3333 115.5,10.5C 115.167,10.6667 114.833,10.8333 114.5,11C 115.381,11.7083 116.047,12.5416 116.5,13.5C 116.565,13.9382 116.399,14.2716 116,14.5C 113.065,11.1302 109.565,8.96351 105.5,8C 108.02,9.76321 110.353,11.7632 112.5,14C 111.167,14 109.833,14 108.5,14C 110.09,15.0458 111.59,16.2125 113,17.5C 113.667,18.1667 113.667,18.8333 113,19.5C 109.642,16.6415 106.142,13.9749 102.5,11.5C 102.667,11.1667 102.833,10.8333 103,10.5C 104.337,11.7649 105.837,12.2649 107.5,12C 104.451,8.64589 100.784,6.64589 96.5,6C 98.8912,7.30863 98.8912,8.30863 96.5,9C 101.833,13 107.167,17 112.5,21C 112,21.1667 111.5,21.3333 111,21.5C 106.704,18.7083 102.538,15.7083 98.5,12.5C 98.1667,12.8333 97.8333,13.1667 97.5,13.5C 99.1667,14.8333 100.833,16.1667 102.5,17.5C 102.167,17.8333 101.833,18.1667 101.5,18.5C 96.4775,14.5012 91.1442,11.3345 85.5,9C 88.5568,11.7226 91.8901,14.056 95.5,16C 96.6956,16.6543 96.6956,17.1543 95.5,17.5C 92.1667,15.5 88.8333,13.5 85.5,11.5C 85.5,12.5 85.5,13.5 85.5,14.5C 81.8713,12.6999 78.3713,10.6999 75,8.5C 74.3828,9.44915 74.5494,10.2825 75.5,11C 80.6334,13.0666 85.3001,15.8999 89.5,19.5C 89.1667,19.8333 88.8333,20.1667 88.5,20.5C 86.7597,18.7892 84.7597,17.9558 82.5,18C 83.7305,19.4048 85.0639,20.5714 86.5,21.5C 83.8598,20.5515 81.1931,19.5515 78.5,18.5C 71.5996,13.028 72.0996,12.3613 80,16.5C 80.1667,16.1667 80.3333,15.8333 80.5,15.5C 76.8963,13.2016 73.2296,11.2016 69.5,9.5C 69.5,8.16667 69.5,6.83333 69.5,5.5C 67.8333,5.5 66.1667,5.5 64.5,5.5C 64.33,6.82207 64.6634,7.98873 65.5,9C 63.8739,8.80471 62.2072,8.80471 60.5,9C 61.6721,9.41862 62.6721,10.0853 63.5,11C 61.9238,11.4396 60.5904,12.273 59.5,13.5C 55.6607,12.2787 55.6607,11.6121 59.5,11.5C 59.8588,9.23405 59.1922,7.40072 57.5,6C 58.8333,5.66667 60.1667,5.33333 61.5,5C 60.6919,4.69238 60.0253,4.19238 59.5,3.5C 60.9095,2.43052 61.9095,1.09719 62.5,-0.5 Z"/></g>
<g><path style="opacity:1" fill="#b5d4b3" d="M 183.5,10.5 C 187.24,14.3105 190.24,18.6439 192.5,23.5C 192.5,24.8333 192.5,26.1667 192.5,27.5C 189.609,26.5975 186.609,26.2641 183.5,26.5C 183.5,21.1667 183.5,15.8333 183.5,10.5 Z"/></g>
<g><path style="opacity:1" fill="#a7c9ad" d="M 36.5,-0.5 C 41.5,-0.5 46.5,-0.5 51.5,-0.5C 48.9808,5.94393 47.3142,12.6106 46.5,19.5C 45.6829,21.9686 45.1829,24.6353 45,27.5C 44.5604,29.0762 43.727,30.4096 42.5,31.5C 43.6446,32.891 43.6446,34.2243 42.5,35.5C 41.5344,33.604 41.2011,31.604 41.5,29.5C 38.3857,28.6137 35.3857,28.2803 32.5,28.5C 29.4212,28.7399 26.4212,28.4066 23.5,27.5C 20.9044,28.4822 18.2377,29.1489 15.5,29.5C 16.9162,31.86 16.5828,33.86 14.5,35.5C 12.6783,34.5714 11.3449,35.2381 10.5,37.5C 11.661,39.378 10.9944,40.378 8.5,40.5C 7.35268,40.1822 6.51935,39.5156 6,38.5C 6.23448,35.0913 6.06782,31.758 5.5,28.5C 6.80163,27.1931 8.13497,27.1931 9.5,28.5C 10.4287,27.3112 10.762,25.9778 10.5,24.5C 14.8839,24.8256 19.2172,24.4922 23.5,23.5C 24.8333,22.1667 26.1667,20.8333 27.5,19.5C 26.1667,18.5 26.1667,17.5 27.5,16.5C 27.0233,15.5224 26.3567,14.6891 25.5,14C 25.8333,13.8333 26.1667,13.6667 26.5,13.5C 29.2652,17.3702 31.7652,21.3702 34,25.5C 35.0495,26.5171 36.2161,26.6838 37.5,26C 36.5494,25.2825 36.3828,24.4491 37,23.5C 38.3333,22.8333 39.6667,22.1667 41,21.5C 41.8372,19.1558 43.1706,17.1558 45,15.5C 45.4983,12.1832 45.665,8.8499 45.5,5.5C 44.1667,5.5 42.8333,5.5 41.5,5.5C 41.8383,9.15075 40.1716,10.8174 36.5,10.5C 35.6689,6.75495 35.6689,3.08828 36.5,-0.5 Z"/></g>
<g><path style="opacity:1" fill="#577051" d="M 116.5,13.5 C 119.792,15.4581 122.792,17.7915 125.5,20.5C 123.833,22.1667 122.167,23.8333 120.5,25.5C 119.086,24.376 117.586,23.376 116,22.5C 115.833,22.8333 115.667,23.1667 115.5,23.5C 117.858,25.5293 120.192,27.5293 122.5,29.5C 121.998,30.521 121.332,30.6877 120.5,30C 115.411,23.7077 114.411,24.2077 117.5,31.5C 121.516,31.2871 125.35,31.9538 129,33.5C 130.566,32.9394 131.899,33.6061 133,35.5C 134,34.8333 135,34.1667 136,33.5C 137.066,35.0995 138.566,36.0995 140.5,36.5C 141.732,35.8555 143.065,35.6888 144.5,36C 142.993,35.1627 142.493,33.9961 143,32.5C 144.074,33.6184 145.24,34.6184 146.5,35.5C 146.291,36.086 145.957,36.586 145.5,37C 147.886,37.2835 148.552,38.2835 147.5,40C 149.175,40.9853 150.842,41.8186 152.5,42.5C 151.833,42.5 151.167,42.5 150.5,42.5C 147.053,40.9099 143.387,39.9099 139.5,39.5C 137.11,37.9802 134.443,36.9802 131.5,36.5C 125.651,35.8041 119.984,34.8041 114.5,33.5C 107.842,32.8337 101.008,32.5004 94,32.5C 84.7336,32.2812 75.5669,32.9479 66.5,34.5C 66.3433,33.1266 66.51,31.7932 67,30.5C 67.3879,31.428 68.0546,32.0946 69,32.5C 71.7967,32.1782 74.2967,31.1782 76.5,29.5C 80.8372,30.2533 85.1706,29.92 89.5,28.5C 88.4937,27.6043 88.4937,26.9377 89.5,26.5C 90.3059,29.3617 91.6393,29.8617 93.5,28C 92.7511,26.2663 92.2511,24.433 92,22.5C 91.4387,21.9781 90.772,21.6448 90,21.5C 88.9895,21.8919 88.4895,22.5585 88.5,23.5C 87.4777,23.1445 86.811,22.4778 86.5,21.5C 85.0639,20.5714 83.7305,19.4048 82.5,18C 84.7597,17.9558 86.7597,18.7892 88.5,20.5C 88.8333,20.1667 89.1667,19.8333 89.5,19.5C 85.3001,15.8999 80.6334,13.0666 75.5,11C 74.5494,10.2825 74.3828,9.44915 75,8.5C 78.3713,10.6999 81.8713,12.6999 85.5,14.5C 85.5,13.5 85.5,12.5 85.5,11.5C 88.8333,13.5 92.1667,15.5 95.5,17.5C 96.6956,17.1543 96.6956,16.6543 95.5,16C 91.8901,14.056 88.5568,11.7226 85.5,9C 91.1442,11.3345 96.4775,14.5012 101.5,18.5C 101.833,18.1667 102.167,17.8333 102.5,17.5C 100.833,16.1667 99.1667,14.8333 97.5,13.5C 97.8333,13.1667 98.1667,12.8333 98.5,12.5C 102.538,15.7083 106.704,18.7083 111,21.5C 111.5,21.3333 112,21.1667 112.5,21C 107.167,17 101.833,13 96.5,9C 98.8912,8.30863 98.8912,7.30863 96.5,6C 100.784,6.64589 104.451,8.64589 107.5,12C 105.837,12.2649 104.337,11.7649 103,10.5C 102.833,10.8333 102.667,11.1667 102.5,11.5C 106.142,13.9749 109.642,16.6415 113,19.5C 113.667,18.8333 113.667,18.1667 113,17.5C 111.59,16.2125 110.09,15.0458 108.5,14C 109.833,14 111.167,14 112.5,14C 110.353,11.7632 108.02,9.76321 105.5,8C 109.565,8.96351 113.065,11.1302 116,14.5C 116.399,14.2716 116.565,13.9382 116.5,13.5 Z"/></g>
<g><path style="opacity:1" fill="#577252" d="M 55.5,-0.5 C 57.8333,-0.5 60.1667,-0.5 62.5,-0.5C 61.9095,1.09719 60.9095,2.43052 59.5,3.5C 60.0253,4.19238 60.6919,4.69238 61.5,5C 60.1667,5.33333 58.8333,5.66667 57.5,6C 59.1922,7.40072 59.8588,9.23405 59.5,11.5C 55.6607,11.6121 55.6607,12.2787 59.5,13.5C 60.5904,12.273 61.9238,11.4396 63.5,11C 62.6721,10.0853 61.6721,9.41862 60.5,9C 62.2072,8.80471 63.8739,8.80471 65.5,9C 64.6634,7.98873 64.33,6.82207 64.5,5.5C 66.1667,5.5 67.8333,5.5 69.5,5.5C 69.5,6.83333 69.5,8.16667 69.5,9.5C 73.2296,11.2016 76.8963,13.2016 80.5,15.5C 80.3333,15.8333 80.1667,16.1667 80,16.5C 72.0996,12.3613 71.5996,13.028 78.5,18.5C 81.079,21.1348 84.079,23.3015 87.5,25C 86.5,25.6667 85.5,25.6667 84.5,25C 82.431,23.1256 80.0977,22.1256 77.5,22C 79.2552,22.7199 80.0885,23.8866 80,25.5C 78.6626,24.2351 77.1626,23.7351 75.5,24C 76.9842,25.5737 78.6508,26.907 80.5,28C 80.1667,28.1667 79.8333,28.3333 79.5,28.5C 75.3982,26.0329 71.2315,23.6996 67,21.5C 66.5,21.6667 66,21.8333 65.5,22C 66.3279,22.9147 67.3279,23.5814 68.5,24C 61.306,22.9875 60.9726,23.8208 67.5,26.5C 68.8333,27.1667 68.8333,27.8333 67.5,28.5C 65.3263,26.5597 62.993,26.2264 60.5,27.5C 58.1434,26.9049 55.9767,25.9049 54,24.5C 53.7168,22.3981 54.5501,20.7315 56.5,19.5C 55.8333,18.8333 55.1667,18.1667 54.5,17.5C 55.8333,16.5 55.8333,15.5 54.5,14.5C 53.3864,13.2241 52.3864,13.2241 51.5,14.5C 50.5655,13.4324 50.2322,12.099 50.5,10.5C 51.9305,10.5792 53.2638,10.2458 54.5,9.5C 55.2766,7.21876 56.2766,5.05209 57.5,3C 56.8333,2.66667 56.1667,2.33333 55.5,2C 56.5981,1.23029 56.5981,0.396953 55.5,-0.5 Z"/></g>
<g><path style="opacity:1" fill="#4a6645" d="M 180.5,26.5 C 179.167,26.5 177.833,26.5 176.5,26.5C 176.811,33.0898 176.478,39.5898 175.5,46C 176.649,47.7441 177.983,47.9108 179.5,46.5C 179.833,47.3333 180.167,48.1667 180.5,49C 179.4,50.0927 178.4,51.5927 177.5,53.5C 176.754,57.1317 176.421,60.7983 176.5,64.5C 173.394,64.936 170.727,66.2693 168.5,68.5C 166.5,68.5 164.5,68.5 162.5,68.5C 163.123,61.7453 162.456,55.412 160.5,49.5C 160.25,47.326 159.25,45.6594 157.5,44.5C 157.5,43.1667 157.5,41.8333 157.5,40.5C 156.167,40.5 154.833,40.5 153.5,40.5C 153.67,39.1779 153.337,38.0113 152.5,37C 154.957,35.8456 154.957,34.5123 152.5,33C 153.167,32.3333 153.833,32.3333 154.5,33C 155.304,34.7713 156.471,36.2713 158,37.5C 158.315,36.0922 157.982,34.7589 157,33.5C 151.149,27.5929 145.149,21.9262 139,16.5C 138.536,15.9056 138.369,15.2389 138.5,14.5C 139.735,14.2786 140.735,13.6119 141.5,12.5C 142.519,13.6872 143.686,14.6872 145,15.5C 145.464,14.9056 145.631,14.2389 145.5,13.5C 148.075,14.7284 150.408,16.3951 152.5,18.5C 152.833,18.3333 153.167,18.1667 153.5,18C 151.046,16.2599 149.546,14.0933 149,11.5C 150.333,12.8333 151.667,14.1667 153,15.5C 153.617,14.5509 153.451,13.7175 152.5,13C 153.448,12.5172 154.448,12.3505 155.5,12.5C 154.37,17.3243 156.037,20.1577 160.5,21C 158.362,19.5784 157.195,17.745 157,15.5C 159.303,17.393 161.47,19.393 163.5,21.5C 164.192,20.9747 164.692,20.3081 165,19.5C 167,21.5 169,23.5 171,25.5C 171.667,24.8333 171.667,24.1667 171,23.5C 167.473,20.2423 164.306,16.7423 161.5,13C 163.004,13.9311 164.671,14.5977 166.5,15C 165.21,12.708 163.543,10.708 161.5,9C 162.308,8.69238 162.975,8.19238 163.5,7.5C 162.687,6.18614 161.687,5.01948 160.5,4C 161.705,2.72949 163.038,2.06283 164.5,2C 167.922,4.71926 170.422,7.88593 172,11.5C 171,10.5 170,9.5 169,8.5C 168.228,9.84905 167.061,10.6824 165.5,11C 167.714,13.9254 170.047,16.7587 172.5,19.5C 174.353,19.92 176.187,20.2533 178,20.5C 179.559,22.2166 180.392,24.2166 180.5,26.5 Z"/></g>
<g><path style="opacity:1" fill="#4c6948" d="M 78.5,18.5 C 81.1931,19.5515 83.8598,20.5515 86.5,21.5C 86.811,22.4778 87.4777,23.1445 88.5,23.5C 88.4895,22.5585 88.9895,21.8919 90,21.5C 90.772,21.6448 91.4387,21.9781 92,22.5C 92.2511,24.433 92.7511,26.2663 93.5,28C 91.6393,29.8617 90.3059,29.3617 89.5,26.5C 88.4937,26.9377 88.4937,27.6043 89.5,28.5C 85.1706,29.92 80.8372,30.2533 76.5,29.5C 74.2967,31.1782 71.7967,32.1782 69,32.5C 68.0546,32.0946 67.3879,31.428 67,30.5C 66.51,31.7932 66.3433,33.1266 66.5,34.5C 62.8657,35.0008 59.5324,36.3342 56.5,38.5C 53.1042,38.8843 50.1042,40.2177 47.5,42.5C 46.838,40.6965 46.5046,38.6965 46.5,36.5C 47.0593,30.813 47.726,25.1463 48.5,19.5C 53.0592,19.3691 54.0592,17.7024 51.5,14.5C 52.3864,13.2241 53.3864,13.2241 54.5,14.5C 55.8333,15.5 55.8333,16.5 54.5,17.5C 55.1667,18.1667 55.8333,18.8333 56.5,19.5C 54.5501,20.7315 53.7168,22.3981 54,24.5C 55.9767,25.9049 58.1434,26.9049 60.5,27.5C 62.993,26.2264 65.3263,26.5597 67.5,28.5C 68.8333,27.8333 68.8333,27.1667 67.5,26.5C 60.9726,23.8208 61.306,22.9875 68.5,24C 67.3279,23.5814 66.3279,22.9147 65.5,22C 66,21.8333 66.5,21.6667 67,21.5C 71.2315,23.6996 75.3982,26.0329 79.5,28.5C 79.8333,28.3333 80.1667,28.1667 80.5,28C 78.6508,26.907 76.9842,25.5737 75.5,24C 77.1626,23.7351 78.6626,24.2351 80,25.5C 80.0885,23.8866 79.2552,22.7199 77.5,22C 80.0977,22.1256 82.431,23.1256 84.5,25C 85.5,25.6667 86.5,25.6667 87.5,25C 84.079,23.3015 81.079,21.1348 78.5,18.5 Z"/></g>
<g><path style="opacity:1" fill="#4d6849" d="M 138.5,14.5 C 138.369,15.2389 138.536,15.9056 139,16.5C 145.149,21.9262 151.149,27.5929 157,33.5C 157.982,34.7589 158.315,36.0922 158,37.5C 156.471,36.2713 155.304,34.7713 154.5,33C 153.833,32.3333 153.167,32.3333 152.5,33C 154.957,34.5123 154.957,35.8456 152.5,37C 153.337,38.0113 153.67,39.1779 153.5,40.5C 154.833,40.5 156.167,40.5 157.5,40.5C 157.5,41.8333 157.5,43.1667 157.5,44.5C 155.694,43.9759 154.028,43.3092 152.5,42.5C 150.842,41.8186 149.175,40.9853 147.5,40C 148.552,38.2835 147.886,37.2835 145.5,37C 145.957,36.586 146.291,36.086 146.5,35.5C 145.24,34.6184 144.074,33.6184 143,32.5C 142.493,33.9961 142.993,35.1627 144.5,36C 143.065,35.6888 141.732,35.8555 140.5,36.5C 138.566,36.0995 137.066,35.0995 136,33.5C 135,34.1667 134,34.8333 133,35.5C 131.899,33.6061 130.566,32.9394 129,33.5C 125.35,31.9538 121.516,31.2871 117.5,31.5C 114.411,24.2077 115.411,23.7077 120.5,30C 121.332,30.6877 121.998,30.521 122.5,29.5C 120.192,27.5293 117.858,25.5293 115.5,23.5C 115.667,23.1667 115.833,22.8333 116,22.5C 117.586,23.376 119.086,24.376 120.5,25.5C 122.167,23.8333 123.833,22.1667 125.5,20.5C 122.792,17.7915 119.792,15.4581 116.5,13.5C 116.047,12.5416 115.381,11.7083 114.5,11C 114.833,10.8333 115.167,10.6667 115.5,10.5C 117.833,12.3333 120.167,14.1667 122.5,16C 123.5,16.6667 124.5,16.6667 125.5,16C 123.91,14.9542 122.41,13.7875 121,12.5C 120.333,11.8333 120.333,11.1667 121,10.5C 123.854,12.5977 126.521,14.931 129,17.5C 129.167,17.1667 129.333,16.8333 129.5,16.5C 126.172,13.3421 122.672,10.3421 119,7.5C 118.333,6.83333 118.333,6.16667 119,5.5C 121.46,6.9578 123.627,8.79113 125.5,11C 128.951,11.7472 129.284,11.0805 126.5,9C 129.824,10.186 132.824,12.186 135.5,15C 136.167,15.6667 136.833,15.6667 137.5,15C 136.167,13.6667 134.833,12.3333 133.5,11C 135.772,11.0768 137.438,12.2435 138.5,14.5 Z"/></g>
<g><path style="opacity:1" fill="#92a78a" d="M 114.5,33.5 C 105.167,33.5 95.8333,33.5 86.5,33.5C 82.4862,33.3345 78.4862,33.5012 74.5,34C 68.5598,35.8217 62.5598,37.3217 56.5,38.5C 59.5324,36.3342 62.8657,35.0008 66.5,34.5C 75.5669,32.9479 84.7336,32.2812 94,32.5C 101.008,32.5004 107.842,32.8337 114.5,33.5 Z"/></g>
<g><path style="opacity:1" fill="#bac9b4" d="M 86.5,33.5 C 95.8333,33.5 105.167,33.5 114.5,33.5C 119.984,34.8041 125.651,35.8041 131.5,36.5C 134.015,42.3182 137.682,47.4848 142.5,52C 141.783,53.6524 141.45,55.1524 141.5,56.5C 140.029,55.6195 139.196,54.2861 139,52.5C 138.617,53.056 138.117,53.3893 137.5,53.5C 136.201,51.5877 135.201,49.5877 134.5,47.5C 134.67,46.1779 134.337,45.0113 133.5,44C 130.339,43.6672 127.339,43.1672 124.5,42.5C 125.025,41.8076 125.692,41.3076 126.5,41C 125.692,40.6924 125.025,40.1924 124.5,39.5C 125.641,38.5745 125.641,37.7412 124.5,37C 122.899,36.7266 121.399,36.2266 120,35.5C 119.417,37.0016 118.584,38.3349 117.5,39.5C 116.5,37.8333 115.167,36.5 113.5,35.5C 111.299,37.0565 111.299,38.2232 113.5,39C 112.167,39.6667 110.833,39.6667 109.5,39C 109.833,38.6667 110.167,38.3333 110.5,38C 108.5,37.6667 106.5,37.3333 104.5,37C 105.308,36.6924 105.975,36.1924 106.5,35.5C 105.311,34.5713 103.978,34.238 102.5,34.5C 102.759,37.4797 101.426,39.313 98.5,40C 99.056,40.3826 99.3893,40.8826 99.5,41.5C 97.5739,43.2927 95.2406,44.2927 92.5,44.5C 92.5,46.8333 92.5,49.1667 92.5,51.5C 91.5,51.5 90.5,51.5 89.5,51.5C 89.7564,49.2075 89.4231,47.0408 88.5,45C 86.9562,45.4866 85.2895,45.9866 83.5,46.5C 83.6621,48.5273 83.4955,50.5273 83,52.5C 82.51,51.2068 82.3433,49.8734 82.5,48.5C 78.4935,48.5121 76.1602,46.5121 75.5,42.5C 72.1423,41.7153 68.809,40.7153 65.5,39.5C 65.8333,39.1667 66.1667,38.8333 66.5,38.5C 72.883,37.6679 79.5497,36.0013 86.5,33.5 Z"/></g>
<g><path style="opacity:1" fill="#bdccb8" d="M 134.5,47.5 C 129.716,47.192 125.049,48.192 120.5,50.5C 117.287,50.19 114.287,50.5233 111.5,51.5C 107.317,51.1369 103.317,51.8036 99.5,53.5C 97.6096,52.3877 95.6096,51.5544 93.5,51C 95.7536,49.9461 96.087,48.4461 94.5,46.5C 95.6313,45.3961 96.4646,45.7295 97,47.5C 97.6667,46.1667 98.3333,44.8333 99,43.5C 101.473,44.1197 103.973,44.7864 106.5,45.5C 105.624,46.2508 104.624,46.7508 103.5,47C 105.813,47.662 108.146,48.162 110.5,48.5C 110.649,47.448 110.483,46.448 110,45.5C 108.334,46.3402 108.167,45.8402 109.5,44C 105.843,43.9502 102.51,43.1168 99.5,41.5C 99.3893,40.8826 99.056,40.3826 98.5,40C 101.426,39.313 102.759,37.4797 102.5,34.5C 103.978,34.238 105.311,34.5713 106.5,35.5C 105.975,36.1924 105.308,36.6924 104.5,37C 106.5,37.3333 108.5,37.6667 110.5,38C 110.167,38.3333 109.833,38.6667 109.5,39C 110.833,39.6667 112.167,39.6667 113.5,39C 111.299,38.2232 111.299,37.0565 113.5,35.5C 115.167,36.5 116.5,37.8333 117.5,39.5C 118.584,38.3349 119.417,37.0016 120,35.5C 121.399,36.2266 122.899,36.7266 124.5,37C 125.641,37.7412 125.641,38.5745 124.5,39.5C 125.025,40.1924 125.692,40.6924 126.5,41C 125.692,41.3076 125.025,41.8076 124.5,42.5C 127.339,43.1672 130.339,43.6672 133.5,44C 134.337,45.0113 134.67,46.1779 134.5,47.5 Z"/></g>
<g><path style="opacity:1" fill="#9dc3a3" d="M 32.5,28.5 C 32.5,30.1667 32.5,31.8333 32.5,33.5C 33.8333,33.5 35.1667,33.5 36.5,33.5C 36.8333,36.5 38.5,38.1667 41.5,38.5C 41.1561,42.0532 40.4894,45.5532 39.5,49C 40.6274,50.0567 41.1274,51.2234 41,52.5C 37.9871,55.9247 34.4871,58.758 30.5,61C 27.4686,61.4954 24.4686,61.3287 21.5,60.5C 20.9084,57.8728 20.5751,55.2062 20.5,52.5C 19.448,52.6495 18.448,52.4828 17.5,52C 15.2865,48.8932 12.2865,47.3932 8.5,47.5C 7.50838,47.6716 6.84171,47.3382 6.5,46.5C 4.54462,45.5526 4.21128,44.2193 5.5,42.5C 4.67504,41.6143 3.67504,41.281 2.5,41.5C 4.06173,37.3484 4.7284,33.0151 4.5,28.5C 4.83333,28.5 5.16667,28.5 5.5,28.5C 6.06782,31.758 6.23448,35.0913 6,38.5C 6.51935,39.5156 7.35268,40.1822 8.5,40.5C 10.9944,40.378 11.661,39.378 10.5,37.5C 11.3449,35.2381 12.6783,34.5714 14.5,35.5C 16.5828,33.86 16.9162,31.86 15.5,29.5C 18.2377,29.1489 20.9044,28.4822 23.5,27.5C 26.4212,28.4066 29.4212,28.7399 32.5,28.5 Z"/></g>
<g><path style="opacity:1" fill="#baac8b" d="M 20.5,52.5 C 19.1244,39.5338 24.1244,35.8672 35.5,41.5C 38.5301,51.628 34.8634,56.128 24.5,55C 23.2644,53.9152 21.9311,53.0819 20.5,52.5 Z"/></g>
<g><path style="opacity:1" fill="#93c090" d="M 4.5,28.5 C 4.7284,33.0151 4.06173,37.3484 2.5,41.5C 3.67504,41.281 4.67504,41.6143 5.5,42.5C 4.21128,44.2193 4.54462,45.5526 6.5,46.5C 4.16667,46.5 1.83333,46.5 -0.5,46.5C -0.5,40.1667 -0.5,33.8333 -0.5,27.5C 0.166667,26.1667 0.833333,24.8333 1.5,23.5C 3.00978,22.2721 4.50978,22.2721 6,23.5C 6.18158,25.3302 5.68158,26.9969 4.5,28.5 Z"/></g>
<g><path style="opacity:1" fill="#4c7042" d="M 180.5,26.5 C 181.5,26.5 182.5,26.5 183.5,26.5C 182.721,38.1863 181.721,49.8529 180.5,61.5C 179.662,61.8417 179.328,62.5084 179.5,63.5C 178.609,64.1098 177.609,64.4431 176.5,64.5C 176.421,60.7983 176.754,57.1317 177.5,53.5C 178.4,51.5927 179.4,50.0927 180.5,49C 180.167,48.1667 179.833,47.3333 179.5,46.5C 177.983,47.9108 176.649,47.7441 175.5,46C 176.478,39.5898 176.811,33.0898 176.5,26.5C 177.833,26.5 179.167,26.5 180.5,26.5 Z"/></g>
<g><path style="opacity:1" fill="#a9cd8e" d="M 183.5,26.5 C 186.609,26.2641 189.609,26.5975 192.5,27.5C 192.5,39.8333 192.5,52.1667 192.5,64.5C 188.115,64.2228 184.115,63.2228 180.5,61.5C 181.721,49.8529 182.721,38.1863 183.5,26.5 Z"/></g>
<g><path style="opacity:1" fill="#b1c1aa" d="M 86.5,33.5 C 79.5497,36.0013 72.883,37.6679 66.5,38.5C 66.1667,38.8333 65.8333,39.1667 65.5,39.5C 68.809,40.7153 72.1423,41.7153 75.5,42.5C 76.1602,46.5121 78.4935,48.5121 82.5,48.5C 82.3433,49.8734 82.51,51.2068 83,52.5C 83.4955,50.5273 83.6621,48.5273 83.5,46.5C 85.2895,45.9866 86.9562,45.4866 88.5,45C 89.4231,47.0408 89.7564,49.2075 89.5,51.5C 90.5,51.5 91.5,51.5 92.5,51.5C 92.5,49.1667 92.5,46.8333 92.5,44.5C 95.2406,44.2927 97.5739,43.2927 99.5,41.5C 102.51,43.1168 105.843,43.9502 109.5,44C 108.167,45.8402 108.334,46.3402 110,45.5C 110.483,46.448 110.649,47.448 110.5,48.5C 108.146,48.162 105.813,47.662 103.5,47C 104.624,46.7508 105.624,46.2508 106.5,45.5C 103.973,44.7864 101.473,44.1197 99,43.5C 98.3333,44.8333 97.6667,46.1667 97,47.5C 96.4646,45.7295 95.6313,45.3961 94.5,46.5C 96.087,48.4461 95.7536,49.9461 93.5,51C 95.6096,51.5544 97.6096,52.3877 99.5,53.5C 103.317,51.8036 107.317,51.1369 111.5,51.5C 109.031,52.3171 106.365,52.8171 103.5,53C 102.944,53.3826 102.611,53.8826 102.5,54.5C 100.346,56.7482 97.679,58.2482 94.5,59C 89.0553,70.2316 87.3886,82.3983 89.5,95.5C 88.2147,98.0205 87.5481,100.687 87.5,103.5C 86.1667,103.5 84.8333,103.5 83.5,103.5C 83.4122,106.309 81.9122,107.642 79,107.5C 76.4163,104.974 73.2496,103.974 69.5,104.5C 68.8941,100.378 70.3941,97.3782 74,95.5C 76.5719,89.0181 78.5719,82.3514 80,75.5C 80.6667,71.1667 80.6667,66.8333 80,62.5C 77.6785,60.1804 76.1785,57.5138 75.5,54.5C 75.6716,53.5084 75.3382,52.8417 74.5,52.5C 73.9094,51.8485 73.2427,51.1818 72.5,50.5C 65.8582,49.3358 59.1915,49.1691 52.5,50C 51.5842,50.2784 50.9175,50.7784 50.5,51.5C 49.2058,52.2899 48.0391,53.2899 47,54.5C 46.502,51.5184 46.3354,48.5184 46.5,45.5C 46.8333,44.8333 47.1667,44.1667 47.5,43.5C 47.5,43.1667 47.5,42.8333 47.5,42.5C 50.1042,40.2177 53.1042,38.8843 56.5,38.5C 62.5598,37.3217 68.5598,35.8217 74.5,34C 78.4862,33.5012 82.4862,33.3345 86.5,33.5 Z"/></g>
<g><path style="opacity:1" fill="#5d7955" d="M 74.5,52.5 C 74.5299,53.4972 74.0299,54.1639 73,54.5C 69.5449,53.4496 66.0449,53.2829 62.5,54C 57.463,55.3092 52.463,56.8092 47.5,58.5C 48.0427,55.9616 49.0427,53.6282 50.5,51.5C 50.9175,50.7784 51.5842,50.2784 52.5,50C 59.1915,49.1691 65.8582,49.3358 72.5,50.5C 73.2427,51.1818 73.9094,51.8485 74.5,52.5 Z"/></g>
<g><path style="opacity:1" fill="#5d7856" d="M 112.5,56.5 C 109.237,57.4822 105.903,58.1489 102.5,58.5C 102.5,57.1667 102.5,55.8333 102.5,54.5C 102.611,53.8826 102.944,53.3826 103.5,53C 106.365,52.8171 109.031,52.3171 111.5,51.5C 114.287,50.5233 117.287,50.19 120.5,50.5C 124.861,49.5766 129.194,49.5766 133.5,50.5C 135.086,52.1727 135.753,54.1727 135.5,56.5C 127.787,55.9801 120.121,55.9801 112.5,56.5 Z"/></g>
<g><path style="opacity:1" fill="#7f9c78" d="M 46.5,45.5 C 46.3354,48.5184 46.502,51.5184 47,54.5C 48.0391,53.2899 49.2058,52.2899 50.5,51.5C 49.0427,53.6282 48.0427,55.9616 47.5,58.5C 52.463,56.8092 57.463,55.3092 62.5,54C 66.0449,53.2829 69.5449,53.4496 73,54.5C 74.0299,54.1639 74.5299,53.4972 74.5,52.5C 75.3382,52.8417 75.6716,53.5084 75.5,54.5C 75.5386,55.7562 75.0386,56.7562 74,57.5C 72.0438,57.2155 69.8771,57.2155 67.5,57.5C 64.4816,57.3354 61.4816,57.502 58.5,58C 56.3746,58.8161 54.5413,59.9827 53,61.5C 50.7438,59.9145 48.2438,59.2479 45.5,59.5C 46.3292,64.453 46.6625,69.453 46.5,74.5C 46.5,77.1667 46.5,79.8333 46.5,82.5C 46.1667,82.5 45.8333,82.5 45.5,82.5C 46.1128,76.7291 45.4461,71.3958 43.5,66.5C 43.5405,63.1194 43.2071,59.7861 42.5,56.5C 42.7167,53.5647 43.3834,50.7313 44.5,48C 44.6842,46.6244 45.3509,45.7911 46.5,45.5 Z"/></g>
<g><path style="opacity:1" fill="#a7b7a0" d="M 131.5,36.5 C 134.443,36.9802 137.11,37.9802 139.5,39.5C 139.5,40.8333 139.5,42.1667 139.5,43.5C 140.873,43.3433 142.207,43.51 143.5,44C 144.061,45.676 145.061,47.0094 146.5,48C 146.167,48.3333 145.833,48.6667 145.5,49C 147.327,49.8993 148.66,51.2326 149.5,53C 149.23,56.343 148.23,59.343 146.5,62C 145.939,63.5655 146.606,64.8989 148.5,66C 147.745,68.1748 146.912,70.3415 146,72.5C 145.111,71.1118 144.611,71.2785 144.5,73C 145.992,75.3638 145.326,76.8638 142.5,77.5C 142.047,76.5416 141.381,75.7083 140.5,75C 141.167,74.6667 141.833,74.3333 142.5,74C 142.549,71.9538 142.215,69.7871 141.5,67.5C 140.06,68.9524 138.394,69.9524 136.5,70.5C 138.118,66.9724 137.785,63.6391 135.5,60.5C 137.733,58.4306 138.4,56.0972 137.5,53.5C 138.117,53.3893 138.617,53.056 139,52.5C 139.196,54.2861 140.029,55.6195 141.5,56.5C 141.45,55.1524 141.783,53.6524 142.5,52C 137.682,47.4848 134.015,42.3182 131.5,36.5 Z"/></g>
<g><path style="opacity:1" fill="#94c095" d="M 46.5,19.5 C 46.366,25.1751 46.0326,30.8418 45.5,36.5C 45.5286,39.2695 46.1952,41.6028 47.5,43.5C 47.1667,44.1667 46.8333,44.8333 46.5,45.5C 45.3509,45.7911 44.6842,46.6244 44.5,48C 43.3834,50.7313 42.7167,53.5647 42.5,56.5C 37.4095,60.65 33.2428,65.65 30,71.5C 28.9887,72.3366 27.8221,72.67 26.5,72.5C 25.5722,69.8704 24.5722,67.2037 23.5,64.5C 20.8434,61.8534 18.6768,58.8534 17,55.5C 14.8943,52.8823 12.3943,50.8823 9.5,49.5C 9.16667,48.8333 8.83333,48.1667 8.5,47.5C 12.2865,47.3932 15.2865,48.8932 17.5,52C 18.448,52.4828 19.448,52.6495 20.5,52.5C 20.5751,55.2062 20.9084,57.8728 21.5,60.5C 24.4686,61.3287 27.4686,61.4954 30.5,61C 34.4871,58.758 37.9871,55.9247 41,52.5C 41.1274,51.2234 40.6274,50.0567 39.5,49C 40.4894,45.5532 41.1561,42.0532 41.5,38.5C 38.5,38.1667 36.8333,36.5 36.5,33.5C 35.1667,33.5 33.8333,33.5 32.5,33.5C 32.5,31.8333 32.5,30.1667 32.5,28.5C 35.3857,28.2803 38.3857,28.6137 41.5,29.5C 41.2011,31.604 41.5344,33.604 42.5,35.5C 43.6446,34.2243 43.6446,32.891 42.5,31.5C 43.727,30.4096 44.5604,29.0762 45,27.5C 45.1829,24.6353 45.6829,21.9686 46.5,19.5 Z"/></g>
<g><path style="opacity:1" fill="#aebea6" d="M 111.5,58.5 C 116.297,58.1211 120.964,58.6211 125.5,60C 124.167,61.6667 124.167,63.3333 125.5,65C 124.263,65.2321 123.263,65.7321 122.5,66.5C 115.8,66.83 109.134,66.4967 102.5,65.5C 101.141,63.694 101.475,62.194 103.5,61C 106.292,60.4577 108.958,59.6244 111.5,58.5 Z"/></g>
<g><path style="opacity:1" fill="#5c7953" d="M 70.5,69.5 C 67.6053,71.1965 64.4386,72.1965 61,72.5C 58.8436,72.2449 56.8436,71.5782 55,70.5C 53.4223,71.5472 51.9223,71.5472 50.5,70.5C 52.3198,69.1171 54.3198,68.1171 56.5,67.5C 62.1296,66.4793 67.7963,66.3127 73.5,67C 74.9268,71.3741 73.9268,72.2074 70.5,69.5 Z"/></g>
<g><path style="opacity:1" fill="#667d5c" d="M 160.5,49.5 C 162.456,55.412 163.123,61.7453 162.5,68.5C 164.5,68.5 166.5,68.5 168.5,68.5C 167.312,69.3636 166.145,70.3636 165,71.5C 164.268,76.6609 163.434,81.6609 162.5,86.5C 161.778,86.9175 161.278,87.5842 161,88.5C 159.228,87.0099 159.061,85.3432 160.5,83.5C 159.383,82.0506 158.716,80.3839 158.5,78.5C 160.267,68.7629 160.934,59.0962 160.5,49.5 Z"/></g>
<g><path style="opacity:1" fill="#667c5d" d="M 176.5,69.5 C 178.591,69.3184 180.591,69.6518 182.5,70.5C 183.776,71.6136 183.776,72.6136 182.5,73.5C 181.328,72.2947 179.995,72.2947 178.5,73.5C 177.904,74.7161 177.737,76.0494 178,77.5C 177.586,77.0426 177.086,76.7093 176.5,76.5C 174.368,78.1174 172.035,78.6174 169.5,78C 171.046,76.5604 171.879,74.7271 172,72.5C 173.129,70.8588 174.629,69.8588 176.5,69.5 Z"/></g>
<g><path style="opacity:1" fill="#93bc79" d="M -0.5,46.5 C 1.83333,46.5 4.16667,46.5 6.5,46.5C 6.84171,47.3382 7.50838,47.6716 8.5,47.5C 8.83333,48.1667 9.16667,48.8333 9.5,49.5C 17.2137,57.5946 22.8803,66.928 26.5,77.5C 24.5,77.5 22.5,77.5 20.5,77.5C 20.6495,76.448 20.4828,75.448 20,74.5C 17.8241,72.1251 15.6574,69.7918 13.5,67.5C 12.6518,65.5914 12.3184,63.5914 12.5,61.5C 11.5,61.5 10.5,61.5 9.5,61.5C 9.54126,57.4151 7.87459,54.2485 4.5,52C 2.86586,51.5065 1.19919,51.3398 -0.5,51.5C -0.5,49.8333 -0.5,48.1667 -0.5,46.5 Z"/></g>
<g><path style="opacity:1" fill="#8da384" d="M 75.5,54.5 C 76.1785,57.5138 77.6785,60.1804 80,62.5C 80.6667,66.8333 80.6667,71.1667 80,75.5C 78.5719,82.3514 76.5719,89.0181 74,95.5C 70.3941,97.3782 68.8941,100.378 69.5,104.5C 73.2496,103.974 76.4163,104.974 79,107.5C 81.9122,107.642 83.4122,106.309 83.5,103.5C 84.8333,103.5 86.1667,103.5 87.5,103.5C 85.7577,106.796 82.9244,108.462 79,108.5C 75.8775,106.631 72.3775,105.631 68.5,105.5C 68.7845,103.585 68.4511,101.919 67.5,100.5C 68.9358,96.2738 70.6025,92.1071 72.5,88C 71.3078,85.9452 71.3078,83.9452 72.5,82C 71.1667,81.6667 69.8333,81.3333 68.5,81C 70.607,79.7365 71.607,77.9032 71.5,75.5C 68.8127,75.6641 66.146,75.4974 63.5,75C 65.3392,73.8684 67.3392,73.0351 69.5,72.5C 70.3857,71.675 70.719,70.675 70.5,69.5C 73.9268,72.2074 74.9268,71.3741 73.5,67C 67.7963,66.3127 62.1296,66.4793 56.5,67.5C 55.0473,67.0707 53.3806,66.904 51.5,67C 54.8156,64.898 58.4822,63.7313 62.5,63.5C 72.0069,66.423 73.6736,64.423 67.5,57.5C 69.8771,57.2155 72.0438,57.2155 74,57.5C 75.0386,56.7562 75.5386,55.7562 75.5,54.5 Z"/></g>
<g><path style="opacity:1" fill="#75af6e" d="M -0.5,60.5 C 1.16667,60.5 2.83333,60.5 4.5,60.5C 4.73487,64.3243 6.73487,66.3243 10.5,66.5C 10.2961,70.2196 11.2961,73.553 13.5,76.5C 11.3635,77.4724 10.1968,79.1391 10,81.5C 6.98654,78.2566 3.48654,75.9233 -0.5,74.5C -0.5,69.8333 -0.5,65.1667 -0.5,60.5 Z"/></g>
<g><path style="opacity:1" fill="#68915f" d="M 43.5,66.5 C 45.4461,71.3958 46.1128,76.7291 45.5,82.5C 45.0645,96.9118 45.8979,111.245 48,125.5C 49.3187,127.287 50.152,129.287 50.5,131.5C 51.9331,133.558 52.5997,135.892 52.5,138.5C 51.5,138.5 50.5,138.5 49.5,138.5C 48.7777,137.449 47.7777,136.782 46.5,136.5C 44.88,135.159 43.88,133.326 43.5,131C 44.6099,127.42 43.9433,124.087 41.5,121C 43.3575,116.081 44.0242,110.914 43.5,105.5C 41.8333,105.5 40.1667,105.5 38.5,105.5C 41.8526,101.614 41.1859,98.9473 36.5,97.5C 38.2908,96.2129 39.9575,94.7129 41.5,93C 40.4911,91.8319 39.4911,90.6652 38.5,89.5C 41.09,86.6032 42.59,83.2699 43,79.5C 42.6667,79.8333 42.3333,80.1667 42,80.5C 41.502,77.5184 41.3354,74.5184 41.5,71.5C 41.1201,69.302 41.7868,67.6354 43.5,66.5 Z"/></g>
<g><path style="opacity:1" fill="#819879" d="M 102.5,54.5 C 102.5,55.8333 102.5,57.1667 102.5,58.5C 105.903,58.1489 109.237,57.4822 112.5,56.5C 112.167,57.1667 111.833,57.8333 111.5,58.5C 108.958,59.6244 106.292,60.4577 103.5,61C 101.475,62.194 101.141,63.694 102.5,65.5C 109.134,66.4967 115.8,66.83 122.5,66.5C 123.5,66.5 124.5,66.5 125.5,66.5C 117.489,67.3984 109.489,68.3984 101.5,69.5C 101.705,67.8627 101.205,66.196 100,64.5C 97.729,67.1195 97.0623,70.1195 98,73.5C 102.184,77.4845 102.351,81.4845 98.5,85.5C 97.6786,88.4465 97.1786,91.4465 97,94.5C 94.4866,95.848 92.6532,97.848 91.5,100.5C 92.3398,101.735 93.3398,102.735 94.5,103.5C 92.0314,102.933 89.698,102.933 87.5,103.5C 87.5481,100.687 88.2147,98.0205 89.5,95.5C 87.3886,82.3983 89.0553,70.2316 94.5,59C 97.679,58.2482 100.346,56.7482 102.5,54.5 Z"/></g>
<g><path style="opacity:1" fill="#81b572" d="M 9.5,49.5 C 12.3943,50.8823 14.8943,52.8823 17,55.5C 18.6768,58.8534 20.8434,61.8534 23.5,64.5C 24.5722,67.2037 25.5722,69.8704 26.5,72.5C 27.8221,72.67 28.9887,72.3366 30,71.5C 33.2428,65.65 37.4095,60.65 42.5,56.5C 43.2071,59.7861 43.5405,63.1194 43.5,66.5C 41.7868,67.6354 41.1201,69.302 41.5,71.5C 37.236,72.8636 35.4026,75.8636 36,80.5C 33.4543,83.0373 31.7876,86.0373 31,89.5C 29.1813,91.5026 27.0146,92.836 24.5,93.5C 24.5,94.8333 24.5,96.1667 24.5,97.5C 22.901,97.7678 21.5676,97.4345 20.5,96.5C 21.5,96.5 22.5,96.5 23.5,96.5C 23.2471,94.1727 23.9137,92.1727 25.5,90.5C 23.9974,89.9478 22.3307,89.9478 20.5,90.5C 20.3739,88.8002 19.7073,87.3002 18.5,86C 19.8847,84.4029 20.5514,82.5695 20.5,80.5C 16.69,79.7542 16.69,78.7542 20.5,77.5C 22.5,77.5 24.5,77.5 26.5,77.5C 22.8803,66.928 17.2137,57.5946 9.5,49.5 Z"/></g>
<g><path style="opacity:1" fill="#b4c3ad" d="M 46.5,82.5 C 46.5,79.8333 46.5,77.1667 46.5,74.5C 51.0145,74.0888 54.6812,75.9222 57.5,80C 55.7139,80.1962 54.3805,81.0295 53.5,82.5C 57.0932,84.5627 60.2599,87.2294 63,90.5C 63.3333,90.1667 63.6667,89.8333 64,89.5C 64.2189,90.938 64.7189,92.2713 65.5,93.5C 66.086,93.2907 66.586,92.9574 67,92.5C 66.7932,94.7513 66.6265,97.0846 66.5,99.5C 62.9268,100.62 59.5935,102.287 56.5,104.5C 53.6742,104.176 51.1742,103.176 49,101.5C 46.8515,103.572 47.0182,105.406 49.5,107C 49,107.5 48.5,108 48,108.5C 46.5314,100.003 46.0314,91.3362 46.5,82.5 Z"/></g>
<g><path style="opacity:1" fill="#91c084" d="M 180.5,61.5 C 184.115,63.2228 188.115,64.2228 192.5,64.5C 192.5,75.8333 192.5,87.1667 192.5,98.5C 189.833,98.5 187.167,98.5 184.5,98.5C 184.833,96.5 185.167,94.5 185.5,92.5C 186.222,92.0825 186.722,91.4158 187,90.5C 188.165,83.5278 188.498,76.5278 188,69.5C 186.092,66.6677 185.259,67.001 185.5,70.5C 182.483,69.043 180.483,66.7097 179.5,63.5C 179.328,62.5084 179.662,61.8417 180.5,61.5 Z"/></g>
<g><path style="opacity:1" fill="#b3c2ad" d="M 142.5,77.5 C 141.833,77.5 141.5,77.8333 141.5,78.5C 141.082,79.2216 140.416,79.7216 139.5,80C 140.672,80.4186 141.672,81.0853 142.5,82C 139.686,82.7792 138.02,84.1125 137.5,86C 138.167,86.6667 138.833,87.3333 139.5,88C 138.262,87.9227 137.262,88.0894 136.5,88.5C 137.025,89.1924 137.692,89.6924 138.5,90C 135.782,91.4152 135.115,93.4152 136.5,96C 132.682,96.6127 131.682,98.6127 133.5,102C 132.833,102.333 132.167,102.667 131.5,103C 132.451,103.718 132.617,104.551 132,105.5C 130.667,106.167 129.667,107.167 129,108.5C 128.667,108.167 128.333,107.833 128,107.5C 127.369,108.872 126.702,110.205 126,111.5C 124.234,110.767 122.401,110.433 120.5,110.5C 118.516,110.617 116.85,109.95 115.5,108.5C 113.912,105.536 112.412,102.536 111,99.5C 109.933,98.8095 108.766,98.3095 107.5,98C 106.167,97 106.167,96 107.5,95C 105.884,94.3848 104.551,93.3848 103.5,92C 104.449,91.3828 105.282,91.5494 106,92.5C 107.128,90.6547 107.628,88.6547 107.5,86.5C 111.049,88.3171 114.049,87.6505 116.5,84.5C 118.608,85.4795 120.608,85.1462 122.5,83.5C 123.506,82.6043 123.506,81.9377 122.5,81.5C 119.269,81.8979 116.269,82.8979 113.5,84.5C 112.614,83.675 112.281,82.675 112.5,81.5C 109.252,81.0986 106.085,80.432 103,79.5C 102.029,76.6956 102.862,74.6956 105.5,73.5C 109.013,71.3705 112.679,71.0372 116.5,72.5C 123.327,71.9476 129.994,71.281 136.5,70.5C 138.394,69.9524 140.06,68.9524 141.5,67.5C 142.215,69.7871 142.549,71.9538 142.5,74C 141.833,74.3333 141.167,74.6667 140.5,75C 141.381,75.7083 142.047,76.5416 142.5,77.5 Z"/></g>
<g><path style="opacity:1" fill="#9aab90" d="M 139.5,39.5 C 143.387,39.9099 147.053,40.9099 150.5,42.5C 150.953,43.4584 151.619,44.2917 152.5,45C 151.376,45.2492 150.376,45.7492 149.5,46.5C 153.415,52.432 154.582,58.7654 153,65.5C 152.25,66.1258 151.416,66.6258 150.5,67C 151.325,69.7701 151.659,72.4367 151.5,75C 149.699,75.3173 149.366,75.984 150.5,77C 149.027,77.7096 148.36,78.8762 148.5,80.5C 147.402,81.397 147.402,82.2303 148.5,83C 146.109,83.6914 146.109,84.6914 148.5,86C 146.219,87.851 146.219,89.5177 148.5,91C 146.246,91.6237 144.579,92.957 143.5,95C 144.634,96.016 144.301,96.6827 142.5,97C 144.781,98.4823 144.781,100.149 142.5,102C 142.833,102.333 143.167,102.667 143.5,103C 142.98,104.888 141.314,106.221 138.5,107C 139.634,108.016 139.301,108.683 137.5,109C 136.76,110.728 136.76,112.728 137.5,115C 136.833,116 136.167,117 135.5,118C 136.833,119 136.833,120 135.5,121C 136.685,122.353 138.019,123.52 139.5,124.5C 138.332,125.906 138.665,127.072 140.5,128C 140.324,130.672 139.657,133.505 138.5,136.5C 137.459,138.991 136.626,138.991 136,136.5C 134.632,137.993 134.465,139.493 135.5,141C 134.672,141.915 133.672,142.581 132.5,143C 135.286,145.021 134.953,146.521 131.5,147.5C 130.667,149.167 129.833,150.833 129,152.5C 122.787,153.087 118.287,156.087 115.5,161.5C 115.5,161.833 115.5,162.167 115.5,162.5C 114.833,162.5 114.5,162.833 114.5,163.5C 113.542,163.953 112.708,164.619 112,165.5C 108.255,164.703 104.421,164.203 100.5,164C 96.4194,162.933 92.7528,161.433 89.5,159.5C 96.8061,160.476 104.139,161.476 111.5,162.5C 114.277,156.136 118.944,152.136 125.5,150.5C 125.5,148.833 125.5,147.167 125.5,145.5C 126.833,145.5 128.167,145.5 129.5,145.5C 129.5,142.5 129.5,139.5 129.5,136.5C 131.167,136.5 132.833,136.5 134.5,136.5C 134.83,130.132 134.496,123.798 133.5,117.5C 131.02,116.585 130.353,115.085 131.5,113C 130.833,112.667 130.167,112.333 129.5,112C 131.5,111.667 133.5,111.333 135.5,111C 134.398,108.599 134.231,106.099 135,103.5C 135.75,102.874 136.584,102.374 137.5,102C 136.66,100.334 137.16,100.167 139,101.5C 139.5,100.333 140.333,99.5 141.5,99C 140.833,98.6667 140.167,98.3333 139.5,98C 142.443,96.5409 142.776,94.8743 140.5,93C 141.833,92 141.833,91 140.5,90C 145.496,86.5213 145.829,82.6879 141.5,78.5C 141.5,77.8333 141.833,77.5 142.5,77.5C 145.326,76.8638 145.992,75.3638 144.5,73C 144.611,71.2785 145.111,71.1118 146,72.5C 146.912,70.3415 147.745,68.1748 148.5,66C 146.606,64.8989 145.939,63.5655 146.5,62C 148.23,59.343 149.23,56.343 149.5,53C 148.66,51.2326 147.327,49.8993 145.5,49C 145.833,48.6667 146.167,48.3333 146.5,48C 145.061,47.0094 144.061,45.676 143.5,44C 142.207,43.51 140.873,43.3433 139.5,43.5C 139.5,42.1667 139.5,40.8333 139.5,39.5 Z"/></g>
<g><path style="opacity:1" fill="#8db98b" d="M -0.5,51.5 C 1.19919,51.3398 2.86586,51.5065 4.5,52C 7.87459,54.2485 9.54126,57.4151 9.5,61.5C 10.5,61.5 11.5,61.5 12.5,61.5C 12.3184,63.5914 12.6518,65.5914 13.5,67.5C 15.6574,69.7918 17.8241,72.1251 20,74.5C 20.4828,75.448 20.6495,76.448 20.5,77.5C 16.69,78.7542 16.69,79.7542 20.5,80.5C 20.5514,82.5695 19.8847,84.4029 18.5,86C 19.7073,87.3002 20.3739,88.8002 20.5,90.5C 22.3307,89.9478 23.9974,89.9478 25.5,90.5C 23.9137,92.1727 23.2471,94.1727 23.5,96.5C 22.5,96.5 21.5,96.5 20.5,96.5C 19.6829,94.5221 18.1829,93.5221 16,93.5C 13.863,94.0767 11.6963,94.41 9.5,94.5C 9.65292,97.5772 8.98625,100.411 7.5,103C 7.52804,104.07 7.86137,104.903 8.5,105.5C 8.5,106.5 8.5,107.5 8.5,108.5C 8.5649,114.249 7.89823,119.916 6.5,125.5C 7.31506,130.132 7.64839,134.799 7.5,139.5C 7.5,139.833 7.5,140.167 7.5,140.5C 4.83333,140.833 2.16667,141.167 -0.5,141.5C -0.5,126.833 -0.5,112.167 -0.5,97.5C 1.82007,95.7739 4.48674,95.1072 7.5,95.5C 7.66212,93.4727 7.49546,91.4727 7,89.5C 5.98873,88.6634 4.82207,88.33 3.5,88.5C 3.5,87.5 3.5,86.5 3.5,85.5C 2.16667,85.5 0.833333,85.5 -0.5,85.5C -0.5,81.8333 -0.5,78.1667 -0.5,74.5C 3.48654,75.9233 6.98654,78.2566 10,81.5C 10.1968,79.1391 11.3635,77.4724 13.5,76.5C 11.2961,73.553 10.2961,70.2196 10.5,66.5C 6.73487,66.3243 4.73487,64.3243 4.5,60.5C 2.83333,60.5 1.16667,60.5 -0.5,60.5C -0.5,57.5 -0.5,54.5 -0.5,51.5 Z"/></g>
<g><path style="opacity:1" fill="#93a88b" d="M 176.5,64.5 C 177.141,65.4822 177.807,66.4822 178.5,67.5C 177.757,68.1818 177.091,68.8485 176.5,69.5C 174.629,69.8588 173.129,70.8588 172,72.5C 171.879,74.7271 171.046,76.5604 169.5,78C 172.035,78.6174 174.368,78.1174 176.5,76.5C 177.086,76.7093 177.586,77.0426 178,77.5C 177.737,76.0494 177.904,74.7161 178.5,73.5C 179.995,72.2947 181.328,72.2947 182.5,73.5C 182.182,80.3462 181.515,87.0128 180.5,93.5C 180.5,89.8333 180.5,86.1667 180.5,82.5C 178.856,82.7135 177.356,82.3802 176,81.5C 175.616,83.1966 175.782,84.8632 176.5,86.5C 173.681,84.3113 170.681,82.6447 167.5,81.5C 167.5,83.5 167.5,85.5 167.5,87.5C 166.691,85.7078 166.191,83.7078 166,81.5C 165.814,83.9005 165.314,86.2338 164.5,88.5C 163.817,88.8627 163.15,89.1961 162.5,89.5C 162.5,88.5 162.5,87.5 162.5,86.5C 163.434,81.6609 164.268,76.6609 165,71.5C 166.145,70.3636 167.312,69.3636 168.5,68.5C 170.727,66.2693 173.394,64.936 176.5,64.5 Z"/></g>
<g><path style="opacity:1" fill="#75a763" d="M 185.5,92.5 C 185.602,85.1165 185.602,77.7832 185.5,70.5C 185.259,67.001 186.092,66.6677 188,69.5C 188.498,76.5278 188.165,83.5278 187,90.5C 186.722,91.4158 186.222,92.0825 185.5,92.5 Z"/></g>
<g><path style="opacity:1" fill="#7f9577" d="M 150.5,42.5 C 151.167,42.5 151.833,42.5 152.5,42.5C 154.028,43.3092 155.694,43.9759 157.5,44.5C 159.25,45.6594 160.25,47.326 160.5,49.5C 160.934,59.0962 160.267,68.7629 158.5,78.5C 158.716,80.3839 159.383,82.0506 160.5,83.5C 159.061,85.3432 159.228,87.0099 161,88.5C 161.278,87.5842 161.778,86.9175 162.5,86.5C 162.5,87.5 162.5,88.5 162.5,89.5C 162.69,91.9589 161.69,93.6255 159.5,94.5C 158.066,92.5097 156.232,90.843 154,89.5C 153.443,93.3573 153.609,96.8573 154.5,100C 153.724,102.987 152.057,103.82 149.5,102.5C 149.647,106.944 147.647,109.778 143.5,111C 144.833,112.333 146.167,113.667 147.5,115C 146.159,116.295 144.826,116.795 143.5,116.5C 144.76,117.382 145.926,118.382 147,119.5C 147.889,118.112 148.389,118.278 148.5,120C 148.095,120.945 147.428,121.612 146.5,122C 149.986,123.947 150.319,126.28 147.5,129C 148.605,131.12 148.605,133.287 147.5,135.5C 146.85,135.804 146.183,136.137 145.5,136.5C 144.868,133.97 143.868,131.637 142.5,129.5C 143.531,128.3 144.365,126.966 145,125.5C 145.718,126.451 146.551,126.617 147.5,126C 144.452,122.905 142.452,119.238 141.5,115C 142.308,114.692 142.975,114.192 143.5,113.5C 139.494,111.434 139.827,109.934 144.5,109C 143.978,108.439 143.645,107.772 143.5,107C 144.682,105.51 145.682,104.177 146.5,103C 145.366,101.984 145.699,101.317 147.5,101C 145.053,99.7711 144.887,98.2711 147,96.5C 150.11,97.6734 150.277,97.1734 147.5,95C 148.5,93.3333 149.5,91.6667 150.5,90C 149.692,89.6924 149.025,89.1924 148.5,88.5C 149.262,88.0894 150.262,87.9227 151.5,88C 151.5,87 151.5,86 151.5,85C 154.84,82.0556 153.84,80.5556 148.5,80.5C 148.36,78.8762 149.027,77.7096 150.5,77C 149.366,75.984 149.699,75.3173 151.5,75C 151.659,72.4367 151.325,69.7701 150.5,67C 151.416,66.6258 152.25,66.1258 153,65.5C 154.582,58.7654 153.415,52.432 149.5,46.5C 150.376,45.7492 151.376,45.2492 152.5,45C 151.619,44.2917 150.953,43.4584 150.5,42.5 Z"/></g>
<g><path style="opacity:0.913" fill="#75b16c" d="M -0.5,85.5 C 0.833333,85.5 2.16667,85.5 3.5,85.5C 3.5,86.5 3.5,87.5 3.5,88.5C 4.82207,88.33 5.98873,88.6634 7,89.5C 7.49546,91.4727 7.66212,93.4727 7.5,95.5C 4.48674,95.1072 1.82007,95.7739 -0.5,97.5C -0.5,93.5 -0.5,89.5 -0.5,85.5 Z"/></g>
<g><path style="opacity:1" fill="#7b9374" d="M 159.5,94.5 C 160.117,94.6107 160.617,94.944 161,95.5C 161.257,101.196 161.757,106.863 162.5,112.5C 162.033,114.568 161.366,116.568 160.5,118.5C 162.805,119.231 164.638,120.564 166,122.5C 168.041,121.577 170.208,121.244 172.5,121.5C 173.482,120.859 174.482,120.193 175.5,119.5C 175.833,120 176.167,120.5 176.5,121C 174.773,124.276 174.106,127.776 174.5,131.5C 175.833,131.5 177.167,131.5 178.5,131.5C 179.742,135.659 180.575,139.993 181,144.5C 182.242,146.859 183.742,148.859 185.5,150.5C 185.976,154.095 187.142,157.428 189,160.5C 190.011,161.337 191.178,161.67 192.5,161.5C 192.5,164.5 192.5,167.5 192.5,170.5C 187.5,180.167 180.167,187.5 170.5,192.5C 161.833,192.5 153.167,192.5 144.5,192.5C 148.856,190.591 152.856,187.925 156.5,184.5C 157.695,186.297 159.362,187.297 161.5,187.5C 162.312,184.412 163.645,181.579 165.5,179C 168.033,178.148 170.033,178.814 171.5,181C 173.698,181.373 175.865,181.873 178,182.5C 178.5,182.167 179,181.833 179.5,181.5C 174.742,180.275 173.575,177.608 176,173.5C 177.409,172.219 178.909,171.219 180.5,170.5C 181.858,171.626 183.192,171.626 184.5,170.5C 182.156,169.489 180.489,167.822 179.5,165.5C 180.845,163.677 181.345,161.677 181,159.5C 180.667,160.167 180.333,160.833 180,161.5C 179.1,160.23 177.934,159.23 176.5,158.5C 180.638,153.704 181.471,148.371 179,142.5C 178.617,141.944 178.117,141.611 177.5,141.5C 174.845,136.861 172.179,132.194 169.5,127.5C 168.311,126.571 166.978,126.238 165.5,126.5C 165.608,128.514 164.942,130.18 163.5,131.5C 162.839,130.282 162.172,128.949 161.5,127.5C 159.812,129.029 158.479,130.863 157.5,133C 156.1,134.438 154.433,135.271 152.5,135.5C 152.649,136.552 152.483,137.552 152,138.5C 151.333,139.833 150.667,139.833 150,138.5C 149.667,139.167 149.333,139.833 149,140.5C 148.802,138.618 148.302,136.952 147.5,135.5C 148.605,133.287 148.605,131.12 147.5,129C 150.319,126.28 149.986,123.947 146.5,122C 147.428,121.612 148.095,120.945 148.5,120C 148.389,118.278 147.889,118.112 147,119.5C 145.926,118.382 144.76,117.382 143.5,116.5C 144.826,116.795 146.159,116.295 147.5,115C 146.167,113.667 144.833,112.333 143.5,111C 147.647,109.778 149.647,106.944 149.5,102.5C 152.057,103.82 153.724,102.987 154.5,100C 153.609,96.8573 153.443,93.3573 154,89.5C 156.232,90.843 158.066,92.5097 159.5,94.5 Z"/></g>
<g><path style="opacity:1" fill="#98a98e" d="M 134.5,47.5 C 135.201,49.5877 136.201,51.5877 137.5,53.5C 138.4,56.0972 137.733,58.4306 135.5,60.5C 137.785,63.6391 138.118,66.9724 136.5,70.5C 129.994,71.281 123.327,71.9476 116.5,72.5C 112.679,71.0372 109.013,71.3705 105.5,73.5C 102.862,74.6956 102.029,76.6956 103,79.5C 106.085,80.432 109.252,81.0986 112.5,81.5C 112.281,82.675 112.614,83.675 113.5,84.5C 116.269,82.8979 119.269,81.8979 122.5,81.5C 123.506,81.9377 123.506,82.6043 122.5,83.5C 120.608,85.1462 118.608,85.4795 116.5,84.5C 114.049,87.6505 111.049,88.3171 107.5,86.5C 107.628,88.6547 107.128,90.6547 106,92.5C 105.282,91.5494 104.449,91.3828 103.5,92C 104.551,93.3848 105.884,94.3848 107.5,95C 106.167,96 106.167,97 107.5,98C 108.766,98.3095 109.933,98.8095 111,99.5C 112.412,102.536 113.912,105.536 115.5,108.5C 116.85,109.95 118.516,110.617 120.5,110.5C 120.897,112.662 122.231,113.995 124.5,114.5C 123.167,115.833 121.833,117.167 120.5,118.5C 121.246,119.736 121.579,121.07 121.5,122.5C 120.728,121.306 119.728,120.306 118.5,119.5C 116.259,118.379 113.925,117.213 111.5,116C 100.524,114.935 89.5244,114.435 78.5,114.5C 78.5,113.5 78.5,112.5 78.5,111.5C 76.5168,111.843 75.1834,111.176 74.5,109.5C 86.3923,111.815 98.3923,112.148 110.5,110.5C 110.584,106.497 109.584,102.831 107.5,99.5C 106.057,103.728 103.057,105.728 98.5,105.5C 96.6672,105.415 95.3339,104.748 94.5,103.5C 93.3398,102.735 92.3398,101.735 91.5,100.5C 92.6532,97.848 94.4866,95.848 97,94.5C 97.1786,91.4465 97.6786,88.4465 98.5,85.5C 102.351,81.4845 102.184,77.4845 98,73.5C 97.0623,70.1195 97.729,67.1195 100,64.5C 101.205,66.196 101.705,67.8627 101.5,69.5C 112.674,70.824 124.007,70.824 135.5,69.5C 135.291,68.914 134.957,68.414 134.5,68C 131.522,67.304 128.522,66.804 125.5,66.5C 124.5,66.5 123.5,66.5 122.5,66.5C 123.263,65.7321 124.263,65.2321 125.5,65C 124.167,63.3333 124.167,61.6667 125.5,60C 120.964,58.6211 116.297,58.1211 111.5,58.5C 111.833,57.8333 112.167,57.1667 112.5,56.5C 120.121,55.9801 127.787,55.9801 135.5,56.5C 135.753,54.1727 135.086,52.1727 133.5,50.5C 129.194,49.5766 124.861,49.5766 120.5,50.5C 125.049,48.192 129.716,47.192 134.5,47.5 Z"/></g>
<g><path style="opacity:1" fill="#5e7256" d="M 125.5,66.5 C 128.522,66.804 131.522,67.304 134.5,68C 134.957,68.414 135.291,68.914 135.5,69.5C 124.007,70.824 112.674,70.824 101.5,69.5C 109.489,68.3984 117.489,67.3984 125.5,66.5 Z"/></g>
<g><path style="opacity:1" fill="#85aa7a" d="M 179.5,63.5 C 180.483,66.7097 182.483,69.043 185.5,70.5C 185.602,77.7832 185.602,85.1165 185.5,92.5C 185.167,94.5 184.833,96.5 184.5,98.5C 183.833,99.8333 183.167,101.167 182.5,102.5C 181.425,105.756 180.092,108.923 178.5,112C 180.434,114.887 180.434,117.554 178.5,120C 179.127,122.135 179.627,124.302 180,126.5C 180.5,128.333 181.667,129.5 183.5,130C 181.487,130.875 181.487,132.209 183.5,134C 182.552,134.483 181.552,134.649 180.5,134.5C 179.19,135 180.19,137 183.5,140.5C 184.5,140.5 185.5,140.5 186.5,140.5C 186.717,145.033 187.717,149.366 189.5,153.5C 188.167,152.5 186.833,151.5 185.5,150.5C 183.742,148.859 182.242,146.859 181,144.5C 180.575,139.993 179.742,135.659 178.5,131.5C 177.167,131.5 175.833,131.5 174.5,131.5C 174.106,127.776 174.773,124.276 176.5,121C 176.167,120.5 175.833,120 175.5,119.5C 174.482,120.193 173.482,120.859 172.5,121.5C 174.954,115.135 176.454,108.469 177,101.5C 178.168,98.8138 179.335,96.1471 180.5,93.5C 181.515,87.0128 182.182,80.3462 182.5,73.5C 183.776,72.6136 183.776,71.6136 182.5,70.5C 180.591,69.6518 178.591,69.3184 176.5,69.5C 177.091,68.8485 177.757,68.1818 178.5,67.5C 177.807,66.4822 177.141,65.4822 176.5,64.5C 177.609,64.4431 178.609,64.1098 179.5,63.5 Z"/></g>
<g><path style="opacity:1" fill="#a7b7a0" d="M 67.5,57.5 C 73.6736,64.423 72.0069,66.423 62.5,63.5C 58.4822,63.7313 54.8156,64.898 51.5,67C 53.3806,66.904 55.0473,67.0707 56.5,67.5C 54.3198,68.1171 52.3198,69.1171 50.5,70.5C 51.9223,71.5472 53.4223,71.5472 55,70.5C 56.8436,71.5782 58.8436,72.2449 61,72.5C 64.4386,72.1965 67.6053,71.1965 70.5,69.5C 70.719,70.675 70.3857,71.675 69.5,72.5C 67.3392,73.0351 65.3392,73.8684 63.5,75C 66.146,75.4974 68.8127,75.6641 71.5,75.5C 71.607,77.9032 70.607,79.7365 68.5,81C 69.8333,81.3333 71.1667,81.6667 72.5,82C 71.3078,83.9452 71.3078,85.9452 72.5,88C 70.6025,92.1071 68.9358,96.2738 67.5,100.5C 65.0045,103.162 62.3378,105.662 59.5,108C 56.5184,108.498 53.5184,108.665 50.5,108.5C 50.7135,110.144 50.3802,111.644 49.5,113C 51.4035,115.877 52.4035,119.044 52.5,122.5C 53.5,122.5 54.5,122.5 55.5,122.5C 56.215,128.683 55.8817,131.683 54.5,131.5C 53.1667,131.5 51.8333,131.5 50.5,131.5C 50.152,129.287 49.3187,127.287 48,125.5C 45.8979,111.245 45.0645,96.9118 45.5,82.5C 45.8333,82.5 46.1667,82.5 46.5,82.5C 46.0314,91.3362 46.5314,100.003 48,108.5C 48.5,108 49,107.5 49.5,107C 47.0182,105.406 46.8515,103.572 49,101.5C 51.1742,103.176 53.6742,104.176 56.5,104.5C 59.5935,102.287 62.9268,100.62 66.5,99.5C 66.6265,97.0846 66.7932,94.7513 67,92.5C 66.586,92.9574 66.086,93.2907 65.5,93.5C 64.7189,92.2713 64.2189,90.938 64,89.5C 63.6667,89.8333 63.3333,90.1667 63,90.5C 60.2599,87.2294 57.0932,84.5627 53.5,82.5C 54.3805,81.0295 55.7139,80.1962 57.5,80C 54.6812,75.9222 51.0145,74.0888 46.5,74.5C 46.6625,69.453 46.3292,64.453 45.5,59.5C 48.2438,59.2479 50.7438,59.9145 53,61.5C 54.5413,59.9827 56.3746,58.8161 58.5,58C 61.4816,57.502 64.4816,57.3354 67.5,57.5 Z"/></g>
<g><path style="opacity:1" fill="#a3b49b" d="M 167.5,87.5 C 169.962,89.6907 172.962,91.0241 176.5,91.5C 176.684,94.3213 175.351,95.9879 172.5,96.5C 171.38,95.1666 170.047,94.6666 168.5,95C 166.254,97.427 165.588,100.094 166.5,103C 167.833,103.667 169.167,103.667 170.5,103C 172.388,100.81 174.555,98.9771 177,97.5C 177.579,93.7973 177.412,90.1306 176.5,86.5C 175.782,84.8632 175.616,83.1966 176,81.5C 177.356,82.3802 178.856,82.7135 180.5,82.5C 180.5,86.1667 180.5,89.8333 180.5,93.5C 179.335,96.1471 178.168,98.8138 177,101.5C 176.454,108.469 174.954,115.135 172.5,121.5C 170.208,121.244 168.041,121.577 166,122.5C 164.638,120.564 162.805,119.231 160.5,118.5C 161.366,116.568 162.033,114.568 162.5,112.5C 161.757,106.863 161.257,101.196 161,95.5C 160.617,94.944 160.117,94.6107 159.5,94.5C 161.69,93.6255 162.69,91.9589 162.5,89.5C 163.15,89.1961 163.817,88.8627 164.5,88.5C 165.314,86.2338 165.814,83.9005 166,81.5C 166.191,83.7078 166.691,85.7078 167.5,87.5 Z"/></g>
<g><path style="opacity:1" fill="#778c6e" d="M 176.5,86.5 C 177.412,90.1306 177.579,93.7973 177,97.5C 174.555,98.9771 172.388,100.81 170.5,103C 169.167,103.667 167.833,103.667 166.5,103C 165.588,100.094 166.254,97.427 168.5,95C 170.047,94.6666 171.38,95.1666 172.5,96.5C 175.351,95.9879 176.684,94.3213 176.5,91.5C 172.962,91.0241 169.962,89.6907 167.5,87.5C 167.5,85.5 167.5,83.5 167.5,81.5C 170.681,82.6447 173.681,84.3113 176.5,86.5 Z"/></g>
<g><path style="opacity:1" fill="#aac2a5" d="M 2.5,97.5 C 3.83333,97.5 5.16667,97.5 6.5,97.5C 6.66632,104.841 6.49966,112.174 6,119.5C 4.54189,122.372 3.37522,125.372 2.5,128.5C 1.71251,119.84 1.04584,111.174 0.5,102.5C 0.72447,100.545 1.39114,98.8787 2.5,97.5 Z"/></g>
<g><path style="opacity:1" fill="#9dc697" d="M 184.5,98.5 C 187.167,98.5 189.833,98.5 192.5,98.5C 192.5,102.5 192.5,106.5 192.5,110.5C 190.952,110.821 190.285,111.821 190.5,113.5C 189.5,113.5 188.5,113.5 187.5,113.5C 187.816,109.475 187.983,105.475 188,101.5C 187.667,101.167 187.333,100.833 187,100.5C 186.009,101.43 185.509,102.596 185.5,104C 186.216,106.792 186.549,109.626 186.5,112.5C 184.027,112.264 182.36,110.931 181.5,108.5C 182.348,106.591 182.682,104.591 182.5,102.5C 183.167,101.167 183.833,99.8333 184.5,98.5 Z"/></g>
<g><path style="opacity:1" fill="#90bc96" d="M 36.5,97.5 C 41.1859,98.9473 41.8526,101.614 38.5,105.5C 37.391,105.557 36.391,105.89 35.5,106.5C 34.1146,109.417 32.6146,112.417 31,115.5C 29.3487,122.818 29.182,130.151 30.5,137.5C 29.0384,138.458 27.7051,139.624 26.5,141C 25.0715,141.579 23.7382,141.412 22.5,140.5C 23.5353,138.795 23.5353,137.128 22.5,135.5C 23.6888,134.571 25.0222,134.238 26.5,134.5C 26.3336,126.826 26.5003,119.159 27,111.5C 28.3333,110.833 29.6667,110.167 31,109.5C 31.4966,107.19 31.6633,104.857 31.5,102.5C 33.8429,101.456 35.5095,99.7897 36.5,97.5 Z"/></g>
<g><path style="opacity:1" fill="#66805f" d="M 74.5,109.5 C 71.8333,108.833 69.1667,108.167 66.5,107.5C 66.448,105.097 66.7814,102.764 67.5,100.5C 68.4511,101.919 68.7845,103.585 68.5,105.5C 72.3775,105.631 75.8775,106.631 79,108.5C 82.9244,108.462 85.7577,106.796 87.5,103.5C 89.698,102.933 92.0314,102.933 94.5,103.5C 95.3339,104.748 96.6672,105.415 98.5,105.5C 103.057,105.728 106.057,103.728 107.5,99.5C 109.584,102.831 110.584,106.497 110.5,110.5C 98.3923,112.148 86.3923,111.815 74.5,109.5 Z"/></g>
<g><path style="opacity:1" fill="#73a662" d="M 38.5,105.5 C 40.1667,105.5 41.8333,105.5 43.5,105.5C 44.0242,110.914 43.3575,116.081 41.5,121C 43.9433,124.087 44.6099,127.42 43.5,131C 43.88,133.326 44.88,135.159 46.5,136.5C 46.7373,137.791 46.404,138.791 45.5,139.5C 42.0912,137.291 38.4245,135.291 34.5,133.5C 35.6018,129.253 35.7684,124.92 35,120.5C 34.1072,121.711 33.2739,121.711 32.5,120.5C 33.1404,117.352 34.1404,117.019 35.5,119.5C 36.6477,117.851 37.981,116.351 39.5,115C 38.552,114.517 37.552,114.351 36.5,114.5C 36.5494,111.901 37.5494,109.734 39.5,108C 38.2161,107.316 37.0495,107.483 36,108.5C 35.5357,107.906 35.369,107.239 35.5,106.5C 36.391,105.89 37.391,105.557 38.5,105.5 Z"/></g>
<g><path style="opacity:1" fill="#67a946" d="M 13.5,126.5 C 9.73552,121.742 8.73552,116.409 10.5,110.5C 10.1445,109.478 9.47784,108.811 8.5,108.5C 8.5,107.5 8.5,106.5 8.5,105.5C 8.5,104.167 8.5,102.833 8.5,101.5C 11.6453,102.374 14.312,104.041 16.5,106.5C 17.8333,115.167 17.8333,123.833 16.5,132.5C 15.9892,130.116 14.9892,128.116 13.5,126.5 Z"/></g>
<g><path style="opacity:1" fill="#4b6645" d="M 71.5,130.5 C 70.4693,129.645 69.3026,128.978 68,128.5C 66.3333,129.5 64.6667,130.5 63,131.5C 62.5,131.167 62,130.833 61.5,130.5C 62.2305,127.891 62.7305,125.224 63,122.5C 64.129,120.859 65.629,119.859 67.5,119.5C 72.5754,119.351 77.5754,118.685 82.5,117.5C 82.5,119.167 82.5,120.833 82.5,122.5C 79.5569,122.647 76.7236,123.313 74,124.5C 71.8797,122.932 70.3797,123.432 69.5,126C 72.422,126.417 75.0887,127.417 77.5,129C 75.4144,129.315 73.4144,129.815 71.5,130.5 Z"/></g>
<g><path style="opacity:1" fill="#596f51" d="M 118.5,119.5 C 119.036,122.665 118.203,125.331 116,127.5C 112.6,126.416 109.434,127.083 106.5,129.5C 105.061,128.937 103.561,128.603 102,128.5C 95.2887,130.387 88.4554,131.387 81.5,131.5C 86.5044,129.053 91.8377,127.053 97.5,125.5C 93.6351,124.219 89.8017,122.886 86,121.5C 85.586,121.957 85.086,122.291 84.5,122.5C 83.5481,120.955 83.2148,119.288 83.5,117.5C 92.3543,117.632 101.354,117.799 110.5,118C 112.937,119.375 115.603,119.875 118.5,119.5 Z"/></g>
<g><path style="opacity:1" fill="#68aa59" d="M 41.5,71.5 C 41.3354,74.5184 41.502,77.5184 42,80.5C 42.3333,80.1667 42.6667,79.8333 43,79.5C 42.59,83.2699 41.09,86.6032 38.5,89.5C 39.4911,90.6652 40.4911,91.8319 41.5,93C 39.9575,94.7129 38.2908,96.2129 36.5,97.5C 35.5095,99.7897 33.8429,101.456 31.5,102.5C 30.5386,104.265 30.2053,106.265 30.5,108.5C 28.6096,108.297 27.1096,108.963 26,110.5C 25.8315,118.188 25.3315,125.855 24.5,133.5C 22.5914,132.652 20.5914,132.318 18.5,132.5C 18.5,133.5 18.5,134.5 18.5,135.5C 17.1667,135.5 15.8333,135.5 14.5,135.5C 13.8413,132.545 13.5079,129.545 13.5,126.5C 14.9892,128.116 15.9892,130.116 16.5,132.5C 17.8333,123.833 17.8333,115.167 16.5,106.5C 14.312,104.041 11.6453,102.374 8.5,101.5C 8.5,102.833 8.5,104.167 8.5,105.5C 7.86137,104.903 7.52804,104.07 7.5,103C 8.98625,100.411 9.65292,97.5772 9.5,94.5C 11.6963,94.41 13.863,94.0767 16,93.5C 18.1829,93.5221 19.6829,94.5221 20.5,96.5C 21.5676,97.4345 22.901,97.7678 24.5,97.5C 24.5,96.1667 24.5,94.8333 24.5,93.5C 27.0146,92.836 29.1813,91.5026 31,89.5C 31.7876,86.0373 33.4543,83.0373 36,80.5C 35.4026,75.8636 37.236,72.8636 41.5,71.5 Z"/></g>
<g><path style="opacity:1" fill="#647c5d" d="M 78.5,114.5 C 89.5244,114.435 100.524,114.935 111.5,116C 113.925,117.213 116.259,118.379 118.5,119.5C 115.603,119.875 112.937,119.375 110.5,118C 101.354,117.799 92.3543,117.632 83.5,117.5C 83.2148,119.288 83.5481,120.955 84.5,122.5C 85.086,122.291 85.586,121.957 86,121.5C 89.8017,122.886 93.6351,124.219 97.5,125.5C 91.8377,127.053 86.5044,129.053 81.5,131.5C 80.0222,131.238 78.6888,131.571 77.5,132.5C 78.5896,133.609 78.5896,134.609 77.5,135.5C 74.8708,134.533 72.8708,132.867 71.5,130.5C 73.4144,129.815 75.4144,129.315 77.5,129C 75.0887,127.417 72.422,126.417 69.5,126C 70.3797,123.432 71.8797,122.932 74,124.5C 76.7236,123.313 79.5569,122.647 82.5,122.5C 82.5,120.833 82.5,119.167 82.5,117.5C 77.5754,118.685 72.5754,119.351 67.5,119.5C 69.636,118.347 71.636,117.014 73.5,115.5C 75.2915,115.634 76.9582,115.301 78.5,114.5 Z"/></g>
<g><path style="opacity:1" fill="#9fb095" d="M 67.5,100.5 C 66.7814,102.764 66.448,105.097 66.5,107.5C 69.1667,108.167 71.8333,108.833 74.5,109.5C 75.1834,111.176 76.5168,111.843 78.5,111.5C 78.5,112.5 78.5,113.5 78.5,114.5C 76.9582,115.301 75.2915,115.634 73.5,115.5C 62.398,118.01 57.398,125.01 58.5,136.5C 57.448,136.351 56.448,136.517 55.5,137C 55.3259,141.814 56.8259,146.314 60,150.5C 60.7429,148.559 60.5762,146.726 59.5,145C 61.1371,143.049 62.6371,143.216 64,145.5C 64.3028,148.999 65.1362,152.332 66.5,155.5C 65.5178,154.859 64.5178,154.193 63.5,153.5C 62.2805,158.183 62.2805,162.85 63.5,167.5C 62.8826,167.389 62.3826,167.056 62,166.5C 61.7769,159.698 59.9435,153.531 56.5,148C 55.2068,147.51 53.8734,147.343 52.5,147.5C 54.9474,144.366 54.9474,141.366 52.5,138.5C 52.5997,135.892 51.9331,133.558 50.5,131.5C 51.8333,131.5 53.1667,131.5 54.5,131.5C 55.8817,131.683 56.215,128.683 55.5,122.5C 54.5,122.5 53.5,122.5 52.5,122.5C 52.4035,119.044 51.4035,115.877 49.5,113C 50.3802,111.644 50.7135,110.144 50.5,108.5C 53.5184,108.665 56.5184,108.498 59.5,108C 62.3378,105.662 65.0045,103.162 67.5,100.5 Z"/></g>
<g><path style="opacity:1" fill="#7db479" d="M 8.5,108.5 C 9.47784,108.811 10.1445,109.478 10.5,110.5C 8.73552,116.409 9.73552,121.742 13.5,126.5C 13.5079,129.545 13.8413,132.545 14.5,135.5C 12.2247,136.837 9.89139,138.171 7.5,139.5C 7.64839,134.799 7.31506,130.132 6.5,125.5C 7.89823,119.916 8.5649,114.249 8.5,108.5 Z"/></g>
<g><path style="opacity:1" fill="#87b676" d="M 35.5,106.5 C 35.369,107.239 35.5357,107.906 36,108.5C 37.0495,107.483 38.2161,107.316 39.5,108C 37.5494,109.734 36.5494,111.901 36.5,114.5C 37.552,114.351 38.552,114.517 39.5,115C 37.981,116.351 36.6477,117.851 35.5,119.5C 34.1404,117.019 33.1404,117.352 32.5,120.5C 33.2739,121.711 34.1072,121.711 35,120.5C 35.7684,124.92 35.6018,129.253 34.5,133.5C 33.8333,134.5 33.1667,135.5 32.5,136.5C 31.8333,136.833 31.1667,137.167 30.5,137.5C 29.182,130.151 29.3487,122.818 31,115.5C 32.6146,112.417 34.1146,109.417 35.5,106.5 Z"/></g>
<g><path style="opacity:1" fill="#95c489" d="M 192.5,110.5 C 192.5,125.833 192.5,141.167 192.5,156.5C 191.167,155.833 190.167,154.833 189.5,153.5C 187.717,149.366 186.717,145.033 186.5,140.5C 185.5,140.5 184.5,140.5 183.5,140.5C 180.19,137 179.19,135 180.5,134.5C 181.552,134.649 182.552,134.483 183.5,134C 181.487,132.209 181.487,130.875 183.5,130C 181.667,129.5 180.5,128.333 180,126.5C 179.627,124.302 179.127,122.135 178.5,120C 180.434,117.554 180.434,114.887 178.5,112C 180.092,108.923 181.425,105.756 182.5,102.5C 182.682,104.591 182.348,106.591 181.5,108.5C 182.36,110.931 184.027,112.264 186.5,112.5C 186.549,109.626 186.216,106.792 185.5,104C 185.509,102.596 186.009,101.43 187,100.5C 187.333,100.833 187.667,101.167 188,101.5C 187.983,105.475 187.816,109.475 187.5,113.5C 188.5,113.5 189.5,113.5 190.5,113.5C 190.285,111.821 190.952,110.821 192.5,110.5 Z"/></g>
<g><path style="opacity:1" fill="#85997d" d="M 73.5,115.5 C 71.636,117.014 69.636,118.347 67.5,119.5C 65.629,119.859 64.129,120.859 63,122.5C 62.7305,125.224 62.2305,127.891 61.5,130.5C 62,130.833 62.5,131.167 63,131.5C 64.6667,130.5 66.3333,129.5 68,128.5C 69.3026,128.978 70.4693,129.645 71.5,130.5C 72.8708,132.867 74.8708,134.533 77.5,135.5C 78.5896,134.609 78.5896,133.609 77.5,132.5C 78.6888,131.571 80.0222,131.238 81.5,131.5C 88.4554,131.387 95.2887,130.387 102,128.5C 103.561,128.603 105.061,128.937 106.5,129.5C 109.434,127.083 112.6,126.416 116,127.5C 118.203,125.331 119.036,122.665 118.5,119.5C 119.728,120.306 120.728,121.306 121.5,122.5C 121.833,122.5 122.167,122.5 122.5,122.5C 122.772,126.902 122.439,131.235 121.5,135.5C 118.232,136.487 114.898,136.82 111.5,136.5C 108.01,138.749 106.343,137.416 106.5,132.5C 107.978,132.762 109.311,132.429 110.5,131.5C 109.667,131.167 108.833,130.833 108,130.5C 103.234,132.465 98.4005,134.298 93.5,136C 88.1771,136.499 82.8437,136.666 77.5,136.5C 77.5,137.5 77.5,138.5 77.5,139.5C 79.099,139.232 80.4324,139.566 81.5,140.5C 79.076,140.192 76.7427,140.526 74.5,141.5C 73.7542,142.736 73.4208,144.07 73.5,145.5C 70.7708,142.411 68.4374,138.911 66.5,135C 63.8877,135.359 61.221,135.859 58.5,136.5C 57.398,125.01 62.398,118.01 73.5,115.5 Z"/></g>
<g><path style="opacity:1" fill="#519036" d="M 34.5,133.5 C 38.4245,135.291 42.0912,137.291 45.5,139.5C 43.847,139.66 42.5137,140.326 41.5,141.5C 38.5,142.833 35.5,142.833 32.5,141.5C 32.5,139.833 32.5,138.167 32.5,136.5C 33.1667,135.5 33.8333,134.5 34.5,133.5 Z"/></g>
<g><path style="opacity:1" fill="#5a9b3f" d="M 14.5,135.5 C 15.8333,135.5 17.1667,135.5 18.5,135.5C 18.427,137.027 19.0937,138.027 20.5,138.5C 20.5,139.5 20.5,140.5 20.5,141.5C 17.519,140.26 14.8523,140.927 12.5,143.5C 10.2406,143.216 8.5739,142.216 7.5,140.5C 7.5,140.167 7.5,139.833 7.5,139.5C 9.89139,138.171 12.2247,136.837 14.5,135.5 Z"/></g>
<g><path style="opacity:1" fill="#82b57e" d="M 31.5,102.5 C 31.6633,104.857 31.4966,107.19 31,109.5C 29.6667,110.167 28.3333,110.833 27,111.5C 26.5003,119.159 26.3336,126.826 26.5,134.5C 25.0222,134.238 23.6888,134.571 22.5,135.5C 23.5353,137.128 23.5353,138.795 22.5,140.5C 21.8333,139.833 21.1667,139.167 20.5,138.5C 19.0937,138.027 18.427,137.027 18.5,135.5C 18.5,134.5 18.5,133.5 18.5,132.5C 20.5914,132.318 22.5914,132.652 24.5,133.5C 25.3315,125.855 25.8315,118.188 26,110.5C 27.1096,108.963 28.6096,108.297 30.5,108.5C 30.2053,106.265 30.5386,104.265 31.5,102.5 Z"/></g>
<g><path style="opacity:1" fill="#b6c5b0" d="M 177.5,141.5 C 177.833,142.833 178.167,144.167 178.5,145.5C 177.057,144.665 176.057,143.332 175.5,141.5C 174.167,141.167 172.833,140.833 171.5,140.5C 170.851,142.624 170.017,144.624 169,146.5C 168.405,145.101 168.572,143.768 169.5,142.5C 168.687,141.186 167.687,140.019 166.5,139C 166.833,138.667 167.167,138.333 167.5,138C 164.75,137.375 162.75,138.375 161.5,141C 162.357,141.689 163.023,142.522 163.5,143.5C 163.154,144.696 162.654,144.696 162,143.5C 162.311,144.935 162.145,146.268 161.5,147.5C 161.833,147.833 162.167,148.167 162.5,148.5C 163.142,145.203 164.309,144.869 166,147.5C 166.779,149.906 165.946,151.573 163.5,152.5C 164.262,152.911 165.262,153.077 166.5,153C 164.68,153.979 163.513,155.479 163,157.5C 162.45,152.93 161.283,152.597 159.5,156.5C 158.749,155.624 158.249,154.624 158,153.5C 156.773,155.726 154.939,157.226 152.5,158C 153.711,159.844 155.044,160.678 156.5,160.5C 155.127,162.49 154.127,164.657 153.5,167C 150.782,166.476 148.115,165.643 145.5,164.5C 145.586,166.677 146.253,168.677 147.5,170.5C 146.471,170.296 145.471,170.796 144.5,172C 148.251,172.761 148.417,173.928 145,175.5C 142.911,175.255 140.911,175.255 139,175.5C 138.667,176.5 138.333,177.5 138,178.5C 137.08,178.93 136.247,179.264 135.5,179.5C 136.939,181.343 136.772,183.01 135,184.5C 134.667,183.5 134.333,182.5 134,181.5C 133.667,181.833 133.333,182.167 133,182.5C 131.342,180.835 129.675,179.168 128,177.5C 127.5,177.833 127,178.167 126.5,178.5C 125.461,181.94 125.294,185.607 126,189.5C 125.333,188.833 124.667,188.167 124,187.5C 123.215,189.249 122.382,190.916 121.5,192.5C 121.167,192.5 120.833,192.5 120.5,192.5C 120.335,189.482 120.502,186.482 121,183.5C 123.855,178.104 126.021,172.437 127.5,166.5C 140.16,155.514 152.16,143.848 163.5,131.5C 164.942,130.18 165.608,128.514 165.5,126.5C 166.978,126.238 168.311,126.571 169.5,127.5C 172.179,132.194 174.845,136.861 177.5,141.5 Z"/></g>
<g><path style="opacity:1" fill="#96a88c" d="M 111.5,136.5 C 110.587,138.835 109.253,141.001 107.5,143C 102.961,143.91 98.9609,145.743 95.5,148.5C 96.2186,146.236 96.552,143.903 96.5,141.5C 91.3054,141.821 86.3054,141.487 81.5,140.5C 80.4324,139.566 79.099,139.232 77.5,139.5C 77.5,138.5 77.5,137.5 77.5,136.5C 82.8437,136.666 88.1771,136.499 93.5,136C 98.4005,134.298 103.234,132.465 108,130.5C 108.833,130.833 109.667,131.167 110.5,131.5C 109.311,132.429 107.978,132.762 106.5,132.5C 106.343,137.416 108.01,138.749 111.5,136.5 Z"/></g>
<g><path style="opacity:1" fill="#72a45c" d="M 32.5,136.5 C 32.5,138.167 32.5,139.833 32.5,141.5C 35.5,142.833 38.5,142.833 41.5,141.5C 40.7222,142.156 40.0556,142.989 39.5,144C 40.4295,145.077 41.0962,146.244 41.5,147.5C 39.042,147.822 36.8754,148.822 35,150.5C 32.7624,148.016 29.929,146.683 26.5,146.5C 26.5,145.5 26.5,144.5 26.5,143.5C 25.5,143.5 24.5,143.5 23.5,143.5C 23.67,144.822 23.3366,145.989 22.5,147C 18.2075,148.424 14.3741,150.591 11,153.5C 10.6892,155.556 10.1892,157.556 9.5,159.5C 10.6283,160.262 11.7949,160.929 13,161.5C 13.6667,164.167 13.6667,166.833 13,169.5C 12.586,169.957 12.086,170.291 11.5,170.5C 8.63066,167.173 5.29733,166.173 1.5,167.5C 0.565525,166.432 0.232191,165.099 0.5,163.5C 3.65767,162.687 6.32434,161.02 8.5,158.5C 7.8153,156.453 6.64863,154.786 5,153.5C 3.40287,154.885 1.56954,155.551 -0.5,155.5C -0.5,150.833 -0.5,146.167 -0.5,141.5C 2.16667,141.167 4.83333,140.833 7.5,140.5C 8.5739,142.216 10.2406,143.216 12.5,143.5C 14.8523,140.927 17.519,140.26 20.5,141.5C 20.5,140.5 20.5,139.5 20.5,138.5C 21.1667,139.167 21.8333,139.833 22.5,140.5C 23.7382,141.412 25.0715,141.579 26.5,141C 27.7051,139.624 29.0384,138.458 30.5,137.5C 31.1667,137.167 31.8333,136.833 32.5,136.5 Z"/></g>
<g><path style="opacity:1" fill="#496b40" d="M 49.5,138.5 C 50.5,138.5 51.5,138.5 52.5,138.5C 54.9474,141.366 54.9474,144.366 52.5,147.5C 50.5116,150.128 48.5116,152.795 46.5,155.5C 45.1667,155.5 44.5,154.833 44.5,153.5C 48.0306,149.259 49.6972,144.259 49.5,138.5 Z"/></g>
<g><path style="opacity:1" fill="#bccab6" d="M 178.5,145.5 C 178.492,150.357 176.992,154.69 174,158.5C 165.291,168.877 155.624,178.21 145,186.5C 144.536,187.094 144.369,187.761 144.5,188.5C 142.364,189.653 140.364,190.986 138.5,192.5C 132.833,192.5 127.167,192.5 121.5,192.5C 122.382,190.916 123.215,189.249 124,187.5C 124.667,188.167 125.333,188.833 126,189.5C 125.294,185.607 125.461,181.94 126.5,178.5C 127,178.167 127.5,177.833 128,177.5C 129.675,179.168 131.342,180.835 133,182.5C 133.333,182.167 133.667,181.833 134,181.5C 134.333,182.5 134.667,183.5 135,184.5C 136.772,183.01 136.939,181.343 135.5,179.5C 136.247,179.264 137.08,178.93 138,178.5C 138.333,177.5 138.667,176.5 139,175.5C 140.911,175.255 142.911,175.255 145,175.5C 148.417,173.928 148.251,172.761 144.5,172C 145.471,170.796 146.471,170.296 147.5,170.5C 146.253,168.677 145.586,166.677 145.5,164.5C 148.115,165.643 150.782,166.476 153.5,167C 154.127,164.657 155.127,162.49 156.5,160.5C 155.044,160.678 153.711,159.844 152.5,158C 154.939,157.226 156.773,155.726 158,153.5C 158.249,154.624 158.749,155.624 159.5,156.5C 161.283,152.597 162.45,152.93 163,157.5C 163.513,155.479 164.68,153.979 166.5,153C 165.262,153.077 164.262,152.911 163.5,152.5C 165.946,151.573 166.779,149.906 166,147.5C 164.309,144.869 163.142,145.203 162.5,148.5C 162.167,148.167 161.833,147.833 161.5,147.5C 162.145,146.268 162.311,144.935 162,143.5C 162.654,144.696 163.154,144.696 163.5,143.5C 163.023,142.522 162.357,141.689 161.5,141C 162.75,138.375 164.75,137.375 167.5,138C 167.167,138.333 166.833,138.667 166.5,139C 167.687,140.019 168.687,141.186 169.5,142.5C 168.572,143.768 168.405,145.101 169,146.5C 170.017,144.624 170.851,142.624 171.5,140.5C 172.833,140.833 174.167,141.167 175.5,141.5C 176.057,143.332 177.057,144.665 178.5,145.5 Z"/></g>
<g><path style="opacity:1" fill="#56933c" d="M 41.5,147.5 C 42.675,147.281 43.675,147.614 44.5,148.5C 41.7928,149.904 39.1261,151.238 36.5,152.5C 36.3184,154.591 36.6518,156.591 37.5,158.5C 36.0476,159.94 35.0476,161.606 34.5,163.5C 29.9585,162.705 25.9585,160.872 22.5,158C 23.6716,157.647 24.8382,157.813 26,158.5C 28.9396,157.577 31.7729,156.577 34.5,155.5C 34.2002,152.482 32.5335,150.482 29.5,149.5C 24.8913,150.655 20.2247,151.488 15.5,152C 11.2387,155.98 11.9054,158.813 17.5,160.5C 16.6121,164.832 14.9454,168.832 12.5,172.5C 13.212,175.212 14.8787,176.879 17.5,177.5C 15.5368,178.82 13.5368,180.154 11.5,181.5C 10.653,180.034 9.31966,179.2 7.5,179C 12.8585,175.666 12.5252,172.666 6.5,170C 4.86586,169.506 3.19919,169.34 1.5,169.5C 1.5,168.833 1.5,168.167 1.5,167.5C 5.29733,166.173 8.63066,167.173 11.5,170.5C 12.086,170.291 12.586,169.957 13,169.5C 13.6667,166.833 13.6667,164.167 13,161.5C 11.7949,160.929 10.6283,160.262 9.5,159.5C 10.1892,157.556 10.6892,155.556 11,153.5C 14.3741,150.591 18.2075,148.424 22.5,147C 23.3366,145.989 23.67,144.822 23.5,143.5C 24.5,143.5 25.5,143.5 26.5,143.5C 26.5,144.5 26.5,145.5 26.5,146.5C 29.929,146.683 32.7624,148.016 35,150.5C 36.8754,148.822 39.042,147.822 41.5,147.5 Z"/></g>
<g><path style="opacity:1" fill="#8a9e81" d="M 148.5,80.5 C 153.84,80.5556 154.84,82.0556 151.5,85C 151.5,86 151.5,87 151.5,88C 150.262,87.9227 149.262,88.0894 148.5,88.5C 149.025,89.1924 149.692,89.6924 150.5,90C 149.5,91.6667 148.5,93.3333 147.5,95C 150.277,97.1734 150.11,97.6734 147,96.5C 144.887,98.2711 145.053,99.7711 147.5,101C 145.699,101.317 145.366,101.984 146.5,103C 145.682,104.177 144.682,105.51 143.5,107C 143.645,107.772 143.978,108.439 144.5,109C 139.827,109.934 139.494,111.434 143.5,113.5C 142.975,114.192 142.308,114.692 141.5,115C 142.452,119.238 144.452,122.905 147.5,126C 146.551,126.617 145.718,126.451 145,125.5C 144.365,126.966 143.531,128.3 142.5,129.5C 143.868,131.637 144.868,133.97 145.5,136.5C 146.183,136.137 146.85,135.804 147.5,135.5C 148.302,136.952 148.802,138.618 149,140.5C 149.333,139.833 149.667,139.167 150,138.5C 150.667,139.833 151.333,139.833 152,138.5C 152.483,137.552 152.649,136.552 152.5,135.5C 154.433,135.271 156.1,134.438 157.5,133C 158.479,130.863 159.812,129.029 161.5,127.5C 162.172,128.949 162.839,130.282 163.5,131.5C 152.16,143.848 140.16,155.514 127.5,166.5C 126.021,172.437 123.855,178.104 121,183.5C 120.502,186.482 120.335,189.482 120.5,192.5C 119.5,192.5 118.5,192.5 117.5,192.5C 116.518,189.176 116.851,186.176 118.5,183.5C 117.147,182.476 116.48,181.143 116.5,179.5C 118.799,178.862 120.966,177.862 123,176.5C 123.056,173.22 123.889,170.22 125.5,167.5C 124.253,165.677 123.586,163.677 123.5,161.5C 121.516,161.617 119.85,160.95 118.5,159.5C 117.735,160.612 116.735,161.279 115.5,161.5C 118.287,156.087 122.787,153.087 129,152.5C 129.833,150.833 130.667,149.167 131.5,147.5C 134.953,146.521 135.286,145.021 132.5,143C 133.672,142.581 134.672,141.915 135.5,141C 134.465,139.493 134.632,137.993 136,136.5C 136.626,138.991 137.459,138.991 138.5,136.5C 139.657,133.505 140.324,130.672 140.5,128C 138.665,127.072 138.332,125.906 139.5,124.5C 138.019,123.52 136.685,122.353 135.5,121C 136.833,120 136.833,119 135.5,118C 136.167,117 136.833,116 137.5,115C 136.76,112.728 136.76,110.728 137.5,109C 139.301,108.683 139.634,108.016 138.5,107C 141.314,106.221 142.98,104.888 143.5,103C 143.167,102.667 142.833,102.333 142.5,102C 144.781,100.149 144.781,98.4823 142.5,97C 144.301,96.6827 144.634,96.016 143.5,95C 144.579,92.957 146.246,91.6237 148.5,91C 146.219,89.5177 146.219,87.851 148.5,86C 146.109,84.6914 146.109,83.6914 148.5,83C 147.402,82.2303 147.402,81.397 148.5,80.5 Z"/></g>
<g><path style="opacity:1" fill="#aebda7" d="M 141.5,78.5 C 145.829,82.6879 145.496,86.5213 140.5,90C 141.833,91 141.833,92 140.5,93C 142.776,94.8743 142.443,96.5409 139.5,98C 140.167,98.3333 140.833,98.6667 141.5,99C 140.333,99.5 139.5,100.333 139,101.5C 137.16,100.167 136.66,100.334 137.5,102C 136.584,102.374 135.75,102.874 135,103.5C 134.231,106.099 134.398,108.599 135.5,111C 133.5,111.333 131.5,111.667 129.5,112C 130.167,112.333 130.833,112.667 131.5,113C 130.353,115.085 131.02,116.585 133.5,117.5C 134.496,123.798 134.83,130.132 134.5,136.5C 132.833,136.5 131.167,136.5 129.5,136.5C 129.5,139.5 129.5,142.5 129.5,145.5C 128.167,145.5 126.833,145.5 125.5,145.5C 125.5,147.167 125.5,148.833 125.5,150.5C 118.944,152.136 114.277,156.136 111.5,162.5C 104.139,161.476 96.8061,160.476 89.5,159.5C 89.1667,159.5 88.8333,159.5 88.5,159.5C 88.67,158.178 88.3366,157.011 87.5,156C 85.2852,155.83 83.2852,155.163 81.5,154C 84.6883,150.642 87.6883,150.809 90.5,154.5C 93.1442,152.629 95.6442,150.629 98,148.5C 99.46,150.422 101.127,151.089 103,150.5C 103.5,149.333 104.333,148.5 105.5,148C 105.167,147.667 104.833,147.333 104.5,147C 107.576,146.654 110.576,145.988 113.5,145C 112.692,144.692 112.025,144.192 111.5,143.5C 115.02,141.155 118.853,139.489 123,138.5C 123.817,132.984 123.651,127.65 122.5,122.5C 122.167,122.5 121.833,122.5 121.5,122.5C 121.579,121.07 121.246,119.736 120.5,118.5C 121.833,117.167 123.167,115.833 124.5,114.5C 122.231,113.995 120.897,112.662 120.5,110.5C 122.401,110.433 124.234,110.767 126,111.5C 126.702,110.205 127.369,108.872 128,107.5C 128.333,107.833 128.667,108.167 129,108.5C 129.667,107.167 130.667,106.167 132,105.5C 132.617,104.551 132.451,103.718 131.5,103C 132.167,102.667 132.833,102.333 133.5,102C 131.682,98.6127 132.682,96.6127 136.5,96C 135.115,93.4152 135.782,91.4152 138.5,90C 137.692,89.6924 137.025,89.1924 136.5,88.5C 137.262,88.0894 138.262,87.9227 139.5,88C 138.833,87.3333 138.167,86.6667 137.5,86C 138.02,84.1125 139.686,82.7792 142.5,82C 141.672,81.0853 140.672,80.4186 139.5,80C 140.416,79.7216 141.082,79.2216 141.5,78.5 Z"/></g>
<g><path style="opacity:1" fill="#a8b8a1" d="M 122.5,122.5 C 123.651,127.65 123.817,132.984 123,138.5C 118.853,139.489 115.02,141.155 111.5,143.5C 112.025,144.192 112.692,144.692 113.5,145C 110.576,145.988 107.576,146.654 104.5,147C 104.833,147.333 105.167,147.667 105.5,148C 104.333,148.5 103.5,149.333 103,150.5C 101.127,151.089 99.46,150.422 98,148.5C 95.6442,150.629 93.1442,152.629 90.5,154.5C 87.6883,150.809 84.6883,150.642 81.5,154C 83.2852,155.163 85.2852,155.83 87.5,156C 88.3366,157.011 88.67,158.178 88.5,159.5C 83.4948,158.414 78.4948,158.747 73.5,160.5C 69.1071,161.418 66.7738,159.751 66.5,155.5C 65.1362,152.332 64.3028,148.999 64,145.5C 62.6371,143.216 61.1371,143.049 59.5,145C 60.5762,146.726 60.7429,148.559 60,150.5C 56.8259,146.314 55.3259,141.814 55.5,137C 56.448,136.517 57.448,136.351 58.5,136.5C 61.221,135.859 63.8877,135.359 66.5,135C 68.4374,138.911 70.7708,142.411 73.5,145.5C 74.6597,146.611 75.993,147.611 77.5,148.5C 83.5083,149.699 89.5083,149.699 95.5,148.5C 98.9609,145.743 102.961,143.91 107.5,143C 109.253,141.001 110.587,138.835 111.5,136.5C 114.898,136.82 118.232,136.487 121.5,135.5C 122.439,131.235 122.772,126.902 122.5,122.5 Z"/></g>
<g><path style="opacity:1" fill="#597353" d="M 81.5,140.5 C 86.3054,141.487 91.3054,141.821 96.5,141.5C 96.552,143.903 96.2186,146.236 95.5,148.5C 89.5083,149.699 83.5083,149.699 77.5,148.5C 75.993,147.611 74.6597,146.611 73.5,145.5C 73.4208,144.07 73.7542,142.736 74.5,141.5C 76.7427,140.526 79.076,140.192 81.5,140.5 Z"/></g>
<g><path style="opacity:1" fill="#5b884d" d="M 46.5,136.5 C 47.7777,136.782 48.7777,137.449 49.5,138.5C 49.6972,144.259 48.0306,149.259 44.5,153.5C 43.5416,153.047 42.7083,152.381 42,151.5C 39.5397,152.755 38.373,154.755 38.5,157.5C 37.8333,159.833 37.1667,162.167 36.5,164.5C 35.8333,164.833 35.1667,165.167 34.5,165.5C 34.5,164.833 34.5,164.167 34.5,163.5C 35.0476,161.606 36.0476,159.94 37.5,158.5C 36.6518,156.591 36.3184,154.591 36.5,152.5C 39.1261,151.238 41.7928,149.904 44.5,148.5C 43.675,147.614 42.675,147.281 41.5,147.5C 41.0962,146.244 40.4295,145.077 39.5,144C 40.0556,142.989 40.7222,142.156 41.5,141.5C 42.5137,140.326 43.847,139.66 45.5,139.5C 46.404,138.791 46.7373,137.791 46.5,136.5 Z"/></g>
<g><path style="opacity:1" fill="#afbea8" d="M 52.5,147.5 C 53.8734,147.343 55.2068,147.51 56.5,148C 59.9435,153.531 61.7769,159.698 62,166.5C 62.3826,167.056 62.8826,167.389 63.5,167.5C 63.5489,170.374 63.2156,173.208 62.5,176C 64.3884,181.027 64.8884,186.193 64,191.5C 60.5959,188.932 57.7626,185.932 55.5,182.5C 51.9981,176.829 48.4981,171.162 45,165.5C 44.037,161.851 44.537,158.518 46.5,155.5C 48.5116,152.795 50.5116,150.128 52.5,147.5 Z"/></g>
<g><path style="opacity:1" fill="#9dbe9a" d="M 1.5,167.5 C 1.5,168.167 1.5,168.833 1.5,169.5C 1.5,169.833 1.5,170.167 1.5,170.5C 0.833333,169.833 0.166667,169.167 -0.5,168.5C -0.5,164.167 -0.5,159.833 -0.5,155.5C 1.56954,155.551 3.40287,154.885 5,153.5C 6.64863,154.786 7.8153,156.453 8.5,158.5C 6.32434,161.02 3.65767,162.687 0.5,163.5C 0.232191,165.099 0.565525,166.432 1.5,167.5 Z"/></g>
<g><path style="opacity:1" fill="#4b7245" d="M 185.5,150.5 C 186.833,151.5 188.167,152.5 189.5,153.5C 190.167,154.833 191.167,155.833 192.5,156.5C 192.5,158.167 192.5,159.833 192.5,161.5C 191.178,161.67 190.011,161.337 189,160.5C 187.142,157.428 185.976,154.095 185.5,150.5 Z"/></g>
<g><path style="opacity:1" fill="#7aab5d" d="M 34.5,163.5 C 34.5,164.167 34.5,164.833 34.5,165.5C 28.399,168.775 22.7324,172.775 17.5,177.5C 14.8787,176.879 13.212,175.212 12.5,172.5C 14.9454,168.832 16.6121,164.832 17.5,160.5C 11.9054,158.813 11.2387,155.98 15.5,152C 20.2247,151.488 24.8913,150.655 29.5,149.5C 32.5335,150.482 34.2002,152.482 34.5,155.5C 31.7729,156.577 28.9396,157.577 26,158.5C 24.8382,157.813 23.6716,157.647 22.5,158C 25.9585,160.872 29.9585,162.705 34.5,163.5 Z"/></g>
<g><path style="opacity:1" fill="#728768" d="M 66.5,155.5 C 66.7738,159.751 69.1071,161.418 73.5,160.5C 78.4948,158.747 83.4948,158.414 88.5,159.5C 88.8333,159.5 89.1667,159.5 89.5,159.5C 92.7528,161.433 96.4194,162.933 100.5,164C 104.421,164.203 108.255,164.703 112,165.5C 112.708,164.619 113.542,163.953 114.5,163.5C 114.586,164.496 114.252,165.329 113.5,166C 110.69,166.782 108.023,167.616 105.5,168.5C 98.4849,167.334 91.8182,165 85.5,161.5C 83.9644,162.249 82.6311,163.249 81.5,164.5C 78.9334,164.222 76.2667,164.056 73.5,164C 71.324,163.837 69.4907,163.004 68,161.5C 67.5078,162.549 67.6744,163.549 68.5,164.5C 67.8333,165.167 67.1667,165.833 66.5,166.5C 66.9702,168.774 67.9702,170.774 69.5,172.5C 68.6072,175.084 68.2739,177.751 68.5,180.5C 69.5,180.5 70.5,180.5 71.5,180.5C 71.5,181.5 71.5,182.5 71.5,183.5C 72.5,183.5 73.5,183.5 74.5,183.5C 74.5861,185.677 75.2528,187.677 76.5,189.5C 75.8728,190.417 75.5394,191.417 75.5,192.5C 72.8333,192.5 70.1667,192.5 67.5,192.5C 67.7671,183.899 66.4338,175.566 63.5,167.5C 62.2805,162.85 62.2805,158.183 63.5,153.5C 64.5178,154.193 65.5178,154.859 66.5,155.5 Z"/></g>
<g><path style="opacity:1" fill="#5b7053" d="M 115.5,162.5 C 116.586,162.62 117.253,163.287 117.5,164.5C 116.909,166.266 116.076,167.933 115,169.5C 112.973,169.014 110.807,169.014 108.5,169.5C 108.452,172.292 109.785,174.125 112.5,175C 112.167,175.333 111.833,175.667 111.5,176C 112.448,176.483 113.448,176.649 114.5,176.5C 114.142,180.509 113.642,184.509 113,188.5C 112.581,187.328 111.915,186.328 111,185.5C 110.256,187.9 109.423,190.233 108.5,192.5C 106.167,192.5 103.833,192.5 101.5,192.5C 101.162,190.146 100.662,187.813 100,185.5C 99.1072,186.711 98.2739,186.711 97.5,185.5C 98.325,184.614 99.325,184.281 100.5,184.5C 100.827,181.518 100.827,178.685 100.5,176C 101.617,174.108 103.284,173.275 105.5,173.5C 105.822,171.525 105.822,169.858 105.5,168.5C 108.023,167.616 110.69,166.782 113.5,166C 114.252,165.329 114.586,164.496 114.5,163.5C 114.5,162.833 114.833,162.5 115.5,162.5 Z"/></g>
<g><path style="opacity:1" fill="#73886a" d="M 117.5,192.5 C 114.5,192.5 111.5,192.5 108.5,192.5C 109.423,190.233 110.256,187.9 111,185.5C 111.915,186.328 112.581,187.328 113,188.5C 113.642,184.509 114.142,180.509 114.5,176.5C 113.448,176.649 112.448,176.483 111.5,176C 111.833,175.667 112.167,175.333 112.5,175C 109.785,174.125 108.452,172.292 108.5,169.5C 110.807,169.014 112.973,169.014 115,169.5C 116.076,167.933 116.909,166.266 117.5,164.5C 117.253,163.287 116.586,162.62 115.5,162.5C 115.5,162.167 115.5,161.833 115.5,161.5C 116.735,161.279 117.735,160.612 118.5,159.5C 119.85,160.95 121.516,161.617 123.5,161.5C 123.586,163.677 124.253,165.677 125.5,167.5C 123.889,170.22 123.056,173.22 123,176.5C 120.966,177.862 118.799,178.862 116.5,179.5C 116.48,181.143 117.147,182.476 118.5,183.5C 116.851,186.176 116.518,189.176 117.5,192.5 Z"/></g>
<g><path style="opacity:1" fill="#596f50" d="M 180.5,170.5 C 178.909,171.219 177.409,172.219 176,173.5C 173.575,177.608 174.742,180.275 179.5,181.5C 179,181.833 178.5,182.167 178,182.5C 175.865,181.873 173.698,181.373 171.5,181C 170.033,178.814 168.033,178.148 165.5,179C 163.645,181.579 162.312,184.412 161.5,187.5C 159.362,187.297 157.695,186.297 156.5,184.5C 152.856,187.925 148.856,190.591 144.5,192.5C 142.5,192.5 140.5,192.5 138.5,192.5C 140.364,190.986 142.364,189.653 144.5,188.5C 148.461,187.712 151.461,185.545 153.5,182C 161.496,179.491 168.496,175.158 174.5,169C 176.695,168.591 178.695,169.091 180.5,170.5 Z"/></g>
<g><path style="opacity:1" fill="#90a285" d="M 177.5,141.5 C 178.117,141.611 178.617,141.944 179,142.5C 181.471,148.371 180.638,153.704 176.5,158.5C 177.934,159.23 179.1,160.23 180,161.5C 180.333,160.833 180.667,160.167 181,159.5C 181.345,161.677 180.845,163.677 179.5,165.5C 180.489,167.822 182.156,169.489 184.5,170.5C 183.192,171.626 181.858,171.626 180.5,170.5C 178.695,169.091 176.695,168.591 174.5,169C 168.496,175.158 161.496,179.491 153.5,182C 151.461,185.545 148.461,187.712 144.5,188.5C 144.369,187.761 144.536,187.094 145,186.5C 155.624,178.21 165.291,168.877 174,158.5C 176.992,154.69 178.492,150.357 178.5,145.5C 178.167,144.167 177.833,142.833 177.5,141.5 Z"/></g>
<g><path style="opacity:1" fill="#305a25" d="M 36.5,164.5 C 37.1174,164.611 37.6174,164.944 38,165.5C 38.4974,168.146 38.6641,170.813 38.5,173.5C 35.2447,173.014 32.578,174.014 30.5,176.5C 29.377,174.711 28.0436,174.378 26.5,175.5C 27.8532,176.524 28.5198,177.857 28.5,179.5C 26.5328,179.739 24.6995,179.406 23,178.5C 22.7902,179.803 22.9569,181.136 23.5,182.5C 23.0576,183.739 22.3909,184.739 21.5,185.5C 20.9517,188.084 19.285,189.084 16.5,188.5C 13.8908,187.557 11.8908,185.89 10.5,183.5C 10.8333,182.833 11.1667,182.167 11.5,181.5C 13.5368,180.154 15.5368,178.82 17.5,177.5C 22.7324,172.775 28.399,168.775 34.5,165.5C 35.1667,165.167 35.8333,164.833 36.5,164.5 Z"/></g>
<g><path style="opacity:1" fill="#81ac6d" d="M 1.5,169.5 C 3.19919,169.34 4.86586,169.506 6.5,170C 12.5252,172.666 12.8585,175.666 7.5,179C 9.31966,179.2 10.653,180.034 11.5,181.5C 11.1667,182.167 10.8333,182.833 10.5,183.5C 6.33752,179.999 3.33752,175.665 1.5,170.5C 1.5,170.167 1.5,169.833 1.5,169.5 Z"/></g>
<g><path style="opacity:1" fill="#4e6749" d="M 105.5,168.5 C 105.822,169.858 105.822,171.525 105.5,173.5C 103.284,173.275 101.617,174.108 100.5,176C 100.827,178.685 100.827,181.518 100.5,184.5C 99.325,184.281 98.325,184.614 97.5,185.5C 98.2739,186.711 99.1072,186.711 100,185.5C 100.662,187.813 101.162,190.146 101.5,192.5C 92.8333,192.5 84.1667,192.5 75.5,192.5C 75.5394,191.417 75.8728,190.417 76.5,189.5C 75.2528,187.677 74.5861,185.677 74.5,183.5C 73.5,183.5 72.5,183.5 71.5,183.5C 71.5,182.5 71.5,181.5 71.5,180.5C 70.5,180.5 69.5,180.5 68.5,180.5C 68.2739,177.751 68.6072,175.084 69.5,172.5C 67.9702,170.774 66.9702,168.774 66.5,166.5C 67.1667,165.833 67.8333,165.167 68.5,164.5C 67.6744,163.549 67.5078,162.549 68,161.5C 69.4907,163.004 71.324,163.837 73.5,164C 76.2667,164.056 78.9334,164.222 81.5,164.5C 82.6311,163.249 83.9644,162.249 85.5,161.5C 91.8182,165 98.4849,167.334 105.5,168.5 Z"/></g>
<g><path style="opacity:1" fill="#56704e" d="M 21.5,185.5 C 22.3909,184.739 23.0576,183.739 23.5,182.5C 22.9569,181.136 22.7902,179.803 23,178.5C 24.6995,179.406 26.5328,179.739 28.5,179.5C 28.5198,177.857 27.8532,176.524 26.5,175.5C 28.0436,174.378 29.377,174.711 30.5,176.5C 32.578,174.014 35.2447,173.014 38.5,173.5C 38.6641,170.813 38.4974,168.146 38,165.5C 37.6174,164.944 37.1174,164.611 36.5,164.5C 37.1667,162.167 37.8333,159.833 38.5,157.5C 40.0295,156.933 41.5295,156.267 43,155.5C 43.6601,158.534 43.1601,161.367 41.5,164C 43.2437,166.963 43.7437,170.129 43,173.5C 41.2602,172.284 40.2602,170.618 40,168.5C 39.2438,170.809 39.7438,172.809 41.5,174.5C 40.037,177.28 40.7037,179.447 43.5,181C 41.932,184.119 39.7653,186.619 37,188.5C 32.0254,187.841 30.0254,185.174 31,180.5C 29.2658,182.451 27.0991,183.451 24.5,183.5C 24.6495,184.552 24.4828,185.552 24,186.5C 23.3292,185.748 22.4959,185.414 21.5,185.5 Z"/></g>
<g><path style="opacity:1" fill="#788b6e" d="M 44.5,153.5 C 44.5,154.833 45.1667,155.5 46.5,155.5C 44.537,158.518 44.037,161.851 45,165.5C 48.4981,171.162 51.9981,176.829 55.5,182.5C 55.1506,185.99 56.6506,188.323 60,189.5C 60.4828,190.448 60.6495,191.448 60.5,192.5C 60.1667,192.5 59.8333,192.5 59.5,192.5C 57.6823,190.433 55.349,189.1 52.5,188.5C 51.0012,183.416 48.0012,182.249 43.5,185C 41.1702,188.472 38.1702,190.972 34.5,192.5C 30.5,192.5 26.5,192.5 22.5,192.5C 20.5,191.167 18.5,189.833 16.5,188.5C 19.285,189.084 20.9517,188.084 21.5,185.5C 22.4959,185.414 23.3292,185.748 24,186.5C 24.4828,185.552 24.6495,184.552 24.5,183.5C 27.0991,183.451 29.2658,182.451 31,180.5C 30.0254,185.174 32.0254,187.841 37,188.5C 39.7653,186.619 41.932,184.119 43.5,181C 40.7037,179.447 40.037,177.28 41.5,174.5C 39.7438,172.809 39.2438,170.809 40,168.5C 40.2602,170.618 41.2602,172.284 43,173.5C 43.7437,170.129 43.2437,166.963 41.5,164C 43.1601,161.367 43.6601,158.534 43,155.5C 41.5295,156.267 40.0295,156.933 38.5,157.5C 38.373,154.755 39.5397,152.755 42,151.5C 42.7083,152.381 43.5416,153.047 44.5,153.5 Z"/></g>
<g><path style="opacity:1" fill="#627558" d="M 59.5,192.5 C 51.1667,192.5 42.8333,192.5 34.5,192.5C 38.1702,190.972 41.1702,188.472 43.5,185C 48.0012,182.249 51.0012,183.416 52.5,188.5C 55.349,189.1 57.6823,190.433 59.5,192.5 Z"/></g>
<g><path style="opacity:1" fill="#93a589" d="M 63.5,167.5 C 66.4338,175.566 67.7671,183.899 67.5,192.5C 65.1667,192.5 62.8333,192.5 60.5,192.5C 60.6495,191.448 60.4828,190.448 60,189.5C 56.6506,188.323 55.1506,185.99 55.5,182.5C 57.7626,185.932 60.5959,188.932 64,191.5C 64.8884,186.193 64.3884,181.027 62.5,176C 63.2156,173.208 63.5489,170.374 63.5,167.5 Z"/></g>
</svg>
