<svg width="279" height="60" viewBox="0 0 279 60" fill="none" xmlns="http://www.w3.org/2000/svg">
<path d="M13.1767 26.74H18.3967V13.3H13.1767V26.74ZM0.936725 3.94H30.5767V32.8C30.5767 33.96 30.2767 34.8 29.6767 35.32C29.1167 35.84 28.2567 36.1 27.0967 36.1H4.41673C3.25673 36.1 2.37672 35.84 1.77673 35.32C1.21673 34.8 0.936725 33.96 0.936725 32.8V3.94ZM45.3367 15.58H53.2567V22.42C53.2567 23.66 52.8767 24.56 52.1167 25.12C51.3967 25.68 50.3767 25.96 49.0567 25.96H45.3367V39.58C45.3367 40.82 44.9167 41.82 44.0767 42.58C43.2367 43.3 42.1167 43.66 40.7167 43.66H33.1567V3.82H45.3367V15.58ZM6.45673 58.96C5.21673 58.96 4.23673 58.62 3.51673 57.94C2.83673 57.3 2.49672 56.38 2.49672 55.18V38.2H14.7367V49.6H45.5767V55.18C45.5767 56.38 45.2167 57.3 44.4967 57.94C43.7767 58.62 42.7967 58.96 41.5567 58.96H6.45673ZM72.1717 17.38C73.3317 17.38 74.0917 17.18 74.4517 16.78C74.8117 16.34 74.9917 15.82 74.9917 15.22V13.54C74.9917 12.94 74.8117 12.44 74.4517 12.04C74.0917 11.6 73.3317 11.38 72.1717 11.38H68.8717C67.7117 11.38 66.9517 11.6 66.5917 12.04C66.2317 12.44 66.0517 12.94 66.0517 13.54V15.22C66.0517 15.82 66.2317 16.34 66.5917 16.78C66.9517 17.18 67.7117 17.38 68.8717 17.38H72.1717ZM64.7317 26.14C61.1317 26.14 58.4717 25.34 56.7517 23.74C55.0317 22.1 54.1717 20.06 54.1717 17.62V11.26C54.1717 8.78 55.0317 6.74 56.7517 5.14C58.4717 3.54 61.1317 2.74 64.7317 2.74H76.3117C79.9117 2.74 82.5717 3.54 84.2917 5.14C86.0117 6.74 86.8717 8.78 86.8717 11.26V17.62C86.8717 20.06 86.0117 22.1 84.2917 23.74C82.5717 25.34 79.9117 26.14 76.3117 26.14H64.7317ZM101.632 41.26C101.632 42.5 101.212 43.5 100.372 44.26C99.5317 44.98 98.4117 45.34 97.0117 45.34H89.6317V42.82H81.3517C80.3517 42.82 79.5317 42.52 78.8917 41.92C78.2517 41.28 77.9317 40.46 77.9317 39.46V35.86H89.6317V3.76H101.632V41.26ZM81.9517 27.46C83.2317 27.46 84.4717 27.38 85.6717 27.22C86.9117 27.06 87.7917 26.88 88.3117 26.68V34C87.7117 34.2 86.7917 34.38 85.5517 34.54C84.3117 34.7 82.9917 34.78 81.5917 34.78H75.2317V38.5C75.2317 39.54 74.9317 40.32 74.3317 40.84C73.7317 41.36 72.8117 41.62 71.5717 41.62H63.0517V34.78H57.2917C55.9717 34.78 54.9117 34.44 54.1117 33.76C53.3517 33.08 52.9717 32.1 52.9717 30.82V27.46H81.9517ZM62.0317 58.96C60.7917 58.96 59.8117 58.62 59.0917 57.94C58.4117 57.3 58.0717 56.38 58.0717 55.18V42.88H70.3117V49.6H101.872V55.18C101.872 56.38 101.512 57.3 100.792 57.94C100.072 58.62 99.0917 58.96 97.8517 58.96H62.0317ZM108.067 13.12C108.067 10.28 108.907 8 110.587 6.28C112.307 4.56 114.567 3.7 117.367 3.7H130.927C133.727 3.7 135.967 4.56 137.647 6.28C139.367 8 140.227 10.28 140.227 13.12V35.38C140.227 38.18 139.367 40.46 137.647 42.22C135.967 43.94 133.727 44.8 130.927 44.8H117.367C114.567 44.8 112.307 43.94 110.587 42.22C108.907 40.46 108.067 38.18 108.067 35.38V13.12ZM120.427 32.32C120.427 33.56 120.627 34.38 121.027 34.78C121.427 35.14 121.947 35.32 122.587 35.32H125.707C126.347 35.32 126.867 35.14 127.267 34.78C127.667 34.38 127.867 33.56 127.867 32.32V16.18C127.867 14.9 127.667 14.08 127.267 13.72C126.867 13.36 126.347 13.18 125.707 13.18H122.587C121.947 13.18 121.427 13.36 121.027 13.72C120.627 14.08 120.427 14.9 120.427 16.18V32.32ZM154.987 51.16C154.987 53.36 154.227 55.2 152.707 56.68C151.227 58.2 149.387 58.96 147.187 58.96H142.807V57.76C142.247 57.92 141.387 58.1 140.227 58.3C138.987 58.5 137.667 58.6 136.267 58.6H111.967C110.647 58.6 109.587 58.26 108.787 57.58C108.027 56.9 107.647 55.92 107.647 54.64V49.3H136.627C137.907 49.3 139.167 49.2 140.407 49C141.527 48.88 142.327 48.72 142.807 48.52V3.82H154.987V51.16ZM198.793 28.12C198.793 30.44 198.073 32.28 196.633 33.64C195.193 35 193.293 35.68 190.933 35.68H181.213C178.853 35.68 176.953 35 175.513 33.64C174.073 32.28 173.353 30.44 173.353 28.12V22.24C173.353 19.92 174.073 18.08 175.513 16.72C176.953 15.36 178.853 14.68 181.213 14.68H190.933C193.293 14.68 195.193 15.36 196.633 16.72C198.073 18.08 198.793 19.92 198.793 22.24V28.12ZM180.253 4.54V0.579998H191.233V4.54H198.973V10.3C198.973 11.46 198.673 12.3 198.073 12.82C197.513 13.34 196.653 13.6 195.493 13.6H176.173C175.013 13.6 174.133 13.34 173.533 12.82C172.973 12.3 172.693 11.46 172.693 10.3V4.54H180.253ZM187.933 25.18C187.933 24.74 187.813 24.44 187.573 24.28C187.373 24.08 186.893 23.98 186.133 23.98H185.893C185.133 23.98 184.633 24.08 184.393 24.28C184.193 24.44 184.093 24.74 184.093 25.18C184.093 25.58 184.193 25.88 184.393 26.08C184.633 26.28 185.133 26.38 185.893 26.38H186.133C186.893 26.38 187.373 26.28 187.573 26.08C187.813 25.88 187.933 25.58 187.933 25.18ZM223.753 31.78C223.753 32.9 223.273 33.84 222.313 34.6C221.393 35.36 220.353 35.74 219.193 35.74H212.653V23.92H211.033V32.08C211.033 33.16 210.653 34.04 209.893 34.72C209.133 35.4 208.073 35.74 206.713 35.74H199.933V3.82H211.033V13.9H212.653V3.82H223.753V31.78ZM212.173 47.74C212.173 47.14 211.993 46.66 211.633 46.3C211.273 45.94 210.453 45.76 209.173 45.76H193.453C192.213 45.76 191.373 45.94 190.933 46.3C190.533 46.66 190.333 47.14 190.333 47.74V47.92C190.333 48.52 190.533 48.98 190.933 49.3C191.373 49.66 192.213 49.84 193.453 49.84H209.173C210.453 49.84 211.273 49.66 211.633 49.3C211.993 48.98 212.173 48.52 212.173 47.92V47.74ZM224.413 50.68C224.413 53.36 223.453 55.42 221.533 56.86C219.653 58.34 217.293 59.08 214.453 59.08H188.053C185.253 59.08 182.893 58.34 180.973 56.86C179.053 55.42 178.093 53.36 178.093 50.68V45.1C178.093 42.42 179.053 40.38 180.973 38.98C182.893 37.54 185.253 36.82 188.053 36.82H214.453C217.293 36.82 219.653 37.54 221.533 38.98C223.453 40.38 224.413 42.42 224.413 45.1V50.68ZM230.668 36.94C229.388 36.94 228.428 36.66 227.788 36.1C227.148 35.5 226.828 34.56 226.828 33.28V27.88H246.808V25.72H233.308C232.148 25.72 231.268 25.46 230.668 24.94C230.108 24.42 229.828 23.58 229.828 22.42V3.7H242.068V6.34H263.128V3.7H275.368V22.42C275.368 23.58 275.068 24.42 274.468 24.94C273.908 25.46 273.048 25.72 271.888 25.72H258.988V27.88H278.308V33.28C278.308 34.56 277.988 35.5 277.348 36.1C276.708 36.66 275.748 36.94 274.468 36.94H230.668ZM275.368 54.94C275.368 56.14 274.908 57.12 273.988 57.88C273.068 58.68 271.968 59.08 270.688 59.08H263.188V47.62H233.128C231.968 47.62 231.088 47.38 230.488 46.9C229.888 46.38 229.588 45.5 229.588 44.26V38.32H275.368V54.94ZM263.128 16.72V14.44H242.068V16.72H263.128Z" fill="#2AB673"/>
</svg>
