<svg width="24" height="25" viewBox="0 0 24 25" fill="none" xmlns="http://www.w3.org/2000/svg">
<path id="Vector" d="M16.5 24.4626L7.5 21.282L1.563 23.5993C1.179 23.7437 0.8225 23.7018 0.4935 23.4736C0.1645 23.2454 0 22.9248 0 22.5118V3.98701C0 3.71741 0.0650002 3.47054 0.195 3.24638C0.325 3.02424 0.514 2.86925 0.762 2.7814L7.5 0.462585L16.5 3.6432L22.437 1.32589C22.821 1.1815 23.1775 1.20877 23.5065 1.40768C23.8355 1.6066 24 1.90295 24 2.29674V21.0548C24 21.3446 23.9205 21.596 23.7615 21.809C23.6035 22.0231 23.3905 22.1736 23.1225 22.2604L16.5 24.4626ZM15.75 22.6148V4.89424L8.25 2.2513V19.9719L15.75 22.6163V22.6148ZM17.25 22.6148L22.5 20.8685V2.92074L17.25 4.89575V22.6163V22.6148ZM1.5 22.0044L6.75 19.9719V2.2513L1.5 4.05668V22.0044Z"/>
</svg>
 