<svg width="44" height="44" viewBox="0 0 44 44" fill="none" xmlns="http://www.w3.org/2000/svg">
<rect width="44" height="44" rx="22" fill="#2AB673"/>
<path d="M33.7747 13.0614L28.2882 7.57491C28.1286 7.41529 27.9392 7.28868 27.7306 7.20229C27.5221 7.1159 27.2986 7.07144 27.0728 7.07144C26.8471 7.07144 26.6236 7.1159 26.4151 7.20229C26.2065 7.28868 26.017 7.41529 25.8574 7.57491L10.7177 22.7134C10.5578 22.8728 10.431 23.0622 10.3446 23.2708C10.2582 23.4794 10.2139 23.703 10.2144 23.9288V29.4153C10.2144 29.8712 10.3954 30.3083 10.7178 30.6307C11.0401 30.953 11.4773 31.1341 11.9331 31.1341H17.4196C17.6454 31.1345 17.869 31.0902 18.0776 31.0038C18.2862 30.9174 18.4756 30.7906 18.635 30.6307L29.2127 20.053L29.7786 22.3144L25.1626 26.9305C25.0933 26.9987 25.0382 27.08 25.0005 27.1696C24.9628 27.2593 24.9432 27.3555 24.9429 27.4527C24.9426 27.5499 24.9615 27.6463 24.9986 27.7362C25.0356 27.8261 25.0901 27.9077 25.1589 27.9764C25.2277 28.0451 25.3095 28.0996 25.3994 28.1365C25.4893 28.1735 25.5857 28.1923 25.6829 28.1919C25.7802 28.1914 25.8763 28.1717 25.9659 28.1339C26.0555 28.0961 26.1367 28.0409 26.2049 27.9716L31.1156 23.0609C31.2056 22.9709 31.2708 22.8592 31.3048 22.7365C31.3388 22.6139 31.3404 22.4845 31.3096 22.3611L30.4281 18.8376L33.7747 15.4922C33.9344 15.3326 34.061 15.1431 34.1474 14.9346C34.2337 14.726 34.2782 14.5025 34.2782 14.2768C34.2782 14.0511 34.2337 13.8276 34.1474 13.619C34.061 13.4105 33.9344 13.221 33.7747 13.0614ZM11.6876 29.4153V25.3014L16.0483 29.6609H11.9331C11.868 29.6609 11.8055 29.635 11.7595 29.5889C11.7134 29.5429 11.6876 29.4804 11.6876 29.4153ZM17.826 29.3552L11.992 23.5225L22.7367 12.779L28.5706 18.6117L17.826 29.3552ZM32.7324 14.4499L29.6117 17.5707L23.779 11.7367L26.8985 8.61721C26.9213 8.59438 26.9484 8.57627 26.9782 8.56392C27.008 8.55156 27.04 8.5452 27.0722 8.5452C27.1045 8.5452 27.1364 8.55156 27.1663 8.56392C27.1961 8.57627 27.2231 8.59438 27.2459 8.61721L32.7324 14.1025C32.7553 14.1253 32.7734 14.1524 32.7857 14.1822C32.7981 14.212 32.8045 14.2439 32.8045 14.2762C32.8045 14.3085 32.7981 14.3404 32.7857 14.3702C32.7734 14.4 32.7553 14.4271 32.7324 14.4499Z" fill="white"/>
</svg>
