<svg xmlns="http://www.w3.org/2000/svg" width="47" height="47" viewBox="0 0 47 47" fill="none">
  <path d="M15.8153 34.7732C16.0697 35.1491 16.3736 35.5251 16.7383 35.8831C20.3989 39.4648 26.4165 37.4724 26.7812 37.3441C28.8974 36.608 30.417 35.345 31.4323 34.2351L32.9677 35.4868C34.1271 35.5364 37.1888 37.0087 40.6152 38.8637C44.2735 34.7912 46.5 29.4062 46.5 23.5011C46.5 10.7995 36.2027 0.5 23.4989 0.5C10.795 0.5 0.5 10.7973 0.5 23.5011C0.5 28.9649 2.40682 33.9807 5.58785 37.9272C6.11464 37.7246 6.65269 37.513 7.16373 37.2788C8.41093 36.7048 14.0346 36.2072 15.8153 34.7732Z" fill="#CFE7DF"/>
  <path d="M28.6344 11.7608C29.2084 11.288 28.8798 9.4082 28.3597 8.29382C28.0828 7.69724 27.6888 6.85527 26.9144 6.80574C26.1332 6.75621 25.2034 7.52389 25.0121 8.32084C24.5843 10.1061 27.7586 12.4812 28.6321 11.7608H28.6344Z" fill="#59D37D"/>
  <path d="M19.6697 11.9184C19.0956 11.4457 19.4243 9.56585 19.9443 8.45148C20.2213 7.85489 20.6152 7.01292 21.3897 6.96339C22.1708 6.91387 23.1006 7.68155 23.292 8.47849C23.7197 10.2637 20.5454 12.6388 19.6719 11.9184H19.6697Z" fill="#59D37D"/>
  <path d="M31.144 22.6074C31.1012 22.5758 30.9932 22.5061 30.7906 22.4903C30.5249 22.4723 30.0972 22.5443 29.4285 22.909C29.5794 22.2652 30.0206 21.1463 29.3205 20.7276C23.7306 17.3889 21.2992 18.5461 16.3059 19.719C16.2677 19.728 16.2362 19.737 16.2069 19.7505C15.7611 19.9419 16.2429 20.6398 16.387 23.9176C16.5581 27.7763 16.3014 28.0847 16.7089 29.127C17.4338 30.9753 19.3069 32.711 21.5536 33.1253C24.5478 33.6768 27.8459 31.8195 29.3475 28.4809C29.4623 28.2265 30.3471 27.2562 30.9031 25.7141C31.1395 25.0545 31.8374 23.1162 31.1463 22.6051L31.144 22.6074Z" fill="#F5F9F0"/>
  <path d="M30.7928 16.7991C30.7208 16.2678 30.6623 15.8896 30.6623 15.8896C30.3966 14.1877 28.9603 6.8418 20.9323 9.30243C18.537 10.0363 17.2718 13.1476 16.6617 15.0454C16.3465 15.3966 16.0673 15.8131 15.8602 16.3106C15.1848 17.9248 15.6261 19.4646 15.8062 19.9982L15.8872 20.2143L16.0111 20.1873C16.0133 20.2053 16.0178 20.2255 16.0201 20.2436C16.0493 20.2323 23.7306 17.9698 29.3205 20.9617C30.0206 21.3377 29.5771 22.3395 29.4286 22.9158C30.0972 22.5894 30.5249 22.5241 30.7906 22.5398C31.0337 21.923 31.0382 21.0585 31.045 19.5502C31.0472 18.8253 30.9054 17.6298 30.7951 16.8036L30.7928 16.7991Z" fill="#2AB673"/>
  <path d="M30.8898 17.5578C29.8722 15.9797 27.2878 14.6199 24.3183 14.0324C21.3084 13.438 18.4921 13.769 16.6641 15.0409L16.7068 14.9103C18.5664 13.6159 21.2994 13.2894 24.3476 13.8905C27.353 14.4849 29.6268 15.7456 30.856 17.2652L30.892 17.5556L30.8898 17.5578Z" fill="white"/>
  <path d="M22.6615 13.5168C22.5265 12.9089 22.3891 11.7023 22.9902 10.4303C23.3144 9.74591 23.6611 9.27315 24.2779 8.80939L24.4625 8.82064C23.8615 9.26864 23.4315 9.82921 23.1185 10.4933C22.5355 11.727 22.6548 12.8346 22.7853 13.4245L22.6593 13.519L22.6615 13.5168Z" fill="white"/>
  <path d="M22.1684 13.5168C22.0333 12.9112 21.896 11.7023 22.497 10.4303C22.8212 9.74595 23.249 9.26418 23.8681 8.80267H24.0121C23.4111 9.25067 22.9405 9.82925 22.6254 10.4934C22.0423 11.7271 22.1751 12.8977 22.3057 13.4875L22.1661 13.5191L22.1684 13.5168Z" fill="white"/>
  <path d="M21.0425 12.7423C21.5107 13.0282 21.979 13.3142 22.445 13.6001L24.0637 12.632" stroke="white" stroke-width="0.64" stroke-miterlimit="10"/>
  <path d="M21.8713 25.1288C21.6304 25.2278 21.4458 25.4034 21.3265 25.6353C21.2004 25.8807 21.1779 26.2386 21.4098 26.4345C21.5426 26.5448 21.7317 26.5673 21.8915 26.5043C21.9366 26.4863 21.9681 26.4457 21.9546 26.394C21.9433 26.3512 21.8893 26.3129 21.8443 26.3309C21.7159 26.3827 21.5606 26.3669 21.4796 26.2431C21.4053 26.1328 21.3918 25.982 21.4278 25.8582C21.4683 25.7163 21.5539 25.5768 21.6574 25.4732C21.7047 25.4282 21.7565 25.3877 21.8127 25.3539C21.8353 25.3404 21.8578 25.3291 21.8803 25.3179C21.8915 25.3134 21.9005 25.3089 21.9118 25.3021C21.9343 25.2908 21.9118 25.3021 21.9208 25.2976C21.9658 25.2796 21.9973 25.2391 21.9838 25.1873C21.9726 25.1445 21.9186 25.1062 21.8735 25.1243L21.8713 25.1288Z" fill="#296E37"/>
  <path d="M23.1839 25.2999C23.1839 25.2999 23.1681 25.2931 23.1929 25.3044C23.2019 25.3089 23.2109 25.3134 23.2199 25.3179C23.2447 25.3291 23.2672 25.3426 23.2919 25.3561C23.3482 25.3899 23.4 25.4282 23.4473 25.4755C23.5531 25.579 23.6386 25.7186 23.6769 25.8604C23.7129 25.9842 23.6994 26.1351 23.6251 26.2454C23.5441 26.3692 23.3887 26.3827 23.2604 26.3332C23.2154 26.3152 23.1636 26.3535 23.1501 26.3962C23.1366 26.448 23.1681 26.4885 23.2131 26.5065C23.3482 26.5606 23.5103 26.5538 23.6341 26.4795C23.7512 26.4097 23.8232 26.2859 23.8525 26.1553C23.9245 25.8559 23.7692 25.5295 23.5486 25.3269C23.4563 25.2413 23.3482 25.176 23.2311 25.1288C23.1861 25.1108 23.1343 25.149 23.1208 25.1918C23.1073 25.2436 23.1388 25.2841 23.1839 25.3021V25.2999Z" fill="#296E37"/>
  <path d="M21.9974 26.5515C22.3486 26.7136 22.7696 26.7406 23.1051 26.52C23.1996 26.457 23.1118 26.3016 23.015 26.3647C22.7359 26.5493 22.3847 26.5335 22.0875 26.3962C22.0447 26.3759 21.9907 26.3827 21.9659 26.4277C21.9434 26.466 21.9547 26.529 21.9974 26.5493V26.5515Z" fill="#296E37"/>
  <path d="M19.4783 28.7038C19.386 28.598 19.834 27.9136 20.5207 27.4633C21.5517 26.788 22.6729 26.9366 22.9273 26.9793C24.654 27.2562 25.5095 28.7668 25.622 28.9739C25.2371 28.6363 24.5257 28.105 23.5013 27.8235C23.1839 27.7358 22.7359 27.6164 22.1731 27.6434C20.6062 27.7177 19.6067 28.8501 19.4783 28.7038Z" fill="#28714D"/>
  <path d="M20.6777 28.7285C20.9952 28.8726 21.4049 29.0144 21.8889 29.091C23.0798 29.2823 24.0546 28.9694 24.5544 28.769" fill="#296E37"/>
  <path d="M21.5924 30.0005C21.5271 30.1761 21.7634 30.417 21.8242 30.4778C22.1372 30.7952 22.5716 30.7524 22.6414 30.7434C23.1345 30.6849 23.5825 30.2616 23.5172 30.0297C23.4046 29.6335 21.7387 29.5975 21.5924 29.9982V30.0005Z" fill="#28714D"/>
  <path d="M21.7182 22.8663C21.8893 23.5192 21.9388 24.1968 21.8667 24.8699C21.8555 24.9847 22.0333 24.9825 22.0446 24.8699C22.1189 24.1833 22.0649 23.4876 21.8915 22.819C21.8622 22.7087 21.6889 22.756 21.7182 22.8663Z" fill="#296E37"/>
  <path d="M23.1205 22.8189C22.945 23.4876 22.8932 24.1832 22.9675 24.8698C22.9787 24.9824 23.1588 24.9847 23.1453 24.8698C23.0733 24.199 23.1228 23.5213 23.2939 22.8662C23.3232 22.7559 23.1498 22.7064 23.1205 22.8189Z" fill="#296E37"/>
  <path d="M23.4989 46.5C30.2955 46.5 36.4031 43.5508 40.6152 38.8637C38.0466 37.4724 35.6805 36.2973 34.1699 35.775C33.2176 35.4463 32.3284 34.9645 31.5472 34.3297L31.4324 34.2351C30.417 35.345 28.8974 36.6079 26.7813 37.3441C26.4143 37.4702 20.3989 39.4648 16.7384 35.883C16.3737 35.5251 16.0698 35.1491 15.8154 34.7732C14.0346 36.2072 8.41322 36.707 7.16377 37.2788C6.65274 37.5129 6.11469 37.7246 5.58789 37.9272C9.8045 43.1546 16.2611 46.5 23.5012 46.5H23.4989Z" fill="#2AB673"/>
  <path d="M18.4289 31.9974C18.3254 32.146 18.1948 32.3216 18.0439 32.5129H19.908L18.4289 31.9974Z" fill="#36733B"/>
  <path d="M29.8496 32.9474L29.5299 32.5152L27.8505 30.2369L25.6938 32.5152L24.2575 34.0325L19.908 32.5152H18.044C17.704 32.9496 17.2493 33.4809 16.6662 34.0325C16.3893 34.2936 16.1034 34.5413 15.813 34.7754C16.0674 35.1514 16.3713 35.5273 16.736 35.8853C20.3966 39.467 26.4142 37.4747 26.7789 37.3464C28.8951 36.6102 30.4147 35.3472 31.43 34.2374L29.8473 32.9474H29.8496Z" fill="white"/>
  <path d="M17.7337 30.829C17.6999 31.8848 18.4113 33.7083 18.9629 35.4733C19.5662 37.4071 20.505 38.8435 21.2502 39.78C21.4618 40.0479 21.8648 40.0591 22.0944 39.807C22.754 39.0843 23.5172 38.0848 24.1295 36.779C25.4105 34.046 27.1079 31.6529 27.1079 31.4773C27.1079 31.4075 24.8274 32.5669 24.2669 32.6007C23.9517 32.6187 23.8211 32.2383 23.3956 32.245C22.9949 32.2495 22.9296 32.5917 22.5649 32.6007C22.0876 32.612 21.9953 32.0356 21.4168 31.8871C20.917 31.761 20.6874 32.1144 20.1493 32.1437C19.7351 32.1662 18.5014 31.7272 17.7314 30.8245L17.7337 30.829Z" fill="#28714D"/>
</svg>